{
DisplayStrings = (
/gjKHA/gjGA/gjDA/gjCHA/gjGHA/gjCA/gjNYA/gjNNA/gjTA/gjTHA/gjDHA/gjNA/gjPA/gjBA/gjBHA/gjMA/gjYA/gjLA/gjLLA/gjVA/gjSHA/gjSSA/gjSA/gjK_SSA
);
customParameters = (
{
name = glyphOrder;
value = (
    space,
    gjA,
    gjAA,
    gjI,
    gjII,
    gjU,
    gjUU,
    gjvR,
    gjvRR,
    gjvL,
    gjvLL,
    gjE,
    gjAI,
    gjO,
    gjAU,
    gjEcandra,
    gjOcandra,
    gjmAA,
    gjmI,
    gjmII,
    gjmU,
    gjmUU,
    gjmvR,
    gjmvRR,
    gjmvL,
    gjmvLL,
    gjmE,
    gjmAI,
    gjmO,
    gjmAU,
    gjmEcandra,
    gjmOcandra,
    gjKA,
    gjKHA,
    gjGA,
    gjGHA,
    gjNGA,
    gjCA,
    gjCHA,
    "gjCHA.alt",
    gjJA,
    gjJHA,
    gjNYA,
    gjTTA,
    gjTTHA,
    gjDDA,
    gjDDHA,
    gjNNA,
    gjTA,
    gjTHA,
    gjDA,
    gjDHA,
    gjNA,
    gjPA,
    gjPHA,
    gjBA,
    gjBHA,
    gjMA,
    gjYA,
    gjRA,
    gjLA,
    gjLLA,
    gjVA,
    gjSHA,
    gjSSA,
    gjSA,
    gjHA,
    "gjK_SSA",
    "gjJ_NYA",
    gjAnusvara,
    gjCandrabindu,
    gjVisarga,
    gjAvagraha,
    gjVirama,
    gjNukta,
    gjZero,
    gjOne,
    gjTwo,
    gjThree,
    gjFour,
    gjFive,
    gjSix,
    gjSeven,
    gjEight,
    gjNine,
    gjOm,
    gjAbbreviationsign,
    gjRupeesign,
    gjReph,
    gjRakar,
    gjK,
    gjKH,
    gjG,
    gjGH,
    gjNG,
    gjC,
    gjCH,
    gjJ,
    gjJH,
    gjNY,
    gjTT,
    gjTTH,
    gjDD,
    gjDDH,
    gjNN,
    gjT,
    gjTH,
    gjD,
    gjDH,
    gjN,
    gjP,
    gjPH,
    gjB,
    gjBH,
    gjM,
    gjY,
    gjR,
    gjL,
    gjV,
    gjSH,
    gjSS,
    gjS,
    gjH,
    gjLL,
    "gjK_SS",
    "gjJ_NY",
    "gjK_RA",
    "gjKH_RA",
    "gjG_RA",
    "gjGH_RA",
    "gjNG_RA",
    "gjC_RA",
    "gjCH_RA",
    "gjJ_RA",
    "gjJH_RA",
    "gjNY_RA",
    "gjTT_RA",
    "gjTTH_RA",
    "gjDD_RA",
    "gjDDH_RA",
    "gjNN_RA",
    "gjT_RA",
    "gjTH_RA",
    "gjD_RA",
    "gjDH_RA",
    "gjN_RA",
    "gjP_RA",
    "gjPH_RA",
    "gjB_RA",
    "gjBH_RA",
    "gjM_RA",
    "gjY_RA",

glyphs = (
{
glyphname = gjA;
lastChange = "2015-07-10 11:34:50 +0000";
layers = (
{
background = {
paths = (
{
closed = 1;
nodes = (
"241 851 OFFCURVE",
"136 755 OFFCURVE",
"114 617 CURVE SMOOTH",
"111 597 OFFCURVE",
"123 584 OFFCURVE",
"134 584 CURVE SMOOTH",
"147 585 OFFCURVE",
"161 608 OFFCURVE",
"185 609 CURVE SMOOTH",
"202 610 OFFCURVE",
"213 596 OFFCURVE",
"209 573 CURVE SMOOTH",
"204 540 OFFCURVE",
"184 500 OFFCURVE",
"139 455 CURVE",
"114 469 OFFCURVE",
"95 475 OFFCURVE",
"72 475 CURVE SMOOTH",
"27 475 OFFCURVE",
"-16 446 OFFCURVE",
"-24 392 CURVE SMOOTH",
"-36 319 OFFCURVE",
"40 227 OFFCURVE",
"185 227 CURVE SMOOTH",
"404 227 OFFCURVE",
"586 427 OFFCURVE",
"586 647 CURVE SMOOTH",
"586 765 OFFCURVE",
"513 851 OFFCURVE",
"392 851 CURVE SMOOTH"
);
}
);
};
components = (
{
name = gjmAA;
transform = "{1, 0, 0, 1, 981, 0}";
}
);
layerId = "FF8CB9F1-2B98-444C-A502-96421F2531A8";
rightMetricsKey = gjPA;
name = "Bold Italic";
paths = (
{
closed = 1;
nodes = (
"957 546 OFFCURVE",
"862 636 OFFCURVE",
"744 636 CURVE SMOOTH",
"664 636 OFFCURVE",
"627 585 OFFCURVE",
"627 527 CURVE SMOOTH",
"627 486 OFFCURVE",
"644 454 OFFCURVE",
"673 427 CURVE",
"650 326 OFFCURVE",
"581 278 OFFCURVE",
"487 278 CURVE SMOOTH",
"431 278 OFFCURVE",
"376 292 OFFCURVE",
"332 323 CURVE",
"245 297 LINE",
"336 142 OFFCURVE",
"462 88 OFFCURVE",
"611 88 CURVE SMOOTH",
"801 88 OFFCURVE",
"957 218 OFFCURVE",
"957 408 CURVE SMOOTH"
);
},
{
closed = 1;
nodes = (
"1069 457 OFFCURVE",
"1020 416 OFFCURVE",
"913 434 CURVE",
"856 376 LINE",
"908 320 OFFCURVE",
"975 302 OFFCURVE",
"1066 302 CURVE",
"1101 558 LINE"
);
},
{
closed = 1;
nodes = (
"246 851 OFFCURVE",
"136 755 OFFCURVE",
"114 617 CURVE SMOOTH",
"111 597 OFFCURVE",
"123 584 OFFCURVE",
"134 584 CURVE SMOOTH",
"147 585 OFFCURVE",
"161 608 OFFCURVE",
"185 609 CURVE SMOOTH",
"202 610 OFFCURVE",
"213 596 OFFCURVE",
"209 573 CURVE SMOOTH",
"204 540 OFFCURVE",
"184 500 OFFCURVE",
"139 455 CURVE",
"114 469 OFFCURVE",
"95 475 OFFCURVE",
"72 475 CURVE SMOOTH",
"27 475 OFFCURVE",
"-16 446 OFFCURVE",
"-24 392 CURVE SMOOTH",
"-36 319 OFFCURVE",
"40 227 OFFCURVE",
"185 227 CURVE SMOOTH",
"404 227 OFFCURVE",
"586 427 OFFCURVE",
"586 637 CURVE SMOOTH",
"586 777 OFFCURVE",
"498 851 OFFCURVE",
"387 851 CURVE SMOOTH"
);
}
);
width = 1549;
},
{
associatedMasterId = "FF8CB9F1-2B98-444C-A502-96421F2531A8";
background = {
paths = (
{
closed = 1;
nodes = (
"1416 844 OFFCURVE",
"1268 809 OFFCURVE",
"1244 733 CURVE SMOOTH",
"1132 379 LINE SMOOTH",
"1103 287 OFFCURVE",
"1090 234 OFFCURVE",
"1090 186 CURVE SMOOTH",
"1090 85 OFFCURVE",
"1149 -4 OFFCURVE",
"1309 -4 CURVE SMOOTH",
"1449 -4 OFFCURVE",
"1542 98 OFFCURVE",
"1542 184 CURVE SMOOTH",
"1542 202 OFFCURVE",
"1536 220 OFFCURVE",
"1525 220 CURVE SMOOTH",
"1512 220 OFFCURVE",
"1504 187 OFFCURVE",
"1474 187 CURVE SMOOTH",
"1456 187 OFFCURVE",
"1448 203 OFFCURVE",
"1456 229 CURVE SMOOTH",
"1610 733 LINE SMOOTH",
"1615 750 OFFCURVE",
"1618 766 OFFCURVE",
"1618 779 CURVE SMOOTH",
"1618 809 OFFCURVE",
"1605 844 OFFCURVE",
"1517 844 CURVE SMOOTH"
);
},
{
closed = 1;
nodes = (
"270 853 OFFCURVE",
"211 773 OFFCURVE",
"211 688 CURVE SMOOTH",
"211 670 OFFCURVE",
"217 652 OFFCURVE",
"228 652 CURVE SMOOTH",
"241 652 OFFCURVE",
"248 684 OFFCURVE",
"278 684 CURVE SMOOTH",
"291 684 OFFCURVE",
"300 676 OFFCURVE",
"300 660 CURVE SMOOTH",
"300 615 OFFCURVE",
"280 569 OFFCURVE",
"242 539 CURVE",
"106 607 OFFCURVE",
"51 505 OFFCURVE",
"51 400 CURVE SMOOTH",
"51 265 OFFCURVE",
"166 200 OFFCURVE",
"264 200 CURVE SMOOTH",
"479 200 OFFCURVE",
"649 453 OFFCURVE",
"649 656 CURVE SMOOTH",
"649 781 OFFCURVE",
"547 853 OFFCURVE",
"411 853 CURVE SMOOTH"
);
},
{
closed = 1;
nodes = (
"770 652 OFFCURVE",
"694 597 OFFCURVE",
"694 570 CURVE SMOOTH",
"694 549 OFFCURVE",
"720 527 OFFCURVE",
"720 479 CURVE SMOOTH",
"720 424 OFFCURVE",
"680 396 OFFCURVE",
"622 396 CURVE SMOOTH",
"594 396 OFFCURVE",
"564 404 OFFCURVE",
"533 417 CURVE",
"482 364 LINE",
"542 238 OFFCURVE",
"647 161 OFFCURVE",
"808 161 CURVE SMOOTH",
"954 161 OFFCURVE",
"1076 284 OFFCURVE",
"1076 440 CURVE SMOOTH",
"1076 576 OFFCURVE",
"981 652 OFFCURVE",
"861 652 CURVE SMOOTH"
);
},
{
closed = 1;
nodes = (
"1149 427 OFFCURVE",
"1103 399 OFFCURVE",
"996 417 CURVE",
"879 372 LINE",
"973 301 OFFCURVE",
"1055 272 OFFCURVE",
"1146 272 CURVE",
"1181 528 LINE"
);
}
);
};
layerId = "C6676A52-EAEF-476C-B148-B2B9460389E3";
rightMetricsKey = gjPA;
name = original;
paths = (
{
closed = 1;
nodes = (
"1416 844 OFFCURVE",
"1268 809 OFFCURVE",
"1244 733 CURVE SMOOTH",
"1132 379 LINE SMOOTH",
"1103 287 OFFCURVE",
"1090 234 OFFCURVE",
"1090 186 CURVE SMOOTH",
"1090 85 OFFCURVE",
"1149 -4 OFFCURVE",
"1309 -4 CURVE SMOOTH",
"1449 -4 OFFCURVE",
"1542 98 OFFCURVE",
"1542 184 CURVE SMOOTH",
"1542 202 OFFCURVE",
"1536 220 OFFCURVE",
"1525 220 CURVE SMOOTH",
"1512 220 OFFCURVE",
"1504 187 OFFCURVE",
"1474 187 CURVE SMOOTH",
"1456 187 OFFCURVE",
"1448 203 OFFCURVE",
"1456 229 CURVE SMOOTH",
"1610 733 LINE SMOOTH",
"1615 750 OFFCURVE",
"1618 766 OFFCURVE",
"1618 779 CURVE SMOOTH",
"1618 809 OFFCURVE",
"1605 844 OFFCURVE",
"1517 844 CURVE SMOOTH"
);
},
{
closed = 1;
nodes = (
"270 853 OFFCURVE",
"211 773 OFFCURVE",
"211 688 CURVE SMOOTH",
"211 670 OFFCURVE",
"217 652 OFFCURVE",
"228 652 CURVE SMOOTH",
"241 652 OFFCURVE",
"248 684 OFFCURVE",
"278 684 CURVE SMOOTH",
"291 684 OFFCURVE",
"300 676 OFFCURVE",
"300 660 CURVE SMOOTH",
"300 615 OFFCURVE",
"280 569 OFFCURVE",
"242 539 CURVE",
"106 607 OFFCURVE",
"51 505 OFFCURVE",
"51 400 CURVE SMOOTH",
"51 265 OFFCURVE",
"166 200 OFFCURVE",
"264 200 CURVE SMOOTH",
"479 200 OFFCURVE",
"649 453 OFFCURVE",
"649 656 CURVE SMOOTH",
"649 781 OFFCURVE",
"547 853 OFFCURVE",
"411 853 CURVE SMOOTH"
);
},
{
closed = 1;
nodes = (
"770 652 OFFCURVE",
"694 597 OFFCURVE",
"694 570 CURVE SMOOTH",
"694 549 OFFCURVE",
"720 527 OFFCURVE",
"720 479 CURVE SMOOTH",
"720 424 OFFCURVE",
"680 396 OFFCURVE",
"622 396 CURVE SMOOTH",
"594 396 OFFCURVE",
"564 404 OFFCURVE",
"533 417 CURVE",
"482 364 LINE",
"542 238 OFFCURVE",
"647 161 OFFCURVE",
"808 161 CURVE SMOOTH",
"954 161 OFFCURVE",
"1076 284 OFFCURVE",
"1076 440 CURVE SMOOTH",
"1076 576 OFFCURVE",
"981 652 OFFCURVE",
"861 652 CURVE SMOOTH"
);
},
{
closed = 1;
nodes = (
"1149 427 OFFCURVE",
"1103 399 OFFCURVE",
"996 417 CURVE",
"879 372 LINE",
"973 301 OFFCURVE",
"1055 272 OFFCURVE",
"1146 272 CURVE",
"1181 528 LINE"
);
}
);
width = 1549;
}
);
rightMetricsKey = "pa-gujarati";
unicode = 0A85;
},
{
glyphname = gjI;
lastChange = "2015-07-10 08:27:44 +0000";
layers = (
{
background = {
paths = (
{
closed = 1;
nodes = (
"627 860 LINE",
"820 500 OFFCURVE",
"623 270 OFFCURVE",
"479 270 CURVE SMOOTH",
"417 270 OFFCURVE",
"371 297 OFFCURVE",
"371 352 CURVE SMOOTH",
"371 464 OFFCURVE",
"568 440 OFFCURVE",
"568 495 CURVE SMOOTH",
"568 528 OFFCURVE",
"442 535 OFFCURVE",
"442 631 CURVE SMOOTH",
"442 666 OFFCURVE",
"463 686 OFFCURVE",
"484 686 CURVE SMOOTH",
"522 686 OFFCURVE",
"540 632 OFFCURVE",
"572 632 CURVE SMOOTH",
"584 632 OFFCURVE",
"591 643 OFFCURVE",
"591 663 CURVE SMOOTH",
"591 771 OFFCURVE",
"502 846 OFFCURVE",
"375 846 CURVE SMOOTH",
"223 846 OFFCURVE",
"116 754 OFFCURVE",
"116 623 CURVE SMOOTH",
"116 527 OFFCURVE",
"181 462 OFFCURVE",
"274 428 CURVE",
"265 524 LINE",
"124 497 OFFCURVE",
"31 404 OFFCURVE",
"31 281 CURVE SMOOTH",
"31 126 OFFCURVE",
"175 0 OFFCURVE",
"424 0 CURVE SMOOTH",
"730 0 OFFCURVE",
"1052 384 OFFCURVE",
"752 860 CURVE"
);
}
);
};
layerId = "FF8CB9F1-2B98-444C-A502-96421F2531A8";
name = "Bold Italic";
paths = (
{
closed = 1;
nodes = (
"564 1138 OFFCURVE",
"597 1092 OFFCURVE",
"597 1002 CURVE SMOOTH",
"597 798 OFFCURVE",
"725 692 OFFCURVE",
"725 520 CURVE SMOOTH",
"725 351 OFFCURVE",
"598 270 OFFCURVE",
"479 270 CURVE SMOOTH",
"417 270 OFFCURVE",
"371 297 OFFCURVE",
"371 352 CURVE SMOOTH",
"371 464 OFFCURVE",
"568 440 OFFCURVE",
"568 495 CURVE SMOOTH",
"568 528 OFFCURVE",
"442 535 OFFCURVE",
"442 631 CURVE SMOOTH",
"442 666 OFFCURVE",
"463 686 OFFCURVE",
"484 686 CURVE SMOOTH",
"522 686 OFFCURVE",
"540 632 OFFCURVE",
"572 632 CURVE SMOOTH",
"584 632 OFFCURVE",
"591 643 OFFCURVE",
"591 663 CURVE SMOOTH",
"591 771 OFFCURVE",
"502 846 OFFCURVE",
"375 846 CURVE SMOOTH",
"223 846 OFFCURVE",
"116 754 OFFCURVE",
"116 623 CURVE SMOOTH",
"116 527 OFFCURVE",
"181 462 OFFCURVE",
"274 428 CURVE",
"265 524 LINE",
"124 497 OFFCURVE",
"31 404 OFFCURVE",
"31 281 CURVE SMOOTH",
"31 126 OFFCURVE",
"202 0 OFFCURVE",
"450 0 CURVE SMOOTH",
"730 0 OFFCURVE",
"904 170 OFFCURVE",
"904 388 CURVE SMOOTH",
"904 564 OFFCURVE",
"840 717 OFFCURVE",
"764 792 CURVE",
"790 834 OFFCURVE",
"732 864 OFFCURVE",
"816 864 CURVE SMOOTH",
"886 864 OFFCURVE",
"800 1138 OFFCURVE",
"642 1138 CURVE SMOOTH"
);
}
);
width = 944;
}
);
unicode = 0A87;
},
{
glyphname = gjII;
lastChange = "2015-07-10 08:27:44 +0000";
layers = (
{
background = {
paths = (
{
closed = 1;
nodes = (
"964 750 OFFCURVE",
"932 1138 OFFCURVE",
"710 1138 CURVE SMOOTH",
"632 1138 OFFCURVE",
"597 1092 OFFCURVE",
"597 1002 CURVE SMOOTH",
"597 798 OFFCURVE",
"725 692 OFFCURVE",
"725 520 CURVE SMOOTH",
"725 351 OFFCURVE",
"598 270 OFFCURVE",
"479 270 CURVE SMOOTH",
"417 270 OFFCURVE",
"371 297 OFFCURVE",
"371 352 CURVE SMOOTH",
"371 464 OFFCURVE",
"568 440 OFFCURVE",
"568 495 CURVE SMOOTH",
"568 528 OFFCURVE",
"442 535 OFFCURVE",
"442 631 CURVE SMOOTH",
"442 666 OFFCURVE",
"463 686 OFFCURVE",
"484 686 CURVE SMOOTH",
"522 686 OFFCURVE",
"540 632 OFFCURVE",
"572 632 CURVE SMOOTH",
"584 632 OFFCURVE",
"591 643 OFFCURVE",
"591 663 CURVE SMOOTH",
"591 771 OFFCURVE",
"502 846 OFFCURVE",
"375 846 CURVE SMOOTH",
"223 846 OFFCURVE",
"116 754 OFFCURVE",
"116 623 CURVE SMOOTH",
"116 527 OFFCURVE",
"181 462 OFFCURVE",
"274 428 CURVE",
"265 524 LINE",
"124 497 OFFCURVE",
"31 404 OFFCURVE",
"31 281 CURVE SMOOTH",
"31 126 OFFCURVE",
"202 0 OFFCURVE",
"450 0 CURVE SMOOTH",
"730 0 OFFCURVE",
"904 180 OFFCURVE",
"904 396 CURVE SMOOTH",
"904 534 OFFCURVE",
"858 658 OFFCURVE",
"722 792 CURVE",
"748 834 OFFCURVE",
"824 855 OFFCURVE",
"908 792 CURVE SMOOTH"
);
}
);
};
layerId = "FF8CB9F1-2B98-444C-A502-96421F2531A8";
name = "Bold Italic";
paths = (
{
closed = 1;
nodes = (
"592 1165 OFFCURVE",
"546 1112 OFFCURVE",
"546 1013 CURVE SMOOTH",
"546 868 OFFCURVE",
"715 660 OFFCURVE",
"715 500 CURVE SMOOTH",
"715 370 OFFCURVE",
"621 270 OFFCURVE",
"502 270 CURVE SMOOTH",
"414 270 OFFCURVE",
"371 297 OFFCURVE",
"371 352 CURVE SMOOTH",
"371 464 OFFCURVE",
"568 440 OFFCURVE",
"568 495 CURVE SMOOTH",
"568 528 OFFCURVE",
"442 535 OFFCURVE",
"442 631 CURVE SMOOTH",
"442 666 OFFCURVE",
"463 686 OFFCURVE",
"484 686 CURVE SMOOTH",
"522 686 OFFCURVE",
"540 632 OFFCURVE",
"572 632 CURVE SMOOTH",
"584 632 OFFCURVE",
"591 643 OFFCURVE",
"591 663 CURVE SMOOTH",
"591 771 OFFCURVE",
"502 846 OFFCURVE",
"375 846 CURVE SMOOTH",
"223 846 OFFCURVE",
"116 754 OFFCURVE",
"116 623 CURVE SMOOTH",
"116 527 OFFCURVE",
"181 462 OFFCURVE",
"274 428 CURVE",
"265 524 LINE",
"124 497 OFFCURVE",
"31 404 OFFCURVE",
"31 281 CURVE SMOOTH",
"31 126 OFFCURVE",
"202 0 OFFCURVE",
"450 0 CURVE SMOOTH",
"754 0 OFFCURVE",
"894 178 OFFCURVE",
"894 364 CURVE SMOOTH",
"894 562 OFFCURVE",
"702 761 OFFCURVE",
"702 841 CURVE SMOOTH",
"702 867 OFFCURVE",
"709 886 OFFCURVE",
"734 886 CURVE SMOOTH",
"769 886 OFFCURVE",
"770 869 OFFCURVE",
"813 869 CURVE SMOOTH",
"863 869 OFFCURVE",
"882 1165 OFFCURVE",
"660 1165 CURVE SMOOTH"
);
}
);
width = 939;
}
);
unicode = 0A88;
},
{
glyphname = gjvR;
lastChange = "2015-07-10 12:11:38 +0000";
layers = (
{
background = {
paths = (
{
closed = 1;
nodes = (
"238 838 OFFCURVE",
"83 801 OFFCURVE",
"65 713 CURVE SMOOTH",
"46 625 OFFCURVE",
"121 543 OFFCURVE",
"149 543 CURVE SMOOTH",
"197 543 OFFCURVE",
"264 555 OFFCURVE",
"356 555 CURVE SMOOTH",
"438 555 OFFCURVE",
"432 497 OFFCURVE",
"451 473 CURVE",
"150 403 LINE SMOOTH",
"104 392 OFFCURVE",
"10 375 OFFCURVE",
"0 329 CURVE SMOOTH",
"-9 283 OFFCURVE",
"104 49 OFFCURVE",
"199 113 CURVE SMOOTH",
"533 339 LINE",
"566 433 LINE",
"491 681 LINE SMOOTH",
"456 795 OFFCURVE",
"378 838 OFFCURVE",
"308 838 CURVE SMOOTH"
);
},
{
closed = 1;
nodes = (
"1033 390 LINE",
"1065 328 OFFCURVE",
"1082 289 OFFCURVE",
"1070 237 CURVE SMOOTH",
"1067 222 OFFCURVE",
"1051 205 OFFCURVE",
"1033 205 CURVE SMOOTH",
"997 205 OFFCURVE",
"1011 237 OFFCURVE",
"980 237 CURVE SMOOTH",
"964 237 OFFCURVE",
"958 219 OFFCURVE",
"953 193 CURVE SMOOTH",
"936 117 OFFCURVE",
"1019 68 OFFCURVE",
"1129 68 CURVE SMOOTH",
"1201 68 OFFCURVE",
"1297 98 OFFCURVE",
"1320 197 CURVE SMOOTH",
"1338 281 OFFCURVE",
"1294 332 OFFCURVE",
"1101 428 CURVE"
);
},
{
closed = 1;
nodes = (
"1095 455 LINE",
"1079 485 OFFCURVE",
"1072 515 OFFCURVE",
"1079 546 CURVE SMOOTH",
"1085 574 OFFCURVE",
"1106 595 OFFCURVE",
"1132 595 CURVE SMOOTH",
"1158 595 OFFCURVE",
"1169 576 OFFCURVE",
"1164 550 CURVE SMOOTH",
"1149 486 OFFCURVE",
"1025 433 OFFCURVE",
"828 433 CURVE",
"800 305 LINE",
"1123 354 OFFCURVE",
"1310 469 OFFCURVE",
"1357 679 CURVE SMOOTH",
"1374 755 OFFCURVE",
"1339 804 OFFCURVE",
"1249 804 CURVE SMOOTH",
"1135 804 OFFCURVE",
"1031 705 OFFCURVE",
"1004 583 CURVE SMOOTH",
"994 537 OFFCURVE",
"1010 467 OFFCURVE",
"1029 442 CURVE"
);
}
);
};
components = (
{
locked = 1;
name = gjmAA;
transform = "{1, 0, 0, 1, 411, 0}";
}
);
guideLines = (
{
position = "{10, 102}";
}
);
layerId = "FF8CB9F1-2B98-444C-A502-96421F2531A8";
name = "Bold Italic";
paths = (
{
closed = 1;
nodes = (
"181 838 OFFCURVE",
"65 761 OFFCURVE",
"65 653 CURVE SMOOTH",
"65 564 OFFCURVE",
"140 500 OFFCURVE",
"170 500 CURVE SMOOTH",
"215 500 OFFCURVE",
"255 555 OFFCURVE",
"323 555 CURVE SMOOTH",
"375 555 OFFCURVE",
"424 515 OFFCURVE",
"469 450 CURVE",
"257 342 OFFCURVE",
"0 462 OFFCURVE",
"0 329 CURVE SMOOTH",
"0 215 OFFCURVE",
"103 102 OFFCURVE",
"194 102 CURVE SMOOTH",
"288 102 OFFCURVE",
"375 183 OFFCURVE",
"506 377 CURVE",
"541 482 LINE",
"508 611 LINE SMOOTH",
"470 765 OFFCURVE",
"397 838 OFFCURVE",
"271 838 CURVE SMOOTH"
);
},
{
closed = 1;
nodes = (
"1095 380 LINE",
"1105 359 OFFCURVE",
"1109 340 OFFCURVE",
"1109 324 CURVE SMOOTH",
"1109 281 OFFCURVE",
"1080 255 OFFCURVE",
"1042 255 CURVE SMOOTH",
"1000 255 OFFCURVE",
"975 279 OFFCURVE",
"958 279 CURVE SMOOTH",
"946 279 OFFCURVE",
"939 262 OFFCURVE",
"939 241 CURVE SMOOTH",
"939 144 OFFCURVE",
"1043 38 OFFCURVE",
"1225 38 CURVE SMOOTH",
"1361 38 OFFCURVE",
"1427 114 OFFCURVE",
"1427 192 CURVE SMOOTH",
"1427 275 OFFCURVE",
"1370 352 OFFCURVE",
"1149 421 CURVE"
);
},
{
closed = 1;
nodes = (
"1087 841 OFFCURVE",
"991 747 OFFCURVE",
"991 618 CURVE SMOOTH",
"991 558 OFFCURVE",
"1026 491 OFFCURVE",
"1072 467 CURVE",
"1143 500 LINE",
"1127 529 OFFCURVE",
"1120 559 OFFCURVE",
"1127 589 CURVE SMOOTH",
"1133 616 OFFCURVE",
"1154 637 OFFCURVE",
"1180 637 CURVE SMOOTH",
"1206 637 OFFCURVE",
"1217 618 OFFCURVE",
"1212 593 CURVE SMOOTH",
"1195 523 OFFCURVE",
"1091 459 OFFCURVE",
"854 513 CURVE",
"810 396 LINE",
"1381 277 OFFCURVE",
"1551 446 OFFCURVE",
"1551 601 CURVE SMOOTH",
"1551 737 OFFCURVE",
"1415 841 OFFCURVE",
"1255 841 CURVE SMOOTH"
);
}
);
width = 1491;
}
);
unicode = 0A8B;
},
{
glyphname = gjvRR;
lastChange = "2015-07-10 12:14:13 +0000";
layers = (
{
background = {
paths = (
{
closed = 1;
nodes = (
"1095 380 LINE",
"1105 359 OFFCURVE",
"1109 340 OFFCURVE",
"1109 324 CURVE SMOOTH",
"1109 281 OFFCURVE",
"1080 255 OFFCURVE",
"1042 255 CURVE SMOOTH",
"1000 255 OFFCURVE",
"975 279 OFFCURVE",
"958 279 CURVE SMOOTH",
"946 279 OFFCURVE",
"939 262 OFFCURVE",
"939 241 CURVE SMOOTH",
"939 144 OFFCURVE",
"1043 38 OFFCURVE",
"1225 38 CURVE SMOOTH",
"1361 38 OFFCURVE",
"1427 114 OFFCURVE",
"1427 192 CURVE SMOOTH",
"1427 275 OFFCURVE",
"1370 352 OFFCURVE",
"1149 421 CURVE"
);
}
);
};
layerId = "FF8CB9F1-2B98-444C-A502-96421F2531A8";
name = "Bold Italic";
paths = (
{
closed = 1;
nodes = (
"181 838 OFFCURVE",
"65 761 OFFCURVE",
"65 653 CURVE SMOOTH",
"65 564 OFFCURVE",
"140 500 OFFCURVE",
"170 500 CURVE SMOOTH",
"215 500 OFFCURVE",
"255 555 OFFCURVE",
"323 555 CURVE SMOOTH",
"375 555 OFFCURVE",
"424 515 OFFCURVE",
"469 450 CURVE",
"257 342 OFFCURVE",
"0 462 OFFCURVE",
"0 329 CURVE SMOOTH",
"0 215 OFFCURVE",
"103 102 OFFCURVE",
"194 102 CURVE SMOOTH",
"288 102 OFFCURVE",
"375 183 OFFCURVE",
"506 377 CURVE",
"541 482 LINE",
"508 611 LINE SMOOTH",
"470 765 OFFCURVE",
"397 838 OFFCURVE",
"271 838 CURVE SMOOTH"
);
},
{
closed = 1;
nodes = (
"1087 841 OFFCURVE",
"991 747 OFFCURVE",
"991 618 CURVE SMOOTH",
"991 558 OFFCURVE",
"1026 491 OFFCURVE",
"1072 467 CURVE",
"1143 500 LINE",
"1127 529 OFFCURVE",
"1120 559 OFFCURVE",
"1127 589 CURVE SMOOTH",
"1133 616 OFFCURVE",
"1154 637 OFFCURVE",
"1180 637 CURVE SMOOTH",
"1206 637 OFFCURVE",
"1217 618 OFFCURVE",
"1212 593 CURVE SMOOTH",
"1195 523 OFFCURVE",
"1091 459 OFFCURVE",
"854 513 CURVE",
"810 396 LINE",
"1381 277 OFFCURVE",
"1551 446 OFFCURVE",
"1551 601 CURVE SMOOTH",
"1551 737 OFFCURVE",
"1415 841 OFFCURVE",
"1255 841 CURVE SMOOTH"
);
},
{
closed = 1;
nodes = (
"757 844 OFFCURVE",
"609 809 OFFCURVE",
"585 733 CURVE SMOOTH",
"473 379 LINE SMOOTH",
"444 287 OFFCURVE",
"431 234 OFFCURVE",
"431 186 CURVE SMOOTH",
"431 85 OFFCURVE",
"490 -4 OFFCURVE",
"650 -4 CURVE SMOOTH",
"790 -4 OFFCURVE",
"883 98 OFFCURVE",
"883 184 CURVE SMOOTH",
"883 202 OFFCURVE",
"877 220 OFFCURVE",
"866 220 CURVE SMOOTH",
"853 220 OFFCURVE",
"845 187 OFFCURVE",
"815 187 CURVE SMOOTH",
"797 187 OFFCURVE",
"789 203 OFFCURVE",
"797 229 CURVE SMOOTH",
"951 733 LINE SMOOTH",
"956 750 OFFCURVE",
"959 766 OFFCURVE",
"959 779 CURVE SMOOTH",
"959 809 OFFCURVE",
"946 844 OFFCURVE",
"858 844 CURVE SMOOTH"
);
},
{
closed = 1;
nodes = (
"1028 407 OFFCURVE",
"941 312 OFFCURVE",
"941 203 CURVE SMOOTH",
"941 100 OFFCURVE",
"1034 42 OFFCURVE",
"1137 42 CURVE SMOOTH",
"1285 42 OFFCURVE",
"1363 149 OFFCURVE",
"1363 286 CURVE SMOOTH",
"1363 297 OFFCURVE",
"1360 308 OFFCURVE",
"1350 308 CURVE SMOOTH",
"1312 308 OFFCURVE",
"1303 246 OFFCURVE",
"1210 240 CURVE SMOOTH",
"1159 237 OFFCURVE",
"1099 260 OFFCURVE",
"1099 289 CURVE SMOOTH",
"1099 319 OFFCURVE",
"1129 363 OFFCURVE",
"1179 363 CURVE SMOOTH",
"1190 363 OFFCURVE",
"1197 371 OFFCURVE",
"1197 386 CURVE",
"1152 407 LINE"
);
}
);
width = 1491;
}
);
unicode = 0AE0;
},
{
glyphname = gjmAA;
lastChange = "2015-07-10 08:27:44 +0000";
layers = (
{
background = {
paths = (
{
closed = 1;
nodes = (
"62 379 LINE",
"32 287 OFFCURVE",
"20 234 OFFCURVE",
"20 186 CURVE SMOOTH",
"20 85 OFFCURVE",
"79 -4 OFFCURVE",
"239 -4 CURVE SMOOTH",
"379 -4 OFFCURVE",
"472 98 OFFCURVE",
"472 184 CURVE SMOOTH",
"472 202 OFFCURVE",
"466 220 OFFCURVE",
"455 220 CURVE SMOOTH",
"442 220 OFFCURVE",
"434 187 OFFCURVE",
"404 187 CURVE SMOOTH",
"386 187 OFFCURVE",
"378 203 OFFCURVE",
"386 229 CURVE SMOOTH",
"540 733 LINE SMOOTH",
"545 750 OFFCURVE",
"548 766 OFFCURVE",
"548 779 CURVE SMOOTH",
"548 809 OFFCURVE",
"535 844 OFFCURVE",
"452 844 CURVE SMOOTH",
"379 844 OFFCURVE",
"298 821 OFFCURVE",
"187 774 CURVE"
);
}
);
};
layerId = "FF8CB9F1-2B98-444C-A502-96421F2531A8";
rightMetricsKey = gjPA;
name = "Bold Italic";
paths = (
{
closed = 1;
nodes = (
"346 844 OFFCURVE",
"198 809 OFFCURVE",
"174 733 CURVE SMOOTH",
"62 379 LINE SMOOTH",
"33 287 OFFCURVE",
"20 234 OFFCURVE",
"20 186 CURVE SMOOTH",
"20 85 OFFCURVE",
"79 -4 OFFCURVE",
"239 -4 CURVE SMOOTH",
"379 -4 OFFCURVE",
"472 98 OFFCURVE",
"472 184 CURVE SMOOTH",
"472 202 OFFCURVE",
"466 220 OFFCURVE",
"455 220 CURVE SMOOTH",
"442 220 OFFCURVE",
"434 187 OFFCURVE",
"404 187 CURVE SMOOTH",
"386 187 OFFCURVE",
"378 203 OFFCURVE",
"386 229 CURVE SMOOTH",
"540 733 LINE SMOOTH",
"545 750 OFFCURVE",
"548 766 OFFCURVE",
"548 779 CURVE SMOOTH",
"548 809 OFFCURVE",
"535 844 OFFCURVE",
"447 844 CURVE SMOOTH"
);
}
);
width = 568;
}
);
rightMetricsKey = "pa-gujarati";
unicode = 0ABE;
},
{
glyphname = gjmI;
lastChange = "2015-07-10 08:27:44 +0000";
layers = (
{
background = {
paths = (
{
closed = 1;
nodes = (
"140 635 LINE",
"62 379 LINE SMOOTH",
"32 287 OFFCURVE",
"20 234 OFFCURVE",
"20 186 CURVE SMOOTH",
"20 85 OFFCURVE",
"79 -4 OFFCURVE",
"239 -4 CURVE SMOOTH",
"379 -4 OFFCURVE",
"472 98 OFFCURVE",
"472 184 CURVE SMOOTH",
"472 202 OFFCURVE",
"466 220 OFFCURVE",
"455 220 CURVE SMOOTH",
"442 220 OFFCURVE",
"434 187 OFFCURVE",
"404 187 CURVE SMOOTH",
"386 187 OFFCURVE",
"378 203 OFFCURVE",
"386 229 CURVE SMOOTH",
"510 635 LINE"
);
},
{
closed = 1;
nodes = (
"510 635 LINE",
"540 733 LINE SMOOTH",
"590 897 OFFCURVE",
"482 1093 OFFCURVE",
"54 1093 CURVE SMOOTH",
"-244 1093 OFFCURVE",
"-412 978 OFFCURVE",
"-412 833 CURVE SMOOTH",
"-412 751 OFFCURVE",
"-341 673 OFFCURVE",
"-214 673 CURVE SMOOTH",
"-84 673 OFFCURVE",
"46 707 OFFCURVE",
"46 855 CURVE SMOOTH",
"46 873 OFFCURVE",
"40 879 OFFCURVE",
"30 879 CURVE SMOOTH",
"16 879 OFFCURVE",
"9 846 OFFCURVE",
"-23 846 CURVE SMOOTH",
"-37 846 OFFCURVE",
"-44 864 OFFCURVE",
"-44 893 CURVE SMOOTH",
"-44 934 OFFCURVE",
"-2 985 OFFCURVE",
"66 985 CURVE SMOOTH",
"160 985 OFFCURVE",
"221 900 OFFCURVE",
"176 751 CURVE SMOOTH",
"140 635 LINE"
);
}
);
};
layerId = "FF8CB9F1-2B98-444C-A502-96421F2531A8";
name = "Bold Italic";
paths = (
{
closed = 1;
nodes = (
"469 1165 OFFCURVE",
"263 1025 OFFCURVE",
"191 795 CURVE SMOOTH",
"62 379 LINE SMOOTH",
"32 287 OFFCURVE",
"20 234 OFFCURVE",
"20 186 CURVE SMOOTH",
"20 85 OFFCURVE",
"79 -4 OFFCURVE",
"239 -4 CURVE SMOOTH",
"379 -4 OFFCURVE",
"472 98 OFFCURVE",
"472 184 CURVE SMOOTH",
"472 202 OFFCURVE",
"466 220 OFFCURVE",
"455 220 CURVE SMOOTH",
"442 220 OFFCURVE",
"434 187 OFFCURVE",
"404 187 CURVE SMOOTH",
"386 187 OFFCURVE",
"378 203 OFFCURVE",
"386 229 CURVE SMOOTH",
"574 838 LINE SMOOTH",
"619 984 OFFCURVE",
"701 1020 OFFCURVE",
"792 1020 CURVE SMOOTH",
"870 1020 OFFCURVE",
"905 944 OFFCURVE",
"905 867 CURVE SMOOTH",
"905 838 OFFCURVE",
"869 820 OFFCURVE",
"855 820 CURVE SMOOTH",
"823 820 OFFCURVE",
"836 853 OFFCURVE",
"822 853 CURVE SMOOTH",
"812 853 OFFCURVE",
"795 848 OFFCURVE",
"791 829 CURVE SMOOTH",
"757 681 OFFCURVE",
"929 647 OFFCURVE",
"1059 647 CURVE SMOOTH",
"1186 647 OFFCURVE",
"1269 729 OFFCURVE",
"1269 826 CURVE SMOOTH",
"1269 998 OFFCURVE",
"1074 1165 OFFCURVE",
"756 1165 CURVE SMOOTH"
);
}
);
width = 600;
},
{
associatedMasterId = "FF8CB9F1-2B98-444C-A502-96421F2531A8";
background = {
paths = (
{
closed = 1;
nodes = (
"140 635 LINE",
"62 379 LINE SMOOTH",
"32 287 OFFCURVE",
"20 234 OFFCURVE",
"20 186 CURVE SMOOTH",
"20 85 OFFCURVE",
"79 -4 OFFCURVE",
"239 -4 CURVE SMOOTH",
"379 -4 OFFCURVE",
"472 98 OFFCURVE",
"472 184 CURVE SMOOTH",
"472 202 OFFCURVE",
"466 220 OFFCURVE",
"455 220 CURVE SMOOTH",
"442 220 OFFCURVE",
"434 187 OFFCURVE",
"404 187 CURVE SMOOTH",
"386 187 OFFCURVE",
"378 203 OFFCURVE",
"386 229 CURVE SMOOTH",
"510 635 LINE"
);
},
{
closed = 1;
nodes = (
"510 635 LINE",
"540 733 LINE SMOOTH",
"590 897 OFFCURVE",
"482 1093 OFFCURVE",
"54 1093 CURVE SMOOTH",
"-244 1093 OFFCURVE",
"-412 978 OFFCURVE",
"-412 833 CURVE SMOOTH",
"-412 751 OFFCURVE",
"-341 673 OFFCURVE",
"-214 673 CURVE SMOOTH",
"-84 673 OFFCURVE",
"46 707 OFFCURVE",
"46 855 CURVE SMOOTH",
"46 873 OFFCURVE",
"40 879 OFFCURVE",
"30 879 CURVE SMOOTH",
"16 879 OFFCURVE",
"9 846 OFFCURVE",
"-23 846 CURVE SMOOTH",
"-37 846 OFFCURVE",
"-44 864 OFFCURVE",
"-44 893 CURVE SMOOTH",
"-44 934 OFFCURVE",
"-2 985 OFFCURVE",
"66 985 CURVE SMOOTH",
"160 985 OFFCURVE",
"221 900 OFFCURVE",
"176 751 CURVE SMOOTH",
"140 635 LINE"
);
}
);
};
layerId = "40EEC142-9D03-4298-9310-C82D7AFA62C2";
name = Disconnected;
paths = (
{
closed = 1;
nodes = (
"1633 984 OFFCURVE",
"1254 1165 OFFCURVE",
"879 1165 CURVE SMOOTH",
"558 1165 OFFCURVE",
"278 1077 OFFCURVE",
"200 826 CURVE SMOOTH",
"62 379 LINE SMOOTH",
"32 287 OFFCURVE",
"20 234 OFFCURVE",
"20 186 CURVE SMOOTH",
"20 85 OFFCURVE",
"79 -4 OFFCURVE",
"239 -4 CURVE SMOOTH",
"379 -4 OFFCURVE",
"472 98 OFFCURVE",
"472 184 CURVE SMOOTH",
"472 202 OFFCURVE",
"466 220 OFFCURVE",
"455 220 CURVE SMOOTH",
"442 220 OFFCURVE",
"434 187 OFFCURVE",
"404 187 CURVE SMOOTH",
"386 187 OFFCURVE",
"378 203 OFFCURVE",
"386 229 CURVE SMOOTH",
"555 778 LINE SMOOTH",
"604 936 OFFCURVE",
"694 1020 OFFCURVE",
"955 1020 CURVE SMOOTH",
"1252 1020 OFFCURVE",
"1465 884 OFFCURVE",
"1582 884 CURVE SMOOTH",
"1614 884 OFFCURVE",
"1633 895 OFFCURVE",
"1633 921 CURVE SMOOTH"
);
}
);
width = 600;
}
);
unicode = 0ABF;
},
{
glyphname = gjmII;
lastChange = "2015-07-10 08:27:44 +0000";
layers = (
{
background = {
paths = (
{
closed = 1;
nodes = (
"62 379 LINE",
"32 287 OFFCURVE",
"20 234 OFFCURVE",
"20 186 CURVE SMOOTH",
"20 85 OFFCURVE",
"79 -4 OFFCURVE",
"239 -4 CURVE SMOOTH",
"379 -4 OFFCURVE",
"472 98 OFFCURVE",
"472 184 CURVE SMOOTH",
"472 202 OFFCURVE",
"466 220 OFFCURVE",
"455 220 CURVE SMOOTH",
"442 220 OFFCURVE",
"434 187 OFFCURVE",
"404 187 CURVE SMOOTH",
"386 187 OFFCURVE",
"378 203 OFFCURVE",
"386 229 CURVE SMOOTH",
"540 733 LINE SMOOTH",
"545 750 OFFCURVE",
"548 766 OFFCURVE",
"548 779 CURVE SMOOTH",
"548 809 OFFCURVE",
"535 844 OFFCURVE",
"452 844 CURVE SMOOTH",
"379 844 OFFCURVE",
"298 821 OFFCURVE",
"187 774 CURVE"
);
},
{
closed = 0;
nodes = (
"-348 1039 LINE SMOOTH",
"-378 947 OFFCURVE",
"-390 894 OFFCURVE",
"-390 846 CURVE SMOOTH",
"-390 745 OFFCURVE",
"-331 656 OFFCURVE",
"-171 656 CURVE SMOOTH",
"-31 656 OFFCURVE",
"62 758 OFFCURVE",
"62 844 CURVE SMOOTH",
"62 862 OFFCURVE",
"56 880 OFFCURVE",
"45 880 CURVE SMOOTH",
"32 880 OFFCURVE",
"24 847 OFFCURVE",
"-6 847 CURVE SMOOTH",
"-24 847 OFFCURVE",
"-32 863 OFFCURVE",
"-24 889 CURVE SMOOTH"
);
}
);
};
layerId = "FF8CB9F1-2B98-444C-A502-96421F2531A8";
rightMetricsKey = gjPA;
name = "Bold Italic";
paths = (
{
closed = 1;
nodes = (
"-222 1165 OFFCURVE",
"-390 1050 OFFCURVE",
"-390 905 CURVE SMOOTH",
"-390 823 OFFCURVE",
"-319 745 OFFCURVE",
"-192 745 CURVE SMOOTH",
"-39 745 OFFCURVE",
"68 811 OFFCURVE",
"68 919 CURVE SMOOTH",
"68 937 OFFCURVE",
"62 943 OFFCURVE",
"52 943 CURVE SMOOTH",
"38 943 OFFCURVE",
"31 918 OFFCURVE",
"-1 918 CURVE SMOOTH",
"-15 918 OFFCURVE",
"-22 936 OFFCURVE",
"-22 965 CURVE SMOOTH",
"-22 1006 OFFCURVE",
"20 1057 OFFCURVE",
"88 1057 CURVE SMOOTH",
"182 1057 OFFCURVE",
"243 970 OFFCURVE",
"198 823 CURVE SMOOTH",
"62 379 LINE SMOOTH",
"34 287 OFFCURVE",
"20 234 OFFCURVE",
"20 186 CURVE SMOOTH",
"20 85 OFFCURVE",
"79 -4 OFFCURVE",
"239 -4 CURVE SMOOTH",
"379 -4 OFFCURVE",
"472 98 OFFCURVE",
"472 184 CURVE SMOOTH",
"472 202 OFFCURVE",
"466 220 OFFCURVE",
"455 220 CURVE SMOOTH",
"442 220 OFFCURVE",
"434 187 OFFCURVE",
"404 187 CURVE SMOOTH",
"386 187 OFFCURVE",
"378 203 OFFCURVE",
"386 229 CURVE SMOOTH",
"562 805 LINE SMOOTH",
"612 967 OFFCURVE",
"504 1165 OFFCURVE",
"76 1165 CURVE SMOOTH"
);
}
);
width = 568;
}
);
rightMetricsKey = gjPA;
unicode = 0AC0;
},
{
glyphname = gjmU;
lastChange = "2015-07-10 08:27:44 +0000";
layers = (
{
background = {
paths = (
{
closed = 0;
nodes = (
"-331 -274 LINE",
"-238 -240 OFFCURVE",
"-173 -175 OFFCURVE",
"-173 -79 CURVE SMOOTH",
"-173 52 OFFCURVE",
"-280 144 OFFCURVE",
"-432 144 CURVE SMOOTH",
"-559 144 OFFCURVE",
"-648 69 OFFCURVE",
"-648 -39 CURVE SMOOTH",
"-648 -59 OFFCURVE",
"-641 -70 OFFCURVE",
"-629 -70 CURVE SMOOTH",
"-597 -70 OFFCURVE",
"-579 -16 OFFCURVE",
"-541 -16 CURVE SMOOTH",
"-520 -16 OFFCURVE",
"-499 -36 OFFCURVE",
"-499 -71 CURVE SMOOTH",
"-499 -167 OFFCURVE",
"-619 -210 OFFCURVE",
"-775 -130 CURVE",
"-831 -101 OFFCURVE",
"-844 -83 OFFCURVE",
"-844 -152 CURVE SMOOTH",
"-844 -221 OFFCURVE",
"-657 -323 OFFCURVE",
"-486 -323 CURVE"
);
}
);
};
layerId = "FF8CB9F1-2B98-444C-A502-96421F2531A8";
name = "Bold Italic";
paths = (
{
closed = 1;
nodes = (
"-561 144 OFFCURVE",
"-652 69 OFFCURVE",
"-652 -39 CURVE SMOOTH",
"-652 -59 OFFCURVE",
"-645 -70 OFFCURVE",
"-633 -70 CURVE SMOOTH",
"-601 -70 OFFCURVE",
"-583 -16 OFFCURVE",
"-545 -16 CURVE SMOOTH",
"-524 -16 OFFCURVE",
"-503 -36 OFFCURVE",
"-503 -71 CURVE SMOOTH",
"-503 -129 OFFCURVE",
"-545 -162 OFFCURVE",
"-598 -162 CURVE SMOOTH",
"-686 -162 OFFCURVE",
"-748 -80 OFFCURVE",
"-782 -80 CURVE SMOOTH",
"-798 -80 OFFCURVE",
"-806 -87 OFFCURVE",
"-806 -108 CURVE SMOOTH",
"-806 -197 OFFCURVE",
"-667 -312 OFFCURVE",
"-472 -312 CURVE SMOOTH",
"-293 -312 OFFCURVE",
"-177 -209 OFFCURVE",
"-177 -79 CURVE SMOOTH",
"-177 51 OFFCURVE",
"-311 144 OFFCURVE",
"-436 144 CURVE SMOOTH"
);
}
);
width = 0;
}
);
unicode = 0AC1;
},
{
glyphname = gjmUU;
lastChange = "2015-07-10 08:27:44 +0000";
layers = (
{
background = {
paths = (
{
closed = 1;
nodes = (
"-527 174 OFFCURVE",
"-659 93 OFFCURVE",
"-681 -35 CURVE SMOOTH",
"-704 -163 OFFCURVE",
"-588 -278 OFFCURVE",
"-465 -300 CURVE SMOOTH",
"-342 -322 OFFCURVE",
"-239 -263 OFFCURVE",
"-221 -157 CURVE SMOOTH",
"-217 -137 OFFCURVE",
"-222 -125 OFFCURVE",
"-234 -123 CURVE SMOOTH",
"-265 -118 OFFCURVE",
"-293 -168 OFFCURVE",
"-330 -161 CURVE SMOOTH",
"-351 -158 OFFCURVE",
"-368 -134 OFFCURVE",
"-362 -100 CURVE SMOOTH",
"-352 -43 OFFCURVE",
"-305 -17 OFFCURVE",
"-252 -27 CURVE SMOOTH",
"-166 -42 OFFCURVE",
"-119 -133 OFFCURVE",
"-85 -139 CURVE SMOOTH",
"-70 -142 OFFCURVE",
"-61 -137 OFFCURVE",
"-57 -116 CURVE SMOOTH",
"-41 -28 OFFCURVE",
"-158 109 OFFCURVE",
"-350 143 CURVE SMOOTH"
);
}
);
};
layerId = "FF8CB9F1-2B98-444C-A502-96421F2531A8";
name = "Bold Italic";
paths = (
{
closed = 1;
nodes = (
"-528 150 OFFCURVE",
"-639 60 OFFCURVE",
"-639 -80 CURVE SMOOTH",
"-639 -220 OFFCURVE",
"-516 -305 OFFCURVE",
"-376 -305 CURVE SMOOTH",
"-246 -305 OFFCURVE",
"-174 -219 OFFCURVE",
"-174 -149 CURVE SMOOTH",
"-174 -132 OFFCURVE",
"-182 -123 OFFCURVE",
"-194 -123 CURVE SMOOTH",
"-222 -123 OFFCURVE",
"-240 -161 OFFCURVE",
"-279 -161 CURVE SMOOTH",
"-304 -161 OFFCURVE",
"-317 -139 OFFCURVE",
"-317 -113 CURVE SMOOTH",
"-317 -72 OFFCURVE",
"-288 -25 OFFCURVE",
"-227 -25 CURVE SMOOTH",
"-125 -25 OFFCURVE",
"-75 -140 OFFCURVE",
"-32 -140 CURVE SMOOTH",
"-17 -140 OFFCURVE",
"-9 -123 OFFCURVE",
"-9 -103 CURVE SMOOTH",
"-9 -1 OFFCURVE",
"-159 150 OFFCURVE",
"-376 150 CURVE SMOOTH"
);
}
);
width = 0;
}
);
unicode = 0AC2;
},
{
glyphname = gjmvR;
lastChange = "2015-07-10 08:31:58 +0000";
layers = (
{
background = {
paths = (
{
closed = 1;
nodes = (
"-528 150 OFFCURVE",
"-639 60 OFFCURVE",
"-639 -80 CURVE SMOOTH",
"-639 -220 OFFCURVE",
"-516 -305 OFFCURVE",
"-376 -305 CURVE SMOOTH",
"-246 -305 OFFCURVE",
"-174 -219 OFFCURVE",
"-174 -149 CURVE SMOOTH",
"-174 -132 OFFCURVE",
"-182 -123 OFFCURVE",
"-194 -123 CURVE SMOOTH",
"-222 -123 OFFCURVE",
"-240 -161 OFFCURVE",
"-279 -161 CURVE SMOOTH",
"-304 -161 OFFCURVE",
"-317 -139 OFFCURVE",
"-317 -113 CURVE SMOOTH",
"-317 -72 OFFCURVE",
"-288 -25 OFFCURVE",
"-227 -25 CURVE SMOOTH",
"-125 -25 OFFCURVE",
"-75 -140 OFFCURVE",
"-32 -140 CURVE SMOOTH",
"-17 -140 OFFCURVE",
"-9 -123 OFFCURVE",
"-9 -103 CURVE SMOOTH",
"-9 -1 OFFCURVE",
"-159 150 OFFCURVE",
"-376 150 CURVE SMOOTH"
);
}
);
};
layerId = "FF8CB9F1-2B98-444C-A502-96421F2531A8";
name = "Bold Italic";
paths = (
{
closed = 1;
nodes = (
"-552 60 OFFCURVE",
"-639 -5 OFFCURVE",
"-639 -114 CURVE SMOOTH",
"-639 -217 OFFCURVE",
"-556 -305 OFFCURVE",
"-413 -305 CURVE SMOOTH",
"-255 -305 OFFCURVE",
"-127 -198 OFFCURVE",
"-127 -61 CURVE SMOOTH",
"-127 -50 OFFCURVE",
"-130 -39 OFFCURVE",
"-140 -39 CURVE SMOOTH",
"-178 -39 OFFCURVE",
"-177 -101 OFFCURVE",
"-330 -107 CURVE SMOOTH",
"-381 -109 OFFCURVE",
"-421 -87 OFFCURVE",
"-421 -58 CURVE SMOOTH",
"-421 -28 OFFCURVE",
"-381 -4 OFFCURVE",
"-331 -4 CURVE SMOOTH",
"-320 -4 OFFCURVE",
"-313 4 OFFCURVE",
"-313 19 CURVE",
"-428 60 LINE"
);
}
);
width = 0;
}
);
unicode = 0AC3;
},
{
glyphname = gjmE;
lastChange = "2015-07-10 08:27:44 +0000";
layers = (
{
layerId = "FF8CB9F1-2B98-444C-A502-96421F2531A8";
name = "Bold Italic";
paths = (
{
closed = 1;
nodes = (
"-481 1177 OFFCURVE",
"-522 1140 OFFCURVE",
"-522 1080 CURVE SMOOTH",
"-522 969 OFFCURVE",
"-396 877 OFFCURVE",
"-109 877 CURVE SMOOTH",
"-48 877 OFFCURVE",
"-26 890 OFFCURVE",
"-26 907 CURVE SMOOTH",
"-26 914 OFFCURVE",
"-29 920 OFFCURVE",
"-37 926 CURVE SMOOTH",
"-316 1156 OFFCURVE",
"-356 1177 OFFCURVE",
"-425 1177 CURVE SMOOTH"
);
}
);
width = 0;
}
);
unicode = 0AC7;
},
{
glyphname = gjmAI;
lastChange = "2015-07-10 08:27:44 +0000";
layers = (
{
background = {
paths = (
{
closed = 1;
nodes = (
"-37 926 CURVE SMOOTH",
"-29 920 OFFCURVE",
"-26 914 OFFCURVE",
"-26 907 CURVE SMOOTH",
"-26 890 OFFCURVE",
"-48 877 OFFCURVE",
"-109 877 CURVE SMOOTH",
"-396 877 OFFCURVE",
"-522 969 OFFCURVE",
"-522 1080 CURVE SMOOTH",
"-522 1140 OFFCURVE",
"-481 1177 OFFCURVE",
"-425 1177 CURVE SMOOTH",
"-356 1177 OFFCURVE",
"-316 1156 OFFCURVE"
);
}
);
};
layerId = "FF8CB9F1-2B98-444C-A502-96421F2531A8";
name = "Bold Italic";
paths = (
{
closed = 1;
nodes = (
"-204 1299 OFFCURVE",
"-239 1259 OFFCURVE",
"-239 1188 CURVE SMOOTH",
"-239 1123 OFFCURVE",
"-201 1052 OFFCURVE",
"-122 966 CURVE",
"-136 992 LINE",
"-216 1060 LINE SMOOTH",
"-340 1165 OFFCURVE",
"-378 1177 OFFCURVE",
"-430 1177 CURVE SMOOTH",
"-486 1177 OFFCURVE",
"-527 1140 OFFCURVE",
"-527 1080 CURVE SMOOTH",
"-527 969 OFFCURVE",
"-401 877 OFFCURVE",
"-114 877 CURVE SMOOTH",
"-47 877 OFFCURVE",
"-25 888 OFFCURVE",
"-25 912 CURVE SMOOTH",
"-25 913 OFFCURVE",
"-24 914 OFFCURVE",
"-60 1147 CURVE SMOOTH",
"-77 1256 OFFCURVE",
"-108 1299 OFFCURVE",
"-159 1299 CURVE SMOOTH"
);
}
);
width = 0;
}
);
unicode = 0AC8;
},
{
glyphname = gjKA;
lastChange = "2015-07-10 08:27:44 +0000";
layers = (
{
associatedMasterId = "FF8CB9F1-2B98-444C-A502-96421F2531A8";
background = {
paths = (
{
closed = 1;
nodes = (
"-15 98 OFFCURVE",
"113 -9 OFFCURVE",
"339 -9 CURVE SMOOTH",
"545 -9 OFFCURVE",
"672 89 OFFCURVE",
"686 227 CURVE SMOOTH",
"703 382 OFFCURVE",
"430 448 OFFCURVE",
"440 540 CURVE SMOOTH",
"444 573 OFFCURVE",
"458 576 OFFCURVE",
"478 576 CURVE SMOOTH",
"499 576 OFFCURVE",
"566 565 OFFCURVE",
"568 569 CURVE SMOOTH",
"601 623 OFFCURVE",
"622 650 OFFCURVE",
"626 692 CURVE SMOOTH",
"632 746 OFFCURVE",
"517 839 OFFCURVE",
"413 839 CURVE SMOOTH",
"303 839 OFFCURVE",
"221 786 OFFCURVE",
"211 688 CURVE SMOOTH",
"191 504 OFFCURVE",
"518 435 OFFCURVE",
"510 355 CURVE SMOOTH",
"506 323 OFFCURVE",
"468 279 OFFCURVE",
"335 279 CURVE SMOOTH",
"201 279 OFFCURVE",
"143 331 OFFCURVE",
"139 398 CURVE SMOOTH",
"138 420 OFFCURVE",
"133 428 OFFCURVE",
"122 428 CURVE SMOOTH",
"91 428 OFFCURVE",
"12 355 OFFCURVE",
"-1 236 CURVE SMOOTH"
);
},
{
closed = 1;
nodes = (
"603 509 OFFCURVE",
"593 516 OFFCURVE",
"576 516 CURVE SMOOTH",
"522 516 OFFCURVE",
"458 463 OFFCURVE",
"268 463 CURVE SMOOTH",
"224 463 OFFCURVE",
"208 452 OFFCURVE",
"208 429 CURVE SMOOTH",
"208 397 OFFCURVE",
"252 349 OFFCURVE",
"331 349 CURVE SMOOTH",
"422 349 OFFCURVE",
"603 435 OFFCURVE",
"603 494 CURVE SMOOTH"
);
}
);
};
layerId = "B58D9CD6-DCBA-495E-A027-BBA101B63102";
name = "Bold Jun 2 15, 15:45";
paths = (
{
closed = 1;
nodes = (
"456 407 LINE",
"474 389 OFFCURVE",
"481 371 OFFCURVE",
"481 351 CURVE SMOOTH",
"481 317 OFFCURVE",
"449 279 OFFCURVE",
"340 279 CURVE SMOOTH",
"187 279 OFFCURVE",
"130 334 OFFCURVE",
"122 401 CURVE SMOOTH",
"119 422 OFFCURVE",
"113 428 OFFCURVE",
"102 428 CURVE SMOOTH",
"74 428 OFFCURVE",
"19 340 OFFCURVE",
"19 246 CURVE SMOOTH",
"19 102 OFFCURVE",
"136 -9 OFFCURVE",
"356 -9 CURVE SMOOTH",
"563 -9 OFFCURVE",
"686 102 OFFCURVE",
"686 223 CURVE SMOOTH",
"686 320 OFFCURVE",
"592 382 OFFCURVE",
"520 438 CURVE"
);
},
{
closed = 1;
nodes = (
"613 509 OFFCURVE",
"603 516 OFFCURVE",
"586 516 CURVE SMOOTH",
"513 516 OFFCURVE",
"451 456 OFFCURVE",
"258 456 CURVE SMOOTH",
"202 456 OFFCURVE",
"186 440 OFFCURVE",
"186 417 CURVE SMOOTH",
"186 381 OFFCURVE",
"235 357 OFFCURVE",
"321 357 CURVE SMOOTH",
"445 357 OFFCURVE",
"613 435 OFFCURVE",
"613 494 CURVE SMOOTH"
);
},
{
closed = 1;
nodes = (
"491 461 LINE",
"461 487 OFFCURVE",
"440 512 OFFCURVE",
"440 540 CURVE SMOOTH",
"440 563 OFFCURVE",
"456 576 OFFCURVE",
"476 576 CURVE SMOOTH",
"499 576 OFFCURVE",
"515 555 OFFCURVE",
"532 555 CURVE SMOOTH",
"549 555 OFFCURVE",
"567 584 OFFCURVE",
"567 652 CURVE SMOOTH",
"567 766 OFFCURVE",
"478 839 OFFCURVE",
"381 839 CURVE SMOOTH",
"284 839 OFFCURVE",
"211 772 OFFCURVE",
"211 672 CURVE SMOOTH",
"211 573 OFFCURVE",
"288 500 OFFCURVE",
"427 446 CURVE"
);
}
);
width = 757.002;
},
{
associatedMasterId = "FF8CB9F1-2B98-444C-A502-96421F2531A8";
background = {
paths = (
{
closed = 1;
nodes = (
"30 111 OFFCURVE",
"87 -9 OFFCURVE",
"325 -9 CURVE SMOOTH",
"613 -9 OFFCURVE",
"723 124 OFFCURVE",
"718 262 CURVE SMOOTH",
"714 379 OFFCURVE",
"598 411 OFFCURVE",
"510 449 CURVE SMOOTH",
"422 487 OFFCURVE",
"399 493 OFFCURVE",
"399 513 CURVE SMOOTH",
"399 553 OFFCURVE",
"486 576 OFFCURVE",
"561 576 CURVE SMOOTH",
"616 576 OFFCURVE",
"636 552 OFFCURVE",
"659 533 CURVE SMOOTH",
"684 513 OFFCURVE",
"718 586 OFFCURVE",
"718 664 CURVE SMOOTH",
"718 766 OFFCURVE",
"638 839 OFFCURVE",
"530 839 CURVE SMOOTH",
"347 839 OFFCURVE",
"171 751 OFFCURVE",
"178 595 CURVE SMOOTH",
"182 500 OFFCURVE",
"228 480 OFFCURVE",
"357 413 CURVE SMOOTH",
"439 371 OFFCURVE",
"447 355 OFFCURVE",
"448 333 CURVE SMOOTH",
"449 301 OFFCURVE",
"412 279 OFFCURVE",
"332 279 CURVE SMOOTH",
"247 279 OFFCURVE",
"202 336 OFFCURVE",
"201 356 CURVE SMOOTH",
"200 376 OFFCURVE",
"200 388 OFFCURVE",
"172 388 CURVE SMOOTH",
"144 388 OFFCURVE",
"30 333 OFFCURVE",
"30 190 CURVE SMOOTH"
);
},
{
closed = 1;
nodes = (
"583 526 LINE SMOOTH",
"574 538 OFFCURVE",
"560 543 OFFCURVE",
"546 535 CURVE SMOOTH",
"267 387 LINE SMOOTH",
"255 381 OFFCURVE",
"251 365 OFFCURVE",
"258 354 CURVE SMOOTH",
"271 332 LINE SMOOTH",
"279 318 OFFCURVE",
"295 314 OFFCURVE",
"307 321 CURVE SMOOTH",
"587 470 LINE SMOOTH",
"598 477 OFFCURVE",
"603 491 OFFCURVE",
"595 504 CURVE SMOOTH"
);
}
);
};
guideLines = (
{
angle = 90;
position = "{374, 215}";
}
);
layerId = "CE8E40B7-9A06-46E7-9AD8-96ED10AA5577";
name = "Bold Italic Jul 9 15, 15:11 Jul 9 15, 15:23";
paths = (
{
closed = 1;
nodes = (
"336 839 OFFCURVE",
"204 746 OFFCURVE",
"204 612 CURVE SMOOTH",
"204 533 OFFCURVE",
"247 494 OFFCURVE",
"368 413 CURVE SMOOTH",
"431 371 OFFCURVE",
"447 334 OFFCURVE",
"448 312 CURVE SMOOTH",
"449 280 OFFCURVE",
"412 250 OFFCURVE",
"332 250 CURVE SMOOTH",
"187 250 OFFCURVE",
"140 314 OFFCURVE",
"140 356 CURVE SMOOTH",
"140 376 OFFCURVE",
"139 388 OFFCURVE",
"124 388 CURVE SMOOTH",
"98 388 OFFCURVE",
"30 324 OFFCURVE",
"30 215 CURVE SMOOTH",
"30 84 OFFCURVE",
"162 -9 OFFCURVE",
"374 -9 CURVE SMOOTH",
"575 -9 OFFCURVE",
"718 90 OFFCURVE",
"718 227 CURVE SMOOTH",
"718 320 OFFCURVE",
"635 362 OFFCURVE",
"515 428 CURVE SMOOTH",
"442 468 OFFCURVE",
"425 495 OFFCURVE",
"425 515 CURVE SMOOTH",
"425 555 OFFCURVE",
"461 598 OFFCURVE",
"536 598 CURVE SMOOTH",
"618 598 OFFCURVE",
"668 575 OFFCURVE",
"691 556 CURVE SMOOTH",
"716 536 OFFCURVE",
"750 586 OFFCURVE",
"750 664 CURVE SMOOTH",
"750 766 OFFCURVE",
"653 839 OFFCURVE",
"519 839 CURVE SMOOTH"
);
},
{
closed = 1;
nodes = (
"434 445 LINE",
"233 451 LINE SMOOTH",
"192 452 OFFCURVE",
"176 422 OFFCURVE",
"197 397 CURVE SMOOTH",
"253 330 LINE SMOOTH",
"270 309 OFFCURVE",
"304 284 OFFCURVE",
"340 319 CURVE SMOOTH",
"456 431 LINE",
"638 433 LINE SMOOTH",
"660 433 OFFCURVE",
"677 467 OFFCURVE",
"659 484 CURVE SMOOTH",
"599 543 LINE SMOOTH",
"583 559 OFFCURVE",
"543 568 OFFCURVE",
"526 548 CURVE SMOOTH"
);
}
);
width = 748;
},
{
associatedMasterId = "FF8CB9F1-2B98-444C-A502-96421F2531A8";
background = {
paths = (
{
closed = 1;
nodes = (
"30 111 OFFCURVE",
"87 -9 OFFCURVE",
"325 -9 CURVE SMOOTH",
"613 -9 OFFCURVE",
"723 124 OFFCURVE",
"718 262 CURVE SMOOTH",
"714 379 OFFCURVE",
"598 411 OFFCURVE",
"510 449 CURVE SMOOTH",
"422 487 OFFCURVE",
"399 493 OFFCURVE",
"399 513 CURVE SMOOTH",
"399 553 OFFCURVE",
"486 576 OFFCURVE",
"561 576 CURVE SMOOTH",
"616 576 OFFCURVE",
"636 552 OFFCURVE",
"659 533 CURVE SMOOTH",
"684 513 OFFCURVE",
"718 586 OFFCURVE",
"718 664 CURVE SMOOTH",
"718 766 OFFCURVE",
"638 839 OFFCURVE",
"530 839 CURVE SMOOTH",
"347 839 OFFCURVE",
"171 751 OFFCURVE",
"178 595 CURVE SMOOTH",
"182 500 OFFCURVE",
"228 480 OFFCURVE",
"357 413 CURVE SMOOTH",
"439 371 OFFCURVE",
"447 355 OFFCURVE",
"448 333 CURVE SMOOTH",
"449 301 OFFCURVE",
"412 279 OFFCURVE",
"332 279 CURVE SMOOTH",
"247 279 OFFCURVE",
"202 336 OFFCURVE",
"201 356 CURVE SMOOTH",
"200 376 OFFCURVE",
"200 388 OFFCURVE",
"172 388 CURVE SMOOTH",
"144 388 OFFCURVE",
"30 333 OFFCURVE",
"30 190 CURVE SMOOTH"
);
},
{
closed = 1;
nodes = (
"583 526 LINE SMOOTH",
"574 538 OFFCURVE",
"560 543 OFFCURVE",
"546 535 CURVE SMOOTH",
"267 387 LINE SMOOTH",
"255 381 OFFCURVE",
"251 365 OFFCURVE",
"258 354 CURVE SMOOTH",
"271 332 LINE SMOOTH",
"279 318 OFFCURVE",
"295 314 OFFCURVE",
"307 321 CURVE SMOOTH",
"587 470 LINE SMOOTH",
"598 477 OFFCURVE",
"603 491 OFFCURVE",
"595 504 CURVE SMOOTH"
);
}
);
};
guideLines = (
{
angle = 90;
position = "{374, 215}";
}
);
layerId = "1953A51A-563D-4BD2-8CF5-0C5EB2DDE6DD";
name = "Bold Italic Jul 9 15, 15:11 Jul 9 15, 15:28";
paths = (
{
closed = 1;
nodes = (
"336 839 OFFCURVE",
"204 746 OFFCURVE",
"204 612 CURVE SMOOTH",
"204 533 OFFCURVE",
"247 494 OFFCURVE",
"368 413 CURVE SMOOTH",
"431 371 OFFCURVE",
"447 334 OFFCURVE",
"448 312 CURVE SMOOTH",
"449 280 OFFCURVE",
"412 250 OFFCURVE",
"332 250 CURVE SMOOTH",
"134 250 OFFCURVE",
"144 338 OFFCURVE",
"110 338 CURVE SMOOTH",
"84 338 OFFCURVE",
"30 274 OFFCURVE",
"30 208 CURVE SMOOTH",
"30 77 OFFCURVE",
"162 -9 OFFCURVE",
"374 -9 CURVE SMOOTH",
"575 -9 OFFCURVE",
"718 90 OFFCURVE",
"718 227 CURVE SMOOTH",
"718 320 OFFCURVE",
"635 362 OFFCURVE",
"515 428 CURVE SMOOTH",
"442 468 OFFCURVE",
"425 495 OFFCURVE",
"425 515 CURVE SMOOTH",
"425 555 OFFCURVE",
"461 598 OFFCURVE",
"564 598 CURVE SMOOTH",
"618 598 OFFCURVE",
"668 575 OFFCURVE",
"691 556 CURVE SMOOTH",
"716 536 OFFCURVE",
"750 586 OFFCURVE",
"750 664 CURVE SMOOTH",
"750 766 OFFCURVE",
"653 839 OFFCURVE",
"519 839 CURVE SMOOTH"
);
},
{
closed = 1;
nodes = (
"390 445 LINE",
"222 445 LINE SMOOTH",
"181 445 OFFCURVE",
"149 413 OFFCURVE",
"172 388 CURVE SMOOTH",
"229 325 LINE SMOOTH",
"248 304 OFFCURVE",
"274 286 OFFCURVE",
"316 314 CURVE SMOOTH",
"456 406 LINE",
"638 433 LINE SMOOTH",
"660 436 OFFCURVE",
"677 467 OFFCURVE",
"659 484 CURVE SMOOTH",
"599 543 LINE SMOOTH",
"583 559 OFFCURVE",
"547 564 OFFCURVE",
"526 548 CURVE SMOOTH"
);
}
);
width = 748;
},
{
associatedMasterId = "FF8CB9F1-2B98-444C-A502-96421F2531A8";
background = {
paths = (
{
closed = 1;
nodes = (
"30 111 OFFCURVE",
"87 -9 OFFCURVE",
"325 -9 CURVE SMOOTH",
"613 -9 OFFCURVE",
"723 124 OFFCURVE",
"718 262 CURVE SMOOTH",
"714 379 OFFCURVE",
"598 411 OFFCURVE",
"510 449 CURVE SMOOTH",
"422 487 OFFCURVE",
"399 493 OFFCURVE",
"399 513 CURVE SMOOTH",
"399 553 OFFCURVE",
"486 576 OFFCURVE",
"561 576 CURVE SMOOTH",
"616 576 OFFCURVE",
"636 552 OFFCURVE",
"659 533 CURVE SMOOTH",
"684 513 OFFCURVE",
"718 586 OFFCURVE",
"718 664 CURVE SMOOTH",
"718 766 OFFCURVE",
"638 839 OFFCURVE",
"530 839 CURVE SMOOTH",
"347 839 OFFCURVE",
"171 751 OFFCURVE",
"178 595 CURVE SMOOTH",
"182 500 OFFCURVE",
"228 480 OFFCURVE",
"357 413 CURVE SMOOTH",
"439 371 OFFCURVE",
"447 355 OFFCURVE",
"448 333 CURVE SMOOTH",
"449 301 OFFCURVE",
"412 279 OFFCURVE",
"332 279 CURVE SMOOTH",
"247 279 OFFCURVE",
"202 336 OFFCURVE",
"201 356 CURVE SMOOTH",
"200 376 OFFCURVE",
"200 388 OFFCURVE",
"172 388 CURVE SMOOTH",
"144 388 OFFCURVE",
"30 333 OFFCURVE",
"30 190 CURVE SMOOTH"
);
},
{
closed = 1;
nodes = (
"583 526 LINE SMOOTH",
"574 538 OFFCURVE",
"560 543 OFFCURVE",
"546 535 CURVE SMOOTH",
"267 387 LINE SMOOTH",
"255 381 OFFCURVE",
"251 365 OFFCURVE",
"258 354 CURVE SMOOTH",
"271 332 LINE SMOOTH",
"279 318 OFFCURVE",
"295 314 OFFCURVE",
"307 321 CURVE SMOOTH",
"587 470 LINE SMOOTH",
"598 477 OFFCURVE",
"603 491 OFFCURVE",
"595 504 CURVE SMOOTH"
);
}
);
};
guideLines = (
{
angle = 90;
position = "{374, 215}";
}
);
layerId = "4E8B1FF7-4D06-43EA-84A2-2D7F9298D747";
name = "Bold Italic Jul 9 15, 15:28";
paths = (
{
closed = 1;
nodes = (
"304 839 OFFCURVE",
"178 746 OFFCURVE",
"178 612 CURVE SMOOTH",
"178 533 OFFCURVE",
"228 480 OFFCURVE",
"357 413 CURVE SMOOTH",
"439 371 OFFCURVE",
"447 355 OFFCURVE",
"448 333 CURVE SMOOTH",
"449 301 OFFCURVE",
"412 279 OFFCURVE",
"332 279 CURVE SMOOTH",
"247 279 OFFCURVE",
"202 336 OFFCURVE",
"201 356 CURVE SMOOTH",
"200 376 OFFCURVE",
"200 388 OFFCURVE",
"172 388 CURVE SMOOTH",
"144 388 OFFCURVE",
"30 346 OFFCURVE",
"30 215 CURVE SMOOTH",
"30 84 OFFCURVE",
"173 -9 OFFCURVE",
"374 -9 CURVE SMOOTH",
"575 -9 OFFCURVE",
"718 84 OFFCURVE",
"718 215 CURVE SMOOTH",
"718 344 OFFCURVE",
"598 411 OFFCURVE",
"510 449 CURVE SMOOTH",
"422 487 OFFCURVE",
"399 493 OFFCURVE",
"399 513 CURVE SMOOTH",
"399 553 OFFCURVE",
"486 576 OFFCURVE",
"561 576 CURVE SMOOTH",
"616 576 OFFCURVE",
"636 552 OFFCURVE",
"659 533 CURVE SMOOTH",
"684 513 OFFCURVE",
"718 586 OFFCURVE",
"718 664 CURVE SMOOTH",
"718 766 OFFCURVE",
"621 839 OFFCURVE",
"487 839 CURVE SMOOTH"
);
},
{
closed = 1;
nodes = (
"267 387 LINE SMOOTH",
"255 381 OFFCURVE",
"251 365 OFFCURVE",
"258 354 CURVE SMOOTH",
"271 332 LINE SMOOTH",
"279 318 OFFCURVE",
"295 314 OFFCURVE",
"307 321 CURVE SMOOTH",
"587 470 LINE SMOOTH",
"598 477 OFFCURVE",
"603 491 OFFCURVE",
"595 504 CURVE SMOOTH",
"583 526 LINE SMOOTH",
"574 538 OFFCURVE",
"560 543 OFFCURVE",
"546 535 CURVE SMOOTH"
);
}
);
width = 748;
},
{
background = {
paths = (
{
closed = 1;
nodes = (
"409 462 LINE",
"394 473 OFFCURVE",
"377 492 OFFCURVE",
"377 517 CURVE SMOOTH",
"377 567 OFFCURVE",
"415 598 OFFCURVE",
"482 598 CURVE SMOOTH",
"598 598 OFFCURVE",
"622 550 OFFCURVE",
"661 550 CURVE SMOOTH",
"676 550 OFFCURVE",
"696 578 OFFCURVE",
"696 626 CURVE SMOOTH",
"696 738 OFFCURVE",
"595 839 OFFCURVE",
"428 839 CURVE SMOOTH",
"264 839 OFFCURVE",
"156 732 OFFCURVE",
"156 612 CURVE SMOOTH",
"156 533 OFFCURVE",
"215 477 OFFCURVE",
"303 437 CURVE"
);
},
{
closed = 1;
nodes = (
"317 409 LINE",
"363 383 OFFCURVE",
"388 359 OFFCURVE",
"388 321 CURVE SMOOTH",
"388 281 OFFCURVE",
"357 250 OFFCURVE",
"287 250 CURVE SMOOTH",
"123 250 OFFCURVE",
"90 338 OFFCURVE",
"60 338 CURVE SMOOTH",
"31 338 OFFCURVE",
"-18 272 OFFCURVE",
"-18 195 CURVE SMOOTH",
"-18 70 OFFCURVE",
"125 -9 OFFCURVE",
"343 -9 CURVE SMOOTH",
"536 -9 OFFCURVE",
"670 86 OFFCURVE",
"670 217 CURVE SMOOTH",
"670 317 OFFCURVE",
"557 391 OFFCURVE",
"426 434 CURVE"
);
},
{
closed = 1;
nodes = (
"510 543 OFFCURVE",
"489 539 OFFCURVE",
"451 520 CURVE SMOOTH",
"351 469 LINE",
"146 469 LINE SMOOTH",
"98 469 OFFCURVE",
"87 445 OFFCURVE",
"87 426 CURVE SMOOTH",
"87 383 OFFCURVE",
"175 333 OFFCURVE",
"235 333 CURVE SMOOTH",
"262 333 OFFCURVE",
"297 348 OFFCURVE",
"417 411 CURVE",
"568 411 LINE SMOOTH",
"625 411 OFFCURVE",
"634 433 OFFCURVE",
"634 452 CURVE SMOOTH",
"634 488 OFFCURVE",
"570 543 OFFCURVE",
"528 543 CURVE SMOOTH"
);
}
);
};
layerId = "FF8CB9F1-2B98-444C-A502-96421F2531A8";
name = "Bold Italic";
paths = (
{
closed = 1;
nodes = (
"297 409 LINE",
"341 383 OFFCURVE",
"365 359 OFFCURVE",
"363 321 CURVE SMOOTH",
"361 281 OFFCURVE",
"328 250 OFFCURVE",
"258 250 CURVE SMOOTH",
"94 250 OFFCURVE",
"66 338 OFFCURVE",
"36 338 CURVE SMOOTH",
"11 338 OFFCURVE",
"-45 285 OFFCURVE",
"-50 208 CURVE SMOOTH",
"-56 83 OFFCURVE",
"84 -9 OFFCURVE",
"282 -9 CURVE SMOOTH",
"494 -9 OFFCURVE",
"633 86 OFFCURVE",
"640 217 CURVE SMOOTH",
"645 317 OFFCURVE",
"535 391 OFFCURVE",
"407 434 CURVE"
);
},
{
closed = 1;
nodes = (
"497 543 OFFCURVE",
"475 539 OFFCURVE",
"436 520 CURVE SMOOTH",
"334 469 LINE",
"129 469 LINE SMOOTH",
"81 469 OFFCURVE",
"69 445 OFFCURVE",
"68 426 CURVE SMOOTH",
"65 383 OFFCURVE",
"151 333 OFFCURVE",
"211 333 CURVE SMOOTH",
"238 333 OFFCURVE",
"273 348 OFFCURVE",
"396 411 CURVE",
"548 411 LINE SMOOTH",
"605 411 OFFCURVE",
"615 433 OFFCURVE",
"616 452 CURVE SMOOTH",
"618 488 OFFCURVE",
"557 543 OFFCURVE",
"515 543 CURVE SMOOTH"
);
},
{
closed = 1;
nodes = (
"218 839 OFFCURVE",
"147 720 OFFCURVE",
"147 618 CURVE SMOOTH",
"147 546 OFFCURVE",
"208 474 OFFCURVE",
"284 437 CURVE",
"391 462 LINE",
"378 473 OFFCURVE",
"361 492 OFFCURVE",
"362 517 CURVE SMOOTH",
"365 567 OFFCURVE",
"405 598 OFFCURVE",
"472 598 CURVE SMOOTH",
"566 598 OFFCURVE",
"609 550 OFFCURVE",
"648 550 CURVE SMOOTH",
"663 550 OFFCURVE",
"684 568 OFFCURVE",
"684 610 CURVE SMOOTH",
"684 718 OFFCURVE",
"586 839 OFFCURVE",
"410 839 CURVE SMOOTH"
);
}
);
width = 688;
},
{
associatedMasterId = "FF8CB9F1-2B98-444C-A502-96421F2531A8";
background = {
paths = (
{
closed = 1;
nodes = (
"336 839 OFFCURVE",
"204 746 OFFCURVE",
"204 612 CURVE SMOOTH",
"204 533 OFFCURVE",
"247 494 OFFCURVE",
"368 413 CURVE SMOOTH",
"431 371 OFFCURVE",
"447 334 OFFCURVE",
"448 312 CURVE SMOOTH",
"449 280 OFFCURVE",
"412 250 OFFCURVE",
"332 250 CURVE SMOOTH",
"134 250 OFFCURVE",
"144 338 OFFCURVE",
"110 338 CURVE SMOOTH",
"84 338 OFFCURVE",
"30 274 OFFCURVE",
"30 208 CURVE SMOOTH",
"30 77 OFFCURVE",
"162 -9 OFFCURVE",
"374 -9 CURVE SMOOTH",
"575 -9 OFFCURVE",
"718 90 OFFCURVE",
"718 227 CURVE SMOOTH",
"718 320 OFFCURVE",
"635 362 OFFCURVE",
"515 428 CURVE SMOOTH",
"442 468 OFFCURVE",
"425 495 OFFCURVE",
"425 515 CURVE SMOOTH",
"425 555 OFFCURVE",
"461 598 OFFCURVE",
"564 598 CURVE SMOOTH",
"618 598 OFFCURVE",
"668 575 OFFCURVE",
"691 556 CURVE SMOOTH",
"716 536 OFFCURVE",
"750 586 OFFCURVE",
"750 664 CURVE SMOOTH",
"750 766 OFFCURVE",
"653 839 OFFCURVE",
"519 839 CURVE SMOOTH"
);
},
{
closed = 1;
nodes = (
"390 445 LINE",
"222 445 LINE SMOOTH",
"181 445 OFFCURVE",
"149 413 OFFCURVE",
"172 388 CURVE SMOOTH",
"229 325 LINE SMOOTH",
"248 304 OFFCURVE",
"274 286 OFFCURVE",
"316 314 CURVE SMOOTH",
"456 406 LINE",
"638 433 LINE SMOOTH",
"660 436 OFFCURVE",
"677 467 OFFCURVE",
"659 484 CURVE SMOOTH",
"599 543 LINE SMOOTH",
"583 559 OFFCURVE",
"547 564 OFFCURVE",
"526 548 CURVE SMOOTH"
);
}
);
};
guideLines = (
{
angle = 90;
position = "{374, 215}";
}
);
layerId = "7DC2417D-22EE-4D05-9A29-EFD596D2B54C";
name = "Bold Italic Jul 9 15, 15:59";
paths = (
{
closed = 1;
nodes = (
"481 415 LINE",
"429 453 OFFCURVE",
"397 487 OFFCURVE",
"397 527 CURVE SMOOTH",
"397 567 OFFCURVE",
"435 598 OFFCURVE",
"513 598 CURVE SMOOTH",
"573 598 OFFCURVE",
"623 581 OFFCURVE",
"663 556 CURVE SMOOTH",
"689 540 OFFCURVE",
"722 586 OFFCURVE",
"722 664 CURVE SMOOTH",
"722 766 OFFCURVE",
"625 839 OFFCURVE",
"491 839 CURVE SMOOTH",
"308 839 OFFCURVE",
"176 746 OFFCURVE",
"176 612 CURVE SMOOTH",
"176 528 OFFCURVE",
"224 490 OFFCURVE",
"362 398 CURVE"
);
},
{
closed = 1;
nodes = (
"362 469 LINE",
"166 469 LINE SMOOTH",
"118 469 OFFCURVE",
"107 445 OFFCURVE",
"107 426 CURVE SMOOTH",
"107 383 OFFCURVE",
"195 333 OFFCURVE",
"255 333 CURVE SMOOTH",
"283 333 OFFCURVE",
"319 349 OFFCURVE",
"450 418 CURVE"
);
},
{
closed = 1;
nodes = (
"432 411 LINE",
"588 411 LINE SMOOTH",
"645 411 OFFCURVE",
"654 433 OFFCURVE",
"654 452 CURVE SMOOTH",
"654 488 OFFCURVE",
"590 543 OFFCURVE",
"548 543 CURVE SMOOTH",
"530 543 OFFCURVE",
"509 539 OFFCURVE",
"471 520 CURVE SMOOTH",
"389 478 LINE"
);
},
{
closed = 1;
nodes = (
"319 426 LINE",
"377 392 OFFCURVE",
"407 359 OFFCURVE",
"408 334 CURVE SMOOTH",
"409 302 OFFCURVE",
"384 250 OFFCURVE",
"279 250 CURVE SMOOTH",
"143 250 OFFCURVE",
"110 338 OFFCURVE",
"70 338 CURVE SMOOTH",
"44 338 OFFCURVE",
"2 268 OFFCURVE",
"2 208 CURVE SMOOTH",
"2 77 OFFCURVE",
"124 -9 OFFCURVE",
"346 -9 CURVE SMOOTH",
"556 -9 OFFCURVE",
"690 86 OFFCURVE",
"690 217 CURVE SMOOTH",
"690 317 OFFCURVE",
"577 391 OFFCURVE",
"446 434 CURVE"
);
}
);
width = 748;
}
);
unicode = 0A95;
},
{
glyphname = gjKHA;
lastChange = "2015-07-13 12:48:04 +0000";
layers = (
{
background = {
paths = (
{
closed = 1;
nodes = (
"577 379 LINE",
"650 320 OFFCURVE",
"734 287 OFFCURVE",
"825 287 CURVE",
"825 517 LINE",
"807 459 OFFCURVE",
"775 439 OFFCURVE",
"731 439 CURVE"
);
},
{
closed = 1;
nodes = (
"1065 844 OFFCURVE",
"917 809 OFFCURVE",
"893 733 CURVE SMOOTH",
"781 379 LINE SMOOTH",
"752 287 OFFCURVE",
"739 234 OFFCURVE",
"739 186 CURVE SMOOTH",
"739 85 OFFCURVE",
"798 -4 OFFCURVE",
"958 -4 CURVE SMOOTH",
"1098 -4 OFFCURVE",
"1191 98 OFFCURVE",
"1191 184 CURVE SMOOTH",
"1191 202 OFFCURVE",
"1185 220 OFFCURVE",
"1174 220 CURVE SMOOTH",
"1161 220 OFFCURVE",
"1153 187 OFFCURVE",
"1123 187 CURVE SMOOTH",
"1105 187 OFFCURVE",
"1097 203 OFFCURVE",
"1105 229 CURVE SMOOTH",
"1259 733 LINE SMOOTH",
"1264 750 OFFCURVE",
"1267 766 OFFCURVE",
"1267 779 CURVE SMOOTH",
"1267 809 OFFCURVE",
"1254 844 OFFCURVE",
"1166 844 CURVE SMOOTH"
);
},
{
closed = 1;
nodes = (
"496 759 OFFCURVE",
"425 839 OFFCURVE",
"273 839 CURVE SMOOTH",
"132 839 OFFCURVE",
"40 737 OFFCURVE",
"40 652 CURVE SMOOTH",
"40 634 OFFCURVE",
"46 616 OFFCURVE",
"57 616 CURVE SMOOTH",
"70 616 OFFCURVE",
"77 648 OFFCURVE",
"107 648 CURVE SMOOTH",
"120 648 OFFCURVE",
"129 640 OFFCURVE",
"129 624 CURVE SMOOTH",
"129 619 OFFCURVE",
"127 613 OFFCURVE",
"125 606 CURVE SMOOTH",
"80 475 LINE SMOOTH",
"63 426 OFFCURVE",
"54 382 OFFCURVE",
"54 341 CURVE SMOOTH",
"54 221 OFFCURVE",
"126 139 OFFCURVE",
"306 139 CURVE SMOOTH",
"515 139 OFFCURVE",
"750 330 OFFCURVE",
"750 535 CURVE SMOOTH",
"750 605 OFFCURVE",
"712 645 OFFCURVE",
"650 645 CURVE SMOOTH",
"590 645 OFFCURVE",
"527 601 OFFCURVE",
"527 504 CURVE SMOOTH",
"527 457 OFFCURVE",
"546 429 OFFCURVE",
"562 405 CURVE",
"536 370 OFFCURVE",
"508 351 OFFCURVE",
"469 351 CURVE SMOOTH",
"430 351 OFFCURVE",
"408 381 OFFCURVE",
"426 423 CURVE SMOOTH",
"470 525 LINE SMOOTH",
"488 567 OFFCURVE",
"496 610 OFFCURVE",
"496 654 CURVE SMOOTH"
);
}
);
};
components = (
{
name = gjmAA;
transform = "{1, 0, 0, 1, 719, 0}";
}
);
layerId = "FF8CB9F1-2B98-444C-A502-96421F2531A8";
leftMetricsKey = "=gjPA";
rightMetricsKey = gjPA;
name = "Bold Italic";
paths = (
{
closed = 1;
nodes = (
"132 839 OFFCURVE",
"40 737 OFFCURVE",
"40 652 CURVE SMOOTH",
"40 634 OFFCURVE",
"46 616 OFFCURVE",
"57 616 CURVE SMOOTH",
"70 616 OFFCURVE",
"77 648 OFFCURVE",
"107 648 CURVE SMOOTH",
"120 648 OFFCURVE",
"129 640 OFFCURVE",
"129 624 CURVE SMOOTH",
"129 619 OFFCURVE",
"127 613 OFFCURVE",
"125 606 CURVE SMOOTH",
"91 506 LINE SMOOTH",
"74 457 OFFCURVE",
"65 413 OFFCURVE",
"65 372 CURVE SMOOTH",
"65 252 OFFCURVE",
"137 170 OFFCURVE",
"317 170 CURVE SMOOTH",
"526 170 OFFCURVE",
"761 361 OFFCURVE",
"761 566 CURVE SMOOTH",
"761 636 OFFCURVE",
"723 676 OFFCURVE",
"661 676 CURVE SMOOTH",
"601 676 OFFCURVE",
"538 632 OFFCURVE",
"538 535 CURVE SMOOTH",
"538 488 OFFCURVE",
"557 460 OFFCURVE",
"573 436 CURVE",
"547 401 OFFCURVE",
"516 382 OFFCURVE",
"477 382 CURVE SMOOTH",
"438 382 OFFCURVE",
"421 413 OFFCURVE",
"439 454 CURVE SMOOTH",
"470 525 LINE SMOOTH",
"488 566 OFFCURVE",
"496 610 OFFCURVE",
"496 654 CURVE SMOOTH",
"496 759 OFFCURVE",
"425 839 OFFCURVE",
"273 839 CURVE SMOOTH"
);
},
{
closed = 1;
nodes = (
"818 490 OFFCURVE",
"786 470 OFFCURVE",
"742 470 CURVE",
"588 410 LINE",
"661 351 OFFCURVE",
"745 318 OFFCURVE",
"836 318 CURVE",
"836 548 LINE"
);
}
);
width = 1287;
}
);
leftMetricsKey = gjPA;
rightMetricsKey = "pa-gujarati";
unicode = 0A96;
},
{
glyphname = gjGA;
lastChange = "2015-07-13 12:48:04 +0000";
layers = (
{
background = {
paths = (
{
closed = 1;
nodes = (
"211 844 OFFCURVE",
"140 778 OFFCURVE",
"140 749 CURVE SMOOTH",
"140 724 OFFCURVE",
"177 698 OFFCURVE",
"177 634 CURVE SMOOTH",
"177 551 OFFCURVE",
"131 514 OFFCURVE",
"89 514 CURVE SMOOTH",
"59 514 OFFCURVE",
"53 547 OFFCURVE",
"37 547 CURVE SMOOTH",
"29 547 OFFCURVE",
"20 537 OFFCURVE",
"20 511 CURVE SMOOTH",
"20 395 OFFCURVE",
"115 323 OFFCURVE",
"238 323 CURVE SMOOTH",
"397 323 OFFCURVE",
"532 432 OFFCURVE",
"532 626 CURVE SMOOTH",
"532 758 OFFCURVE",
"452 844 OFFCURVE",
"326 844 CURVE SMOOTH"
);
}
);
};
layerId = "FF8CB9F1-2B98-444C-A502-96421F2531A8";
rightMetricsKey = gjPA;
name = "Bold Italic";
paths = (
{
closed = 1;
nodes = (
"829 844 OFFCURVE",
"681 809 OFFCURVE",
"657 733 CURVE SMOOTH",
"545 379 LINE SMOOTH",
"516 287 OFFCURVE",
"503 234 OFFCURVE",
"503 186 CURVE SMOOTH",
"503 85 OFFCURVE",
"562 -4 OFFCURVE",
"722 -4 CURVE SMOOTH",
"862 -4 OFFCURVE",
"955 98 OFFCURVE",
"955 184 CURVE SMOOTH",
"955 202 OFFCURVE",
"949 220 OFFCURVE",
"938 220 CURVE SMOOTH",
"925 220 OFFCURVE",
"917 187 OFFCURVE",
"887 187 CURVE SMOOTH",
"869 187 OFFCURVE",
"861 203 OFFCURVE",
"869 229 CURVE SMOOTH",
"1023 733 LINE SMOOTH",
"1028 750 OFFCURVE",
"1031 766 OFFCURVE",
"1031 779 CURVE SMOOTH",
"1031 809 OFFCURVE",
"1018 844 OFFCURVE",
"930 844 CURVE SMOOTH"
);
},
{
closed = 1;
nodes = (
"152 853 OFFCURVE",
"85 780 OFFCURVE",
"85 687 CURVE SMOOTH",
"85 670 OFFCURVE",
"91 652 OFFCURVE",
"102 652 CURVE SMOOTH",
"115 652 OFFCURVE",
"127 684 OFFCURVE",
"152 684 CURVE SMOOTH",
"168 684 OFFCURVE",
"177 668 OFFCURVE",
"177 634 CURVE SMOOTH",
"177 551 OFFCURVE",
"131 514 OFFCURVE",
"89 514 CURVE SMOOTH",
"59 514 OFFCURVE",
"53 547 OFFCURVE",
"37 547 CURVE SMOOTH",
"29 547 OFFCURVE",
"20 537 OFFCURVE",
"20 511 CURVE SMOOTH",
"20 395 OFFCURVE",
"115 323 OFFCURVE",
"238 323 CURVE SMOOTH",
"397 323 OFFCURVE",
"532 432 OFFCURVE",
"532 626 CURVE SMOOTH",
"532 758 OFFCURVE",
"448 853 OFFCURVE",
"285 853 CURVE SMOOTH"
);
}
);
width = 1051;
}
);
rightMetricsKey = "pa-gujarati";
unicode = 0A97;
},
{
glyphname = gjGHA;
lastChange = "2015-07-13 13:21:13 +0000";
layers = (
{
background = {
paths = (
{
closed = 1;
nodes = (
"183 876 OFFCURVE",
"76 784 OFFCURVE",
"76 653 CURVE SMOOTH",
"76 557 OFFCURVE",
"141 492 OFFCURVE",
"234 458 CURVE",
"225 554 LINE",
"84 527 OFFCURVE",
"-9 462 OFFCURVE",
"-9 339 CURVE SMOOTH",
"-9 224 OFFCURVE",
"87 138 OFFCURVE",
"245 138 CURVE SMOOTH",
"438 138 OFFCURVE",
"586 271 OFFCURVE",
"658 453 CURVE",
"611 530 LINE",
"577 421 OFFCURVE",
"518 336 OFFCURVE",
"418 336 CURVE SMOOTH",
"356 336 OFFCURVE",
"331 348 OFFCURVE",
"331 382 CURVE SMOOTH",
"331 494 OFFCURVE",
"528 470 OFFCURVE",
"528 525 CURVE SMOOTH",
"528 558 OFFCURVE",
"402 565 OFFCURVE",
"402 661 CURVE SMOOTH",
"402 696 OFFCURVE",
"423 716 OFFCURVE",
"444 716 CURVE SMOOTH",
"482 716 OFFCURVE",
"500 662 OFFCURVE",
"532 662 CURVE SMOOTH",
"544 662 OFFCURVE",
"551 673 OFFCURVE",
"551 693 CURVE SMOOTH",
"551 801 OFFCURVE",
"462 876 OFFCURVE",
"335 876 CURVE SMOOTH"
);
},
{
closed = 1;
nodes = (
"879 844 OFFCURVE",
"798 821 OFFCURVE",
"687 774 CURVE",
"562 379 LINE",
"532 287 OFFCURVE",
"520 234 OFFCURVE",
"520 186 CURVE SMOOTH",
"520 85 OFFCURVE",
"579 -4 OFFCURVE",
"739 -4 CURVE SMOOTH",
"879 -4 OFFCURVE",
"972 98 OFFCURVE",
"972 184 CURVE SMOOTH",
"972 202 OFFCURVE",
"966 220 OFFCURVE",
"955 220 CURVE SMOOTH",
"942 220 OFFCURVE",
"934 187 OFFCURVE",
"904 187 CURVE SMOOTH",
"886 187 OFFCURVE",
"878 203 OFFCURVE",
"886 229 CURVE SMOOTH",
"1040 733 LINE SMOOTH",
"1045 750 OFFCURVE",
"1048 766 OFFCURVE",
"1048 779 CURVE SMOOTH",
"1048 809 OFFCURVE",
"1035 844 OFFCURVE",
"952 844 CURVE SMOOTH"
);
}
);
};
components = (
{
name = gjmAA;
transform = "{1, 0, 0, 1, 500, 0}";
}
);
layerId = "FF8CB9F1-2B98-444C-A502-96421F2531A8";
rightMetricsKey = gjPA;
name = "Bold Italic";
paths = (
{
closed = 1;
nodes = (
"181 857 OFFCURVE",
"74 772 OFFCURVE",
"74 649 CURVE SMOOTH",
"74 560 OFFCURVE",
"139 500 OFFCURVE",
"232 468 CURVE",
"223 557 LINE",
"82 533 OFFCURVE",
"-11 472 OFFCURVE",
"-11 357 CURVE SMOOTH",
"-11 250 OFFCURVE",
"85 170 OFFCURVE",
"243 170 CURVE SMOOTH",
"436 170 OFFCURVE",
"584 294 OFFCURVE",
"656 464 CURVE",
"609 535 LINE",
"575 434 OFFCURVE",
"516 354 OFFCURVE",
"416 354 CURVE SMOOTH",
"354 354 OFFCURVE",
"329 366 OFFCURVE",
"329 398 CURVE SMOOTH",
"329 502 OFFCURVE",
"526 479 OFFCURVE",
"526 530 CURVE SMOOTH",
"526 561 OFFCURVE",
"400 568 OFFCURVE",
"400 657 CURVE SMOOTH",
"400 689 OFFCURVE",
"421 708 OFFCURVE",
"442 708 CURVE SMOOTH",
"480 708 OFFCURVE",
"498 658 OFFCURVE",
"530 658 CURVE SMOOTH",
"542 658 OFFCURVE",
"549 669 OFFCURVE",
"549 687 CURVE SMOOTH",
"549 787 OFFCURVE",
"460 857 OFFCURVE",
"333 857 CURVE SMOOTH"
);
}
);
width = 1068;
}
);
rightMetricsKey = gjmAA;
unicode = 0A98;
},
{
glyphname = gjNGA;
lastChange = "2015-07-10 08:27:44 +0000";
layers = (
{
background = {
paths = (
{
closed = 1;
nodes = (
"432 661 OFFCURVE",
"517 646 OFFCURVE",
"517 721 CURVE SMOOTH",
"517 795 OFFCURVE",
"445 869 OFFCURVE",
"351 869 CURVE SMOOTH",
"276 869 OFFCURVE",
"241 815 OFFCURVE",
"241 749 CURVE SMOOTH",
"241 610 OFFCURVE",
"454 433 OFFCURVE",
"454 346 CURVE SMOOTH",
"454 308 OFFCURVE",
"422 279 OFFCURVE",
"337 279 CURVE SMOOTH",
"191 279 OFFCURVE",
"169 330 OFFCURVE",
"169 372 CURVE SMOOTH",
"169 390 OFFCURVE",
"173 409 OFFCURVE",
"173 422 CURVE SMOOTH",
"173 435 OFFCURVE",
"168 442 OFFCURVE",
"159 442 CURVE SMOOTH",
"123 442 OFFCURVE",
"30 352 OFFCURVE",
"30 220 CURVE SMOOTH",
"30 78 OFFCURVE",
"133 -9 OFFCURVE",
"343 -9 CURVE SMOOTH",
"553 -9 OFFCURVE",
"676 82 OFFCURVE",
"676 223 CURVE SMOOTH",
"676 364 OFFCURVE",
"432 519 OFFCURVE",
"432 603 CURVE SMOOTH"
);
},
{
closed = 1;
nodes = (
"724 500 OFFCURVE",
"775 563 OFFCURVE",
"775 651 CURVE SMOOTH",
"775 718 OFFCURVE",
"727 766 OFFCURVE",
"660 766 CURVE SMOOTH",
"587 766 OFFCURVE",
"536 703 OFFCURVE",
"536 615 CURVE SMOOTH",
"536 548 OFFCURVE",
"584 500 OFFCURVE",
"651 500 CURVE SMOOTH"
);
}
);
};
layerId = "FF8CB9F1-2B98-444C-A502-96421F2531A8";
name = "Bold Italic";
paths = (
{
closed = 1;
nodes = (
"244 839 OFFCURVE",
"168 739 OFFCURVE",
"168 615 CURVE SMOOTH",
"168 532 OFFCURVE",
"218 480 OFFCURVE",
"347 413 CURVE SMOOTH",
"429 371 OFFCURVE",
"437 355 OFFCURVE",
"438 333 CURVE SMOOTH",
"439 301 OFFCURVE",
"395 279 OFFCURVE",
"315 279 CURVE SMOOTH",
"236 279 OFFCURVE",
"178 307 OFFCURVE",
"178 356 CURVE SMOOTH",
"178 376 OFFCURVE",
"177 388 OFFCURVE",
"149 388 CURVE SMOOTH",
"102 388 OFFCURVE",
"20 321 OFFCURVE",
"20 219 CURVE SMOOTH",
"20 84 OFFCURVE",
"163 -9 OFFCURVE",
"364 -9 CURVE SMOOTH",
"565 -9 OFFCURVE",
"708 84 OFFCURVE",
"708 219 CURVE SMOOTH",
"708 326 OFFCURVE",
"645 375 OFFCURVE",
"500 449 CURVE SMOOTH",
"412 494 OFFCURVE",
"389 519 OFFCURVE",
"389 539 CURVE SMOOTH",
"389 557 OFFCURVE",
"400 576 OFFCURVE",
"425 576 CURVE SMOOTH",
"444 576 OFFCURVE",
"466 575 OFFCURVE",
"489 556 CURVE SMOOTH",
"514 536 OFFCURVE",
"548 609 OFFCURVE",
"548 687 CURVE SMOOTH",
"548 789 OFFCURVE",
"479 839 OFFCURVE",
"371 839 CURVE SMOOTH"
);
},
{
closed = 1;
nodes = (
"641 766 OFFCURVE",
"590 703 OFFCURVE",
"590 615 CURVE SMOOTH",
"590 548 OFFCURVE",
"638 500 OFFCURVE",
"705 500 CURVE SMOOTH",
"778 500 OFFCURVE",
"829 563 OFFCURVE",
"829 651 CURVE SMOOTH",
"829 718 OFFCURVE",
"781 766 OFFCURVE",
"714 766 CURVE SMOOTH"
);
}
);
width = 740;
}
);
unicode = 0A99;
},
{
glyphname = gjCA;
lastChange = "2015-07-13 12:48:04 +0000";
layers = (
{
background = {
paths = (
{
closed = 1;
nodes = (
"181 851 OFFCURVE",
"91 755 OFFCURVE",
"91 617 CURVE SMOOTH",
"91 597 OFFCURVE",
"99 584 OFFCURVE",
"110 584 CURVE SMOOTH",
"123 585 OFFCURVE",
"135 607 OFFCURVE",
"159 609 CURVE SMOOTH",
"180 610 OFFCURVE",
"193 596 OFFCURVE",
"193 573 CURVE SMOOTH",
"193 540 OFFCURVE",
"179 500 OFFCURVE",
"141 455 CURVE",
"114 469 OFFCURVE",
"94 475 OFFCURVE",
"71 475 CURVE SMOOTH",
"26 475 OFFCURVE",
"-12 446 OFFCURVE",
"-12 392 CURVE SMOOTH",
"-12 319 OFFCURVE",
"78 227 OFFCURVE",
"223 227 CURVE SMOOTH",
"375 227 OFFCURVE",
"560 414 OFFCURVE",
"560 638 CURVE SMOOTH",
"560 773 OFFCURVE",
"456 851 OFFCURVE",
"332 851 CURVE SMOOTH"
);
},
{
closed = 1;
nodes = (
"595 356 OFFCURVE",
"557 315 OFFCURVE",
"490 315 CURVE SMOOTH",
"436 315 OFFCURVE",
"363 341 OFFCURVE",
"266 400 CURVE",
"224 364 LINE",
"345 186 OFFCURVE",
"479 156 OFFCURVE",
"602 156 CURVE",
"617 424 LINE"
);
},
{
closed = 1;
nodes = (
"957 546 OFFCURVE",
"862 636 OFFCURVE",
"744 636 CURVE SMOOTH",
"664 636 OFFCURVE",
"627 585 OFFCURVE",
"627 527 CURVE SMOOTH",
"627 486 OFFCURVE",
"644 454 OFFCURVE",
"673 427 CURVE",
"650 326 OFFCURVE",
"581 278 OFFCURVE",
"487 278 CURVE SMOOTH",
"431 278 OFFCURVE",
"376 292 OFFCURVE",
"332 323 CURVE",
"245 297 LINE",
"336 142 OFFCURVE",
"462 88 OFFCURVE",
"611 88 CURVE SMOOTH",
"801 88 OFFCURVE",
"957 218 OFFCURVE",
"957 408 CURVE SMOOTH"
);
}
);
};
components = (
{
name = gjmAA;
transform = "{1, 0, 0, 1, 540, 0}";
}
);
layerId = "FF8CB9F1-2B98-444C-A502-96421F2531A8";
leftMetricsKey = "=gjA";
rightMetricsKey = gjPA;
name = "Bold Italic";
paths = (
{
closed = 1;
nodes = (
"595 356 OFFCURVE",
"557 315 OFFCURVE",
"490 315 CURVE SMOOTH",
"436 315 OFFCURVE",
"363 341 OFFCURVE",
"266 400 CURVE",
"224 364 LINE",
"325 186 OFFCURVE",
"479 156 OFFCURVE",
"602 156 CURVE",
"617 424 LINE"
);
},
{
closed = 1;
nodes = (
"220 851 OFFCURVE",
"110 755 OFFCURVE",
"88 617 CURVE SMOOTH",
"85 597 OFFCURVE",
"97 584 OFFCURVE",
"108 584 CURVE SMOOTH",
"121 585 OFFCURVE",
"135 608 OFFCURVE",
"159 609 CURVE SMOOTH",
"176 610 OFFCURVE",
"187 596 OFFCURVE",
"183 573 CURVE SMOOTH",
"178 540 OFFCURVE",
"158 500 OFFCURVE",
"113 455 CURVE",
"88 469 OFFCURVE",
"69 475 OFFCURVE",
"46 475 CURVE SMOOTH",
"1 475 OFFCURVE",
"-42 446 OFFCURVE",
"-50 392 CURVE SMOOTH",
"-62 319 OFFCURVE",
"14 227 OFFCURVE",
"159 227 CURVE SMOOTH",
"378 227 OFFCURVE",
"560 427 OFFCURVE",
"560 637 CURVE SMOOTH",
"560 777 OFFCURVE",
"472 851 OFFCURVE",
"361 851 CURVE SMOOTH"
);
}
);
width = 1108;
}
);
leftMetricsKey = gjmAA;
rightMetricsKey = gjmAA;
unicode = 0A9A;
},
{
glyphname = gjCHA;
lastChange = "2015-07-13 10:09:25 +0000";
layers = (
{
background = {
paths = (
{
closed = 1;
nodes = (
"223 846 OFFCURVE",
"116 754 OFFCURVE",
"116 623 CURVE SMOOTH",
"116 527 OFFCURVE",
"181 462 OFFCURVE",
"274 428 CURVE",
"265 524 LINE",
"124 497 OFFCURVE",
"31 404 OFFCURVE",
"31 281 CURVE SMOOTH",
"31 126 OFFCURVE",
"175 0 OFFCURVE",
"424 0 CURVE SMOOTH",
"724 0 OFFCURVE",
"962 255 OFFCURVE",
"962 523 CURVE SMOOTH",
"962 707 OFFCURVE",
"869 777 OFFCURVE",
"789 777 CURVE SMOOTH",
"709 777 OFFCURVE",
"632 705 OFFCURVE",
"632 572 CURVE SMOOTH",
"632 479 OFFCURVE",
"672 413 OFFCURVE",
"723 367 CURVE",
"767 407 LINE",
"743 454 OFFCURVE",
"733 490 OFFCURVE",
"733 522 CURVE SMOOTH",
"733 554 OFFCURVE",
"747 570 OFFCURVE",
"762 570 CURVE SMOOTH",
"777 570 OFFCURVE",
"791 554 OFFCURVE",
"791 522 CURVE SMOOTH",
"791 386 OFFCURVE",
"618 270 OFFCURVE",
"479 270 CURVE SMOOTH",
"417 270 OFFCURVE",
"371 297 OFFCURVE",
"371 352 CURVE SMOOTH",
"371 464 OFFCURVE",
"568 440 OFFCURVE",
"568 495 CURVE SMOOTH",
"568 528 OFFCURVE",
"442 535 OFFCURVE",
"442 631 CURVE SMOOTH",
"442 666 OFFCURVE",
"463 686 OFFCURVE",
"484 686 CURVE SMOOTH",
"522 686 OFFCURVE",
"540 632 OFFCURVE",
"572 632 CURVE SMOOTH",
"584 632 OFFCURVE",
"591 643 OFFCURVE",
"591 663 CURVE SMOOTH",
"591 771 OFFCURVE",
"502 846 OFFCURVE",
"375 846 CURVE SMOOTH"
);
}
);
};
layerId = "FF8CB9F1-2B98-444C-A502-96421F2531A8";
name = "Bold Italic";
paths = (
{
closed = 1;
nodes = (
"523 464 OFFCURVE",
"570 475 OFFCURVE",
"570 495 CURVE SMOOTH",
"570 528 OFFCURVE",
"444 530 OFFCURVE",
"444 620 CURVE SMOOTH",
"444 661 OFFCURVE",
"460 686 OFFCURVE",
"490 686 CURVE SMOOTH",
"509 686 OFFCURVE",
"521 673 OFFCURVE",
"523 648 CURVE SMOOTH",
"525 628 OFFCURVE",
"527 624 OFFCURVE",
"537 624 CURVE SMOOTH",
"579 624 OFFCURVE",
"608 656 OFFCURVE",
"603 710 CURVE SMOOTH",
"597 782 OFFCURVE",
"532 846 OFFCURVE",
"402 846 CURVE SMOOTH",
"238 846 OFFCURVE",
"118 749 OFFCURVE",
"118 604 CURVE SMOOTH",
"118 524 OFFCURVE",
"173 462 OFFCURVE",
"276 443 CURVE",
"242 516 LINE",
"99 490 OFFCURVE",
"4 395 OFFCURVE",
"4 265 CURVE SMOOTH",
"4 124 OFFCURVE",
"127 0 OFFCURVE",
"385 0 CURVE SMOOTH",
"691 0 OFFCURVE",
"953 226 OFFCURVE",
"953 550 CURVE SMOOTH",
"953 689 OFFCURVE",
"892 777 OFFCURVE",
"795 777 CURVE SMOOTH",
"698 777 OFFCURVE",
"637 695 OFFCURVE",
"637 565 CURVE SMOOTH",
"637 476 OFFCURVE",
"673 411 OFFCURVE",
"738 355 CURVE",
"782 407 LINE",
"759 443 OFFCURVE",
"748 473 OFFCURVE",
"748 512 CURVE SMOOTH",
"748 552 OFFCURVE",
"762 570 OFFCURVE",
"777 570 CURVE SMOOTH",
"792 570 OFFCURVE",
"806 552 OFFCURVE",
"806 516 CURVE SMOOTH",
"806 380 OFFCURVE",
"653 270 OFFCURVE",
"485 270 CURVE SMOOTH",
"398 270 OFFCURVE",
"350 300 OFFCURVE",
"350 353 CURVE SMOOTH",
"350 403 OFFCURVE",
"399 433 OFFCURVE",
"455 447 CURVE SMOOTH"
);
}
);
width = 962;
},
{
associatedMasterId = "FF8CB9F1-2B98-444C-A502-96421F2531A8";
layerId = "F216DA94-8BA4-4618-A66D-220C06E2654F";
name = "Regular Feb 23 14, 16:04";
paths = (
{
closed = 1;
nodes = (
"758 418 CURVE",
"741 462 OFFCURVE",
"748 530 OFFCURVE",
"783 530 CURVE SMOOTH",
"808 530 OFFCURVE",
"808 466 OFFCURVE"
);
},
{
closed = 1;
nodes = (
"643 508 CURVE SMOOTH",
"643 441 OFFCURVE",
"672 379 OFFCURVE",
"700 342 CURVE",
"707 376 LINE",
"625 300 OFFCURVE",
"552 270 OFFCURVE",
"468 270 CURVE SMOOTH",
"411 270 OFFCURVE",
"366 289 OFFCURVE",
"366 340 CURVE SMOOTH",
"366 402 OFFCURVE",
"415 433 OFFCURVE",
"487 450 CURVE SMOOTH",
"557 467 OFFCURVE",
"576 475 OFFCURVE",
"576 495 CURVE SMOOTH",
"576 528 OFFCURVE",
"461 530 OFFCURVE",
"461 620 CURVE SMOOTH",
"461 661 OFFCURVE",
"483 686 OFFCURVE",
"513 686 CURVE SMOOTH",
"532 686 OFFCURVE",
"543 673 OFFCURVE",
"543 648 CURVE SMOOTH",
"543 628 OFFCURVE",
"545 624 OFFCURVE",
"555 624 CURVE SMOOTH",
"597 624 OFFCURVE",
"628 656 OFFCURVE",
"628 710 CURVE SMOOTH",
"628 782 OFFCURVE",
"569 846 OFFCURVE",
"439 846 CURVE SMOOTH",
"275 846 OFFCURVE",
"134 764 OFFCURVE",
"134 604 CURVE SMOOTH",
"134 513 OFFCURVE",
"183 456 OFFCURVE",
"276 422 CURVE",
"258 516 LINE",
"107 490 OFFCURVE",
"20 402 OFFCURVE",
"20 273 CURVE SMOOTH",
"20 109 OFFCURVE",
"170 0 OFFCURVE",
"367 0 CURVE SMOOTH",
"739 0 OFFCURVE",
"972 289 OFFCURVE",
"972 518 CURVE SMOOTH",
"972 650 OFFCURVE",
"915 737 OFFCURVE",
"812 737 CURVE SMOOTH",
"719 737 OFFCURVE",
"643 652 OFFCURVE"
);
}
);
width = 982;
}
);
unicode = 0A9B;
},
{
glyphname = gjCHA.alt;
lastChange = "2015-07-13 10:08:50 +0000";
layers = (
{
background = {
paths = (
{
closed = 1;
nodes = (
"238 846 OFFCURVE",
"118 749 OFFCURVE",
"118 604 CURVE SMOOTH",
"118 524 OFFCURVE",
"173 462 OFFCURVE",
"276 443 CURVE",
"236 516 LINE",
"87 490 OFFCURVE",
"-7 402 OFFCURVE",
"-7 273 CURVE SMOOTH",
"-7 126 OFFCURVE",
"110 0 OFFCURVE",
"314 0 CURVE SMOOTH",
"479 0 OFFCURVE",
"620 128 OFFCURVE",
"620 251 CURVE SMOOTH",
"620 286 OFFCURVE",
"613 301 OFFCURVE",
"600 301 CURVE SMOOTH",
"578 301 OFFCURVE",
"542 270 OFFCURVE",
"441 270 CURVE SMOOTH",
"375 270 OFFCURVE",
"333 298 OFFCURVE",
"333 350 CURVE SMOOTH",
"333 403 OFFCURVE",
"384 430 OFFCURVE",
"455 447 CURVE SMOOTH",
"523 464 OFFCURVE",
"570 475 OFFCURVE",
"570 495 CURVE SMOOTH",
"570 528 OFFCURVE",
"444 530 OFFCURVE",
"444 620 CURVE SMOOTH",
"444 661 OFFCURVE",
"460 686 OFFCURVE",
"490 686 CURVE SMOOTH",
"509 686 OFFCURVE",
"521 673 OFFCURVE",
"523 648 CURVE SMOOTH",
"525 628 OFFCURVE",
"527 624 OFFCURVE",
"537 624 CURVE SMOOTH",
"579 624 OFFCURVE",
"608 656 OFFCURVE",
"603 710 CURVE SMOOTH",
"597 782 OFFCURVE",
"532 846 OFFCURVE",
"402 846 CURVE SMOOTH"
);
}
);
};
guideLines = (
{
angle = 90;
position = "{795, 608}";
}
);
layerId = "FF8CB9F1-2B98-444C-A502-96421F2531A8";
name = "Bold Italic";
paths = (
{
closed = 1;
nodes = (
"813 246 LINE",
"831 208 OFFCURVE",
"840 166 OFFCURVE",
"840 115 CURVE SMOOTH",
"840 0 OFFCURVE",
"781 -57 OFFCURVE",
"697 -57 CURVE SMOOTH",
"634 -57 OFFCURVE",
"593 -33 OFFCURVE",
"580 -33 CURVE SMOOTH",
"571 -33 OFFCURVE",
"566 -45 OFFCURVE",
"566 -65 CURVE SMOOTH",
"566 -157 OFFCURVE",
"666 -273 OFFCURVE",
"836 -273 CURVE SMOOTH",
"976 -273 OFFCURVE",
"1080 -172 OFFCURVE",
"1080 -40 CURVE SMOOTH",
"1080 54 OFFCURVE",
"1030 171 OFFCURVE",
"844 292 CURVE"
);
},
{
closed = 1;
nodes = (
"523 464 OFFCURVE",
"570 475 OFFCURVE",
"570 495 CURVE SMOOTH",
"570 528 OFFCURVE",
"444 530 OFFCURVE",
"444 620 CURVE SMOOTH",
"444 661 OFFCURVE",
"460 686 OFFCURVE",
"490 686 CURVE SMOOTH",
"509 686 OFFCURVE",
"521 673 OFFCURVE",
"523 648 CURVE SMOOTH",
"525 628 OFFCURVE",
"527 624 OFFCURVE",
"537 624 CURVE SMOOTH",
"579 624 OFFCURVE",
"608 656 OFFCURVE",
"603 710 CURVE SMOOTH",
"597 782 OFFCURVE",
"532 846 OFFCURVE",
"402 846 CURVE SMOOTH",
"238 846 OFFCURVE",
"118 749 OFFCURVE",
"118 604 CURVE SMOOTH",
"118 524 OFFCURVE",
"173 462 OFFCURVE",
"276 443 CURVE",
"242 516 LINE",
"99 490 OFFCURVE",
"4 395 OFFCURVE",
"4 265 CURVE SMOOTH",
"4 124 OFFCURVE",
"127 0 OFFCURVE",
"385 0 CURVE SMOOTH",
"691 0 OFFCURVE",
"953 226 OFFCURVE",
"953 550 CURVE SMOOTH",
"953 689 OFFCURVE",
"892 777 OFFCURVE",
"795 777 CURVE SMOOTH",
"698 777 OFFCURVE",
"637 695 OFFCURVE",
"637 565 CURVE SMOOTH",
"637 476 OFFCURVE",
"673 411 OFFCURVE",
"738 355 CURVE",
"782 407 LINE",
"759 443 OFFCURVE",
"748 473 OFFCURVE",
"748 512 CURVE SMOOTH",
"748 552 OFFCURVE",
"762 570 OFFCURVE",
"777 570 CURVE SMOOTH",
"792 570 OFFCURVE",
"806 552 OFFCURVE",
"806 516 CURVE SMOOTH",
"806 380 OFFCURVE",
"653 270 OFFCURVE",
"485 270 CURVE SMOOTH",
"398 270 OFFCURVE",
"350 300 OFFCURVE",
"350 353 CURVE SMOOTH",
"350 403 OFFCURVE",
"399 433 OFFCURVE",
"455 447 CURVE SMOOTH"
);
}
);
width = 1001;
},
{
associatedMasterId = "FF8CB9F1-2B98-444C-A502-96421F2531A8";
layerId = "434AD9A7-66A4-49C2-87F5-4D2F496E0667";
name = "Bold Italic Jul 13 15, 10:58";
paths = (
{
closed = 1;
nodes = (
"275 846 OFFCURVE",
"134 764 OFFCURVE",
"134 604 CURVE SMOOTH",
"134 513 OFFCURVE",
"183 456 OFFCURVE",
"276 422 CURVE",
"258 516 LINE",
"107 490 OFFCURVE",
"20 402 OFFCURVE",
"20 273 CURVE SMOOTH",
"20 109 OFFCURVE",
"170 0 OFFCURVE",
"367 0 CURVE SMOOTH",
"739 0 OFFCURVE",
"972 289 OFFCURVE",
"972 549 CURVE SMOOTH",
"972 664 OFFCURVE",
"918 748 OFFCURVE",
"823 748 CURVE SMOOTH",
"721 748 OFFCURVE",
"643 662 OFFCURVE",
"643 508 CURVE SMOOTH",
"643 441 OFFCURVE",
"672 379 OFFCURVE",
"700 342 CURVE",
"707 376 LINE",
"625 300 OFFCURVE",
"552 270 OFFCURVE",
"468 270 CURVE SMOOTH",
"411 270 OFFCURVE",
"366 289 OFFCURVE",
"366 340 CURVE SMOOTH",
"366 402 OFFCURVE",
"415 433 OFFCURVE",
"487 450 CURVE SMOOTH",
"557 467 OFFCURVE",
"576 475 OFFCURVE",
"576 495 CURVE SMOOTH",
"576 528 OFFCURVE",
"461 530 OFFCURVE",
"461 620 CURVE SMOOTH",
"461 661 OFFCURVE",
"483 686 OFFCURVE",
"513 686 CURVE SMOOTH",
"532 686 OFFCURVE",
"543 673 OFFCURVE",
"543 648 CURVE SMOOTH",
"543 628 OFFCURVE",
"545 624 OFFCURVE",
"555 624 CURVE SMOOTH",
"597 624 OFFCURVE",
"628 656 OFFCURVE",
"628 710 CURVE SMOOTH",
"628 782 OFFCURVE",
"569 846 OFFCURVE",
"439 846 CURVE SMOOTH"
);
},
{
closed = 1;
nodes = (
"750 251 LINE",
"795 177 OFFCURVE",
"815 115 OFFCURVE",
"815 68 CURVE SMOOTH",
"815 -20 OFFCURVE",
"764 -71 OFFCURVE",
"699 -71 CURVE SMOOTH",
"656 -71 OFFCURVE",
"651 -49 OFFCURVE",
"638 -49 CURVE SMOOTH",
"627 -49 OFFCURVE",
"623 -67 OFFCURVE",
"623 -85 CURVE SMOOTH",
"623 -171 OFFCURVE",
"714 -273 OFFCURVE",
"854 -273 CURVE SMOOTH",
"1014 -273 OFFCURVE",
"1089 -160 OFFCURVE",
"1089 -55 CURVE SMOOTH",
"1089 42 OFFCURVE",
"1028 156 OFFCURVE",
"791 290 CURVE"
);
},
{
closed = 1;
nodes = (
"808 530 OFFCURVE",
"808 466 OFFCURVE",
"758 418 CURVE",
"741 462 OFFCURVE",
"748 530 OFFCURVE",
"783 530 CURVE SMOOTH"
);
}
);
width = 1001;
}
);
},
{
glyphname = gjJA;
lastChange = "2015-07-10 08:27:44 +0000";
layers = (
{
background = {
paths = (
{
closed = 1;
nodes = (
"219 343 OFFCURVE",
"258 424 OFFCURVE",
"452 580 CURVE SMOOTH",
"589 690 OFFCURVE",
"653 728 OFFCURVE",
"653 771 CURVE",
"653 811 OFFCURVE",
"584 789 OFFCURVE",
"584 833 CURVE",
"584 885 OFFCURVE",
"667 941 OFFCURVE",
"780 941 CURVE SMOOTH",
"898 941 OFFCURVE",
"998 842 OFFCURVE",
"998 711 CURVE SMOOTH",
"998 569 OFFCURVE",
"932 495 OFFCURVE",
"745 407 CURVE SMOOTH",
"592 335 OFFCURVE",
"482 287 OFFCURVE",
"482 229 CURVE SMOOTH",
"482 195 OFFCURVE",
"505 187 OFFCURVE",
"529 187 CURVE SMOOTH",
"558 187 OFFCURVE",
"582 207 OFFCURVE",
"582 240 CURVE",
"582 287 OFFCURVE",
"566 319 OFFCURVE",
"529 361 CURVE",
"592 393 LINE",
"703 309 OFFCURVE",
"754 287 OFFCURVE",
"754 182 CURVE",
"754 73 OFFCURVE",
"655 0 OFFCURVE",
"531 0 CURVE",
"359 0 OFFCURVE",
"219 97 OFFCURVE",
"219 250 CURVE SMOOTH"
);
},
{
closed = 1;
nodes = (
"317 838 OFFCURVE",
"405 739 OFFCURVE",
"495 554 CURVE",
"397 532 LINE",
"359 565 OFFCURVE",
"319 576 OFFCURVE",
"285 576 CURVE",
"247 576 OFFCURVE",
"229 558 OFFCURVE",
"229 532 CURVE",
"229 507 OFFCURVE",
"249 504 OFFCURVE",
"249 488 CURVE SMOOTH",
"249 476 OFFCURVE",
"239 467 OFFCURVE",
"219 467 CURVE",
"149 467 OFFCURVE",
"30 547 OFFCURVE",
"30 661 CURVE",
"30 765 OFFCURVE",
"101 838 OFFCURVE",
"206 838 CURVE"
);
}
);
};
layerId = "FF8CB9F1-2B98-444C-A502-96421F2531A8";
name = "Bold Italic";
paths = (
{
closed = 1;
nodes = (
"658 941 OFFCURVE",
"584 877 OFFCURVE",
"584 833 CURVE SMOOTH",
"584 798 OFFCURVE",
"644 822 OFFCURVE",
"644 773 CURVE SMOOTH",
"644 738 OFFCURVE",
"607 691 OFFCURVE",
"427 551 CURVE SMOOTH",
"261 422 OFFCURVE",
"219 343 OFFCURVE",
"219 250 CURVE SMOOTH",
"219 104 OFFCURVE",
"338 0 OFFCURVE",
"506 0 CURVE SMOOTH",
"651 0 OFFCURVE",
"754 81 OFFCURVE",
"754 196 CURVE SMOOTH",
"754 266 OFFCURVE",
"706 328 OFFCURVE",
"632 353 CURVE",
"745 407 LINE SMOOTH",
"908 485 OFFCURVE",
"998 593 OFFCURVE",
"998 711 CURVE SMOOTH",
"998 842 OFFCURVE",
"904 941 OFFCURVE",
"766 941 CURVE SMOOTH"
);
},
{
closed = 1;
nodes = (
"570 290 OFFCURVE",
"582 270 OFFCURVE",
"582 243 CURVE SMOOTH",
"582 212 OFFCURVE",
"558 187 OFFCURVE",
"529 187 CURVE SMOOTH",
"501 187 OFFCURVE",
"482 203 OFFCURVE",
"482 229 CURVE SMOOTH",
"482 256 OFFCURVE",
"502 279 OFFCURVE",
"549 307 CURVE"
);
},
{
closed = 1;
nodes = (
"108 838 OFFCURVE",
"30 773 OFFCURVE",
"30 664 CURVE SMOOTH",
"30 535 OFFCURVE",
"129 456 OFFCURVE",
"219 456 CURVE SMOOTH",
"239 456 OFFCURVE",
"249 465 OFFCURVE",
"249 477 CURVE SMOOTH",
"249 496 OFFCURVE",
"229 503 OFFCURVE",
"229 532 CURVE SMOOTH",
"229 558 OFFCURVE",
"247 576 OFFCURVE",
"285 576 CURVE SMOOTH",
"319 576 OFFCURVE",
"359 565 OFFCURVE",
"406 517 CURVE",
"471 549 LINE",
"409 766 OFFCURVE",
"311 838 OFFCURVE",
"198 838 CURVE SMOOTH"
);
}
);
width = 978;
},
{
associatedMasterId = "FF8CB9F1-2B98-444C-A502-96421F2531A8";
layerId = "ACE1C649-40E4-45B1-ADE0-6657E8FC8904";
name = "Regular Feb 23 14, 14:59";
paths = (
{
closed = 1;
nodes = (
"188 507 OFFCURVE",
"626 649 OFFCURVE",
"626 732 CURVE",
"626 774 OFFCURVE",
"587 792 OFFCURVE",
"587 807 CURVE",
"587 822 OFFCURVE",
"624 828 OFFCURVE",
"639 828 CURVE SMOOTH",
"803 828 OFFCURVE",
"921 777 OFFCURVE",
"921 623 CURVE",
"921 331 OFFCURVE",
"508 417 OFFCURVE",
"508 198 CURVE SMOOTH",
"506 180 OFFCURVE",
"523 162 OFFCURVE",
"544 162 CURVE",
"586 162 OFFCURVE",
"631 215 OFFCURVE",
"631 261 CURVE",
"631 308 OFFCURVE",
"564 316 OFFCURVE",
"514 316 CURVE",
"465 316 OFFCURVE",
"564 374 OFFCURVE",
"642 374 CURVE",
"720 374 OFFCURVE",
"810 291 OFFCURVE",
"810 195 CURVE",
"810 99 OFFCURVE",
"720 -8 OFFCURVE",
"518 -8 CURVE",
"325 -8 OFFCURVE",
"188 113 OFFCURVE",
"188 223 CURVE SMOOTH"
);
},
{
closed = 1;
nodes = (
"329 838 OFFCURVE",
"410 795 OFFCURVE",
"523 585 CURVE SMOOTH",
"415 523 LINE SMOOTH",
"390 545 OFFCURVE",
"372 576 OFFCURVE",
"325 576 CURVE",
"279 576 OFFCURVE",
"229 522 OFFCURVE",
"229 493 CURVE",
"229 465 OFFCURVE",
"249 459 OFFCURVE",
"249 439 CURVE SMOOTH",
"249 419 OFFCURVE",
"222 414 OFFCURVE",
"204 414 CURVE",
"186 414 OFFCURVE",
"30 487 OFFCURVE",
"30 621 CURVE",
"30 755 OFFCURVE",
"131 838 OFFCURVE",
"256 838 CURVE"
);
}
);
width = 941;
},
{
associatedMasterId = "FF8CB9F1-2B98-444C-A502-96421F2531A8";
background = {
paths = (
{
closed = 1;
nodes = (
"794 506 OFFCURVE",
"886 597 OFFCURVE",
"915 689 CURVE SMOOTH",
"947 789 OFFCURVE",
"909 920 OFFCURVE",
"757 968 CURVE SMOOTH",
"623 1010 OFFCURVE",
"506 940 OFFCURVE",
"480 858 CURVE SMOOTH",
"474 840 OFFCURVE",
"473 822 OFFCURVE",
"483 819 CURVE SMOOTH",
"496 815 OFFCURVE",
"507 834 OFFCURVE",
"548 821 CURVE SMOOTH",
"610 802 OFFCURVE",
"643 738 OFFCURVE",
"617 654 CURVE SMOOTH",
"603 609 OFFCURVE",
"565 556 OFFCURVE",
"500 499 CURVE",
"527 449 LINE"
);
}
);
};
layerId = "BCCAF9D4-6E05-4858-88CD-0FC634B4B854";
name = "Regular Feb 23 14, 16:11";
paths = (
{
closed = 1;
nodes = (
"199 343 OFFCURVE",
"238 424 OFFCURVE",
"432 580 CURVE SMOOTH",
"569 690 OFFCURVE",
"633 728 OFFCURVE",
"633 771 CURVE",
"633 811 OFFCURVE",
"564 789 OFFCURVE",
"564 833 CURVE",
"564 885 OFFCURVE",
"647 941 OFFCURVE",
"760 941 CURVE SMOOTH",
"878 941 OFFCURVE",
"978 842 OFFCURVE",
"978 711 CURVE",
"978 569 OFFCURVE",
"912 495 OFFCURVE",
"725 407 CURVE SMOOTH",
"572 335 OFFCURVE",
"462 287 OFFCURVE",
"462 229 CURVE SMOOTH",
"462 195 OFFCURVE",
"485 176 OFFCURVE",
"509 176 CURVE SMOOTH",
"538 176 OFFCURVE",
"562 207 OFFCURVE",
"562 240 CURVE",
"562 287 OFFCURVE",
"543 307 OFFCURVE",
"493 332 CURVE",
"540 386 LINE",
"674 348 OFFCURVE",
"734 287 OFFCURVE",
"734 182 CURVE",
"734 73 OFFCURVE",
"635 0 OFFCURVE",
"511 0 CURVE",
"339 0 OFFCURVE",
"199 97 OFFCURVE",
"199 250 CURVE SMOOTH"
);
},
{
closed = 1;
nodes = (
"297 838 OFFCURVE",
"400 735 OFFCURVE",
"463 545 CURVE",
"365 523 LINE",
"327 556 OFFCURVE",
"299 576 OFFCURVE",
"265 576 CURVE",
"227 576 OFFCURVE",
"209 558 OFFCURVE",
"209 532 CURVE",
"209 507 OFFCURVE",
"229 504 OFFCURVE",
"229 488 CURVE SMOOTH",
"229 476 OFFCURVE",
"219 467 OFFCURVE",
"199 467 CURVE",
"129 467 OFFCURVE",
"10 547 OFFCURVE",
"10 661 CURVE",
"10 765 OFFCURVE",
"81 838 OFFCURVE",
"186 838 CURVE"
);
}
);
width = 1003;
},
{
associatedMasterId = "FF8CB9F1-2B98-444C-A502-96421F2531A8";
layerId = "E2ED2BC9-5E81-44FC-8538-4BC3146DE54F";
name = "Regular Jun 19 14, 21:28";
paths = (
{
closed = 1;
nodes = (
"199 328 OFFCURVE",
"236 391 OFFCURVE",
"310 454 CURVE SMOOTH",
"601 701 LINE SMOOTH",
"623 720 OFFCURVE",
"633 733 OFFCURVE",
"633 755 CURVE SMOOTH",
"633 824 OFFCURVE",
"564 792 OFFCURVE",
"564 833 CURVE",
"564 887 OFFCURVE",
"631 941 OFFCURVE",
"754 941 CURVE SMOOTH",
"881 941 OFFCURVE",
"978 842 OFFCURVE",
"978 711 CURVE",
"978 569 OFFCURVE",
"912 495 OFFCURVE",
"725 407 CURVE SMOOTH",
"572 335 OFFCURVE",
"462 287 OFFCURVE",
"462 229 CURVE SMOOTH",
"462 195 OFFCURVE",
"485 187 OFFCURVE",
"509 187 CURVE SMOOTH",
"538 187 OFFCURVE",
"563 210 OFFCURVE",
"563 248 CURVE",
"563 291 OFFCURVE",
"550 323 OFFCURVE",
"509 361 CURVE",
"572 393 LINE",
"684 339 OFFCURVE",
"734 277 OFFCURVE",
"734 182 CURVE SMOOTH",
"734 73 OFFCURVE",
"645 0 OFFCURVE",
"501 0 CURVE SMOOTH",
"319 0 OFFCURVE",
"199 100 OFFCURVE",
"199 253 CURVE SMOOTH"
);
},
{
closed = 1;
nodes = (
"297 838 OFFCURVE",
"385 739 OFFCURVE",
"475 554 CURVE",
"412 502 LINE",
"349 547 OFFCURVE",
"301 576 OFFCURVE",
"262 576 CURVE SMOOTH",
"224 576 OFFCURVE",
"209 558 OFFCURVE",
"209 532 CURVE SMOOTH",
"209 511 OFFCURVE",
"229 504 OFFCURVE",
"229 488 CURVE SMOOTH",
"229 476 OFFCURVE",
"219 467 OFFCURVE",
"199 467 CURVE",
"132 467 OFFCURVE",
"10 547 OFFCURVE",
"10 661 CURVE",
"10 765 OFFCURVE",
"81 838 OFFCURVE",
"186 838 CURVE"
);
}
);
width = 1003;
}
);
unicode = 0A9C;
},
{
glyphname = gjJHA;
lastChange = "2015-07-10 08:27:44 +0000";
layers = (
{
background = {
paths = (
{
closed = 0;
nodes = (
"835 -40 LINE SMOOTH",
"701 -40 OFFCURVE",
"608 65 OFFCURVE",
"608 201 CURVE SMOOTH",
"608 236 OFFCURVE",
"617 253 OFFCURVE",
"630 253 CURVE SMOOTH",
"651 253 OFFCURVE",
"659 206 OFFCURVE",
"708 206 CURVE SMOOTH"
);
}
);
};
layerId = "FF8CB9F1-2B98-444C-A502-96421F2531A8";
name = "Bold Italic";
paths = (
{
closed = 1;
nodes = (
"225 839 OFFCURVE",
"143 747 OFFCURVE",
"143 667 CURVE SMOOTH",
"143 651 OFFCURVE",
"151 642 OFFCURVE",
"159 642 CURVE SMOOTH",
"176 642 OFFCURVE",
"187 668 OFFCURVE",
"216 668 CURVE SMOOTH",
"248 668 OFFCURVE",
"277 641 OFFCURVE",
"277 580 CURVE SMOOTH",
"277 423 OFFCURVE",
"183 242 OFFCURVE",
"110 242 CURVE SMOOTH",
"61 242 OFFCURVE",
"53 289 OFFCURVE",
"32 289 CURVE SMOOTH",
"19 289 OFFCURVE",
"10 272 OFFCURVE",
"10 237 CURVE SMOOTH",
"10 101 OFFCURVE",
"103 -4 OFFCURVE",
"237 -4 CURVE SMOOTH",
"428 -4 OFFCURVE",
"600 165 OFFCURVE",
"600 509 CURVE SMOOTH",
"600 730 OFFCURVE",
"493 839 OFFCURVE",
"352 839 CURVE SMOOTH"
);
},
{
closed = 1;
nodes = (
"739 582 OFFCURVE",
"648 532 OFFCURVE",
"555 409 CURVE",
"543 212 LINE",
"604 340 OFFCURVE",
"643 388 OFFCURVE",
"704 388 CURVE SMOOTH",
"748 388 OFFCURVE",
"779 351 OFFCURVE",
"779 302 CURVE SMOOTH",
"779 244 OFFCURVE",
"753 211 OFFCURVE",
"703 211 CURVE SMOOTH",
"653 211 OFFCURVE",
"649 253 OFFCURVE",
"628 253 CURVE SMOOTH",
"616 253 OFFCURVE",
"610 237 OFFCURVE",
"610 211 CURVE SMOOTH",
"610 85 OFFCURVE",
"690 -4 OFFCURVE",
"848 -4 CURVE SMOOTH",
"1010 -4 OFFCURVE",
"1134 122 OFFCURVE",
"1134 302 CURVE SMOOTH",
"1134 482 OFFCURVE",
"1014 582 OFFCURVE",
"872 582 CURVE SMOOTH"
);
},
{
closed = 1;
nodes = (
"979 844 OFFCURVE",
"898 821 OFFCURVE",
"787 774 CURVE",
"701 504 LINE",
"1006 500 LINE",
"1090 637 LINE SMOOTH",
"1128 699 OFFCURVE",
"1148 740 OFFCURVE",
"1148 779 CURVE SMOOTH",
"1148 809 OFFCURVE",
"1135 844 OFFCURVE",
"1052 844 CURVE SMOOTH"
);
}
);
width = 1200;
}
);
unicode = 0A9D;
},
{
glyphname = gjNYA;
lastChange = "2015-07-13 12:48:36 +0000";
layers = (
{
background = {
paths = (
{
closed = 0;
nodes = (
"493 656 LINE SMOOTH",
"493 781 OFFCURVE",
"391 853 OFFCURVE",
"255 853 CURVE SMOOTH",
"114 853 OFFCURVE",
"55 773 OFFCURVE",
"55 688 CURVE SMOOTH",
"55 670 OFFCURVE",
"61 652 OFFCURVE",
"72 652 CURVE SMOOTH",
"85 652 OFFCURVE",
"92 684 OFFCURVE",
"122 684 CURVE SMOOTH",
"135 684 OFFCURVE",
"144 676 OFFCURVE",
"144 660 CURVE SMOOTH"
);
}
);
};
layerId = "FF8CB9F1-2B98-444C-A502-96421F2531A8";
rightMetricsKey = gjPA;
name = "Bold Italic";
paths = (
{
closed = 1;
nodes = (
"809 844 OFFCURVE",
"661 809 OFFCURVE",
"637 733 CURVE SMOOTH",
"525 379 LINE SMOOTH",
"496 287 OFFCURVE",
"483 234 OFFCURVE",
"483 186 CURVE SMOOTH",
"483 85 OFFCURVE",
"542 -4 OFFCURVE",
"702 -4 CURVE SMOOTH",
"842 -4 OFFCURVE",
"935 98 OFFCURVE",
"935 184 CURVE SMOOTH",
"935 202 OFFCURVE",
"929 220 OFFCURVE",
"918 220 CURVE SMOOTH",
"905 220 OFFCURVE",
"897 187 OFFCURVE",
"867 187 CURVE SMOOTH",
"849 187 OFFCURVE",
"841 203 OFFCURVE",
"849 229 CURVE SMOOTH",
"1003 733 LINE SMOOTH",
"1008 750 OFFCURVE",
"1011 766 OFFCURVE",
"1011 779 CURVE SMOOTH",
"1011 809 OFFCURVE",
"998 844 OFFCURVE",
"910 844 CURVE SMOOTH"
);
},
{
closed = 1;
nodes = (
"540 427 OFFCURVE",
"494 399 OFFCURVE",
"387 417 CURVE",
"305 372 LINE",
"374 297 OFFCURVE",
"456 260 OFFCURVE",
"557 260 CURVE",
"572 528 LINE"
);
},
{
closed = 1;
nodes = (
"122 853 OFFCURVE",
"55 780 OFFCURVE",
"55 687 CURVE SMOOTH",
"55 670 OFFCURVE",
"61 652 OFFCURVE",
"72 652 CURVE SMOOTH",
"85 652 OFFCURVE",
"97 684 OFFCURVE",
"122 684 CURVE SMOOTH",
"138 684 OFFCURVE",
"147 668 OFFCURVE",
"147 634 CURVE SMOOTH",
"147 551 OFFCURVE",
"101 514 OFFCURVE",
"59 514 CURVE SMOOTH",
"29 514 OFFCURVE",
"23 547 OFFCURVE",
"7 547 CURVE SMOOTH",
"-1 547 OFFCURVE",
"-10 537 OFFCURVE",
"-10 511 CURVE SMOOTH",
"-10 395 OFFCURVE",
"85 323 OFFCURVE",
"208 323 CURVE SMOOTH",
"367 323 OFFCURVE",
"502 432 OFFCURVE",
"502 626 CURVE SMOOTH",
"502 758 OFFCURVE",
"418 853 OFFCURVE",
"255 853 CURVE SMOOTH"
);
}
);
width = 1031;
}
);
rightMetricsKey = gjmAA;
unicode = 0A9E;
},
{
glyphname = gjTTA;
lastChange = "2015-07-13 11:51:42 +0000";
layers = (
{
background = {
paths = (
{
closed = 1;
nodes = (
"226 839 OFFCURVE",
"146 755 OFFCURVE",
"146 648 CURVE SMOOTH",
"146 523 OFFCURVE",
"325 445 OFFCURVE",
"327 355 CURVE SMOOTH",
"328 306 OFFCURVE",
"299 280 OFFCURVE",
"239 280 CURVE SMOOTH",
"85 280 OFFCURVE",
"65 398 OFFCURVE",
"35 398 CURVE SMOOTH",
"14 398 OFFCURVE",
"-40 344 OFFCURVE",
"-40 246 CURVE SMOOTH",
"-40 103 OFFCURVE",
"89 -9 OFFCURVE",
"315 -9 CURVE SMOOTH",
"520 -9 OFFCURVE",
"636 94 OFFCURVE",
"636 227 CURVE SMOOTH",
"636 390 OFFCURVE",
"362 447 OFFCURVE",
"362 542 CURVE SMOOTH",
"362 575 OFFCURVE",
"385 598 OFFCURVE",
"430 598 CURVE SMOOTH",
"499 598 OFFCURVE",
"543 550 OFFCURVE",
"591 550 CURVE SMOOTH",
"609 550 OFFCURVE",
"624 570 OFFCURVE",
"623 613 CURVE SMOOTH",
"620 721 OFFCURVE",
"520 839 OFFCURVE",
"358 839 CURVE SMOOTH"
);
}
);
};
guideLines = (
{
position = "{178, 280}";
},
{
position = "{178, 398}";
},
{
position = "{178, 550}";
}
);
layerId = "FF8CB9F1-2B98-444C-A502-96421F2531A8";
name = "Bold Italic";
paths = (
{
closed = 1;
nodes = (
"596 398 OFFCURVE",
"509 280 OFFCURVE",
"393 280 CURVE SMOOTH",
"323 280 OFFCURVE",
"286 302 OFFCURVE",
"286 348 CURVE SMOOTH",
"286 452 OFFCURVE",
"653 432 OFFCURVE",
"653 667 CURVE SMOOTH",
"653 765 OFFCURVE",
"565 839 OFFCURVE",
"428 839 CURVE SMOOTH",
"263 839 OFFCURVE",
"160 728 OFFCURVE",
"160 585 CURVE SMOOTH",
"160 561 OFFCURVE",
"169 550 OFFCURVE",
"178 550 CURVE SMOOTH",
"205 550 OFFCURVE",
"241 598 OFFCURVE",
"289 598 CURVE SMOOTH",
"321 598 OFFCURVE",
"339 580 OFFCURVE",
"339 555 CURVE SMOOTH",
"339 452 OFFCURVE",
"-40 464 OFFCURVE",
"-40 213 CURVE SMOOTH",
"-40 78 OFFCURVE",
"89 -9 OFFCURVE",
"280 -9 CURVE SMOOTH",
"520 -9 OFFCURVE",
"652 134 OFFCURVE",
"652 311 CURVE SMOOTH",
"652 364 OFFCURVE",
"641 398 OFFCURVE",
"626 398 CURVE SMOOTH"
);
}
);
width = 683;
}
);
unicode = 0A9F;
},
{
glyphname = gjTTHA;
lastChange = "2015-07-13 11:44:13 +0000";
layers = (
{
background = {
paths = (
{
closed = 1;
nodes = (
"501 603 OFFCURVE",
"518 620 OFFCURVE",
"551 620 CURVE SMOOTH",
"603 620 OFFCURVE",
"661 599 OFFCURVE",
"709 599 CURVE SMOOTH",
"725 599 OFFCURVE",
"739 606 OFFCURVE",
"739 631 CURVE SMOOTH",
"739 709 OFFCURVE",
"616 839 OFFCURVE",
"441 839 CURVE SMOOTH",
"306 839 OFFCURVE",
"240 771 OFFCURVE",
"240 698 CURVE SMOOTH",
"240 661 OFFCURVE",
"257 632 OFFCURVE",
"288 605 CURVE",
"137 605 OFFCURVE",
"6 554 OFFCURVE",
"-31 406 CURVE SMOOTH",
"-92 161 OFFCURVE",
"124 -9 OFFCURVE",
"385 -9 CURVE SMOOTH",
"610 -9 OFFCURVE",
"735 126 OFFCURVE",
"735 274 CURVE SMOOTH",
"735 376 OFFCURVE",
"683 442 OFFCURVE",
"589 498 CURVE SMOOTH",
"520 539 OFFCURVE",
"501 558 OFFCURVE",
"501 580 CURVE SMOOTH"
);
},
{
closed = 1;
nodes = (
"423 465 OFFCURVE",
"427 433 OFFCURVE",
"393 301 CURVE SMOOTH",
"359 170 OFFCURVE",
"337 138 OFFCURVE",
"302 138 CURVE SMOOTH",
"267 138 OFFCURVE",
"263 170 OFFCURVE",
"297 301 CURVE SMOOTH",
"331 433 OFFCURVE",
"353 465 OFFCURVE",
"388 465 CURVE SMOOTH"
);
}
);
};
layerId = "FF8CB9F1-2B98-444C-A502-96421F2531A8";
name = "Bold Italic";
paths = (
{
closed = 1;
nodes = (
"501 604 OFFCURVE",
"515 620 OFFCURVE",
"539 620 CURVE SMOOTH",
"587 620 OFFCURVE",
"642 574 OFFCURVE",
"683 574 CURVE SMOOTH",
"695 574 OFFCURVE",
"705 589 OFFCURVE",
"705 615 CURVE SMOOTH",
"705 735 OFFCURVE",
"593 839 OFFCURVE",
"430 839 CURVE SMOOTH",
"295 839 OFFCURVE",
"240 771 OFFCURVE",
"240 698 CURVE SMOOTH",
"240 661 OFFCURVE",
"257 632 OFFCURVE",
"288 605 CURVE",
"137 605 OFFCURVE",
"6 554 OFFCURVE",
"-31 406 CURVE SMOOTH",
"-92 161 OFFCURVE",
"124 -9 OFFCURVE",
"385 -9 CURVE SMOOTH",
"610 -9 OFFCURVE",
"735 126 OFFCURVE",
"735 274 CURVE SMOOTH",
"735 376 OFFCURVE",
"684 430 OFFCURVE",
"582 499 CURVE SMOOTH",
"512 546 OFFCURVE",
"501 564 OFFCURVE",
"501 584 CURVE SMOOTH"
);
},
{
closed = 1;
nodes = (
"423 465 OFFCURVE",
"427 433 OFFCURVE",
"393 301 CURVE SMOOTH",
"359 170 OFFCURVE",
"337 138 OFFCURVE",
"302 138 CURVE SMOOTH",
"267 138 OFFCURVE",
"263 170 OFFCURVE",
"297 301 CURVE SMOOTH",
"331 433 OFFCURVE",
"353 465 OFFCURVE",
"388 465 CURVE SMOOTH"
);
}
);
width = 780;
},
{
associatedMasterId = "FF8CB9F1-2B98-444C-A502-96421F2531A8";
background = {
paths = (
{
closed = 1;
nodes = (
"450 201 OFFCURVE",
"410 204 OFFCURVE",
"389 154 CURVE SMOOTH",
"377 127 OFFCURVE",
"390 103 OFFCURVE",
"435 103 CURVE SMOOTH",
"483 103 OFFCURVE",
"528 132 OFFCURVE",
"548 178 CURVE SMOOTH",
"623 357 OFFCURVE",
"117 430 OFFCURVE",
"210 652 CURVE SMOOTH",
"258 766 OFFCURVE",
"422 839 OFFCURVE",
"601 839 CURVE SMOOTH",
"713 839 OFFCURVE",
"774 813 OFFCURVE",
"763 786 CURVE SMOOTH",
"751 758 OFFCURVE",
"708 770 OFFCURVE",
"691 729 CURVE SMOOTH",
"653 638 OFFCURVE",
"966 493 OFFCURVE",
"867 258 CURVE SMOOTH",
"799 95 OFFCURVE",
"608 -9 OFFCURVE",
"349 -9 CURVE SMOOTH",
"80 -9 OFFCURVE",
"1 84 OFFCURVE",
"40 177 CURVE SMOOTH",
"71 251 OFFCURVE",
"173 313 OFFCURVE",
"293 313 CURVE SMOOTH",
"398 313 OFFCURVE",
"475 260 OFFCURVE",
"460 225 CURVE SMOOTH"
);
}
);
};
layerId = "1DD25A00-8E62-4642-87BB-589BF9B25CF9";
name = "Bold Italic Jul 13 15, 12:20";
paths = (
{
closed = 1;
nodes = (
"291 839 OFFCURVE",
"68 748 OFFCURVE",
"68 604 CURVE SMOOTH",
"68 422 OFFCURVE",
"555 362 OFFCURVE",
"555 208 CURVE SMOOTH",
"555 142 OFFCURVE",
"494 103 OFFCURVE",
"446 103 CURVE SMOOTH",
"401 103 OFFCURVE",
"389 126 OFFCURVE",
"389 154 CURVE SMOOTH",
"389 209 OFFCURVE",
"572 216 OFFCURVE",
"572 240 CURVE SMOOTH",
"572 271 OFFCURVE",
"543 304 OFFCURVE",
"428 304 CURVE SMOOTH",
"264 304 OFFCURVE",
"136 239 OFFCURVE",
"136 150 CURVE SMOOTH",
"136 74 OFFCURVE",
"232 -9 OFFCURVE",
"496 -9 CURVE SMOOTH",
"740 -9 OFFCURVE",
"920 199 OFFCURVE",
"800 368 CURVE SMOOTH",
"669 552 OFFCURVE",
"557 625 OFFCURVE",
"557 718 CURVE SMOOTH",
"557 760 OFFCURVE",
"633 766 OFFCURVE",
"633 791 CURVE SMOOTH",
"633 816 OFFCURVE",
"582 839 OFFCURVE",
"470 839 CURVE SMOOTH"
);
}
);
width = 910;
},
{
associatedMasterId = "FF8CB9F1-2B98-444C-A502-96421F2531A8";
background = {
paths = (
{
closed = 1;
nodes = (
"450 201 OFFCURVE",
"410 204 OFFCURVE",
"389 154 CURVE SMOOTH",
"377 127 OFFCURVE",
"390 103 OFFCURVE",
"435 103 CURVE SMOOTH",
"483 103 OFFCURVE",
"528 132 OFFCURVE",
"548 178 CURVE SMOOTH",
"623 357 OFFCURVE",
"117 430 OFFCURVE",
"210 652 CURVE SMOOTH",
"258 766 OFFCURVE",
"422 839 OFFCURVE",
"601 839 CURVE SMOOTH",
"713 839 OFFCURVE",
"774 813 OFFCURVE",
"763 786 CURVE SMOOTH",
"751 758 OFFCURVE",
"708 770 OFFCURVE",
"691 729 CURVE SMOOTH",
"653 638 OFFCURVE",
"966 493 OFFCURVE",
"867 258 CURVE SMOOTH",
"799 95 OFFCURVE",
"608 -9 OFFCURVE",
"349 -9 CURVE SMOOTH",
"80 -9 OFFCURVE",
"1 84 OFFCURVE",
"40 177 CURVE SMOOTH",
"71 251 OFFCURVE",
"173 313 OFFCURVE",
"293 313 CURVE SMOOTH",
"398 313 OFFCURVE",
"475 260 OFFCURVE",
"460 225 CURVE SMOOTH"
);
}
);
};
layerId = "47847579-FDBC-4A8C-96A5-7CB3D3617460";
name = "Bold Italic Jul 13 15, 12:26";
paths = (
{
closed = 1;
nodes = (
"275 839 OFFCURVE",
"195 755 OFFCURVE",
"195 671 CURVE SMOOTH",
"195 544 OFFCURVE",
"471 461 OFFCURVE",
"471 364 CURVE SMOOTH",
"471 298 OFFCURVE",
"330 234 OFFCURVE",
"282 234 CURVE SMOOTH",
"237 234 OFFCURVE",
"225 257 OFFCURVE",
"225 285 CURVE SMOOTH",
"225 402 OFFCURVE",
"457 371 OFFCURVE",
"457 426 CURVE SMOOTH",
"457 457 OFFCURVE",
"358 576 OFFCURVE",
"243 576 CURVE SMOOTH",
"79 576 OFFCURVE",
"-49 488 OFFCURVE",
"-49 329 CURVE SMOOTH",
"-49 110 OFFCURVE",
"150 -9 OFFCURVE",
"411 -9 CURVE SMOOTH",
"610 -9 OFFCURVE",
"735 114 OFFCURVE",
"735 234 CURVE SMOOTH",
"735 444 OFFCURVE",
"456 469 OFFCURVE",
"456 536 CURVE SMOOTH",
"456 635 OFFCURVE",
"713 634 OFFCURVE",
"713 659 CURVE SMOOTH",
"713 684 OFFCURVE",
"633 839 OFFCURVE",
"390 839 CURVE SMOOTH"
);
}
);
width = 780;
}
);
unicode = 0AA0;
},
{
glyphname = gjDDA;
lastChange = "2015-07-13 12:00:42 +0000";
layers = (
{
background = {
paths = (
{
closed = 0;
nodes = (
"619 213 LINE SMOOTH",
"729 464 OFFCURVE",
"344 452 OFFCURVE",
"390 555 CURVE SMOOTH",
"400 580 OFFCURVE",
"426 598 OFFCURVE",
"464 598 CURVE SMOOTH",
"519 598 OFFCURVE",
"522 550 OFFCURVE",
"549 550 CURVE SMOOTH",
"558 550 OFFCURVE",
"571 561 OFFCURVE",
"582 585 CURVE SMOOTH"
);
}
);
};
layerId = "FF8CB9F1-2B98-444C-A502-96421F2531A8";
name = "Bold Italic";
paths = (
{
closed = 1;
nodes = (
"194 839 OFFCURVE",
"133 778 OFFCURVE",
"133 700 CURVE SMOOTH",
"133 554 OFFCURVE",
"383 488 OFFCURVE",
"383 379 CURVE SMOOTH",
"383 317 OFFCURVE",
"333 280 OFFCURVE",
"259 280 CURVE SMOOTH",
"133 280 OFFCURVE",
"28 398 OFFCURVE",
"-2 398 CURVE SMOOTH",
"-23 398 OFFCURVE",
"-41 354 OFFCURVE",
"-41 288 CURVE SMOOTH",
"-41 123 OFFCURVE",
"85 -9 OFFCURVE",
"301 -9 CURVE SMOOTH",
"503 -9 OFFCURVE",
"626 97 OFFCURVE",
"626 250 CURVE SMOOTH",
"626 429 OFFCURVE",
"422 486 OFFCURVE",
"422 563 CURVE SMOOTH",
"422 589 OFFCURVE",
"437 605 OFFCURVE",
"463 605 CURVE SMOOTH",
"512 605 OFFCURVE",
"542 550 OFFCURVE",
"571 550 CURVE SMOOTH",
"586 550 OFFCURVE",
"600 573 OFFCURVE",
"599 613 CURVE SMOOTH",
"596 721 OFFCURVE",
"489 839 OFFCURVE",
"313 839 CURVE SMOOTH"
);
}
);
width = 664;
},
{
associatedMasterId = "FF8CB9F1-2B98-444C-A502-96421F2531A8";
background = {
paths = (
{
closed = 1;
nodes = (
"432 415 OFFCURVE",
"432 338 CURVE SMOOTH",
"432 304 OFFCURVE",
"381 279 OFFCURVE",
"291 279 CURVE SMOOTH",
"138 279 OFFCURVE",
"81 334 OFFCURVE",
"73 401 CURVE SMOOTH",
"70 422 OFFCURVE",
"64 428 OFFCURVE",
"53 428 CURVE SMOOTH",
"25 428 OFFCURVE",
"-30 340 OFFCURVE",
"-30 246 CURVE SMOOTH",
"-30 102 OFFCURVE",
"87 -9 OFFCURVE",
"307 -9 CURVE SMOOTH",
"514 -9 OFFCURVE",
"637 102 OFFCURVE",
"637 223 CURVE SMOOTH",
"637 364 OFFCURVE",
"391 455 OFFCURVE",
"391 540 CURVE SMOOTH",
"391 563 OFFCURVE",
"407 576 OFFCURVE",
"427 576 CURVE SMOOTH",
"450 576 OFFCURVE",
"466 555 OFFCURVE",
"483 555 CURVE SMOOTH",
"500 555 OFFCURVE",
"518 584 OFFCURVE",
"518 652 CURVE SMOOTH",
"518 766 OFFCURVE",
"429 839 OFFCURVE",
"332 839 CURVE SMOOTH",
"235 839 OFFCURVE",
"162 772 OFFCURVE",
"162 672 CURVE SMOOTH",
"162 530 OFFCURVE"
);
}
);
};
layerId = "CD862AED-4655-4114-B754-7BD3FAF7E9F5";
name = "Bold Jun 5 15, 10:20";
paths = (
{
closed = 1;
nodes = (
"402 486 OFFCURVE",
"402 368 CURVE SMOOTH",
"402 310 OFFCURVE",
"361 279 OFFCURVE",
"261 279 CURVE SMOOTH",
"136 279 OFFCURVE",
"81 334 OFFCURVE",
"73 401 CURVE SMOOTH",
"70 422 OFFCURVE",
"64 428 OFFCURVE",
"53 428 CURVE SMOOTH",
"25 428 OFFCURVE",
"-30 340 OFFCURVE",
"-30 246 CURVE SMOOTH",
"-30 102 OFFCURVE",
"73 -9 OFFCURVE",
"293 -9 CURVE SMOOTH",
"510 -9 OFFCURVE",
"637 102 OFFCURVE",
"637 248 CURVE SMOOTH",
"637 389 OFFCURVE",
"416 509 OFFCURVE",
"416 568 CURVE SMOOTH",
"416 587 OFFCURVE",
"427 598 OFFCURVE",
"477 625 CURVE SMOOTH",
"522 649 OFFCURVE",
"538 667 OFFCURVE",
"538 701 CURVE SMOOTH",
"538 775 OFFCURVE",
"432 869 OFFCURVE",
"326 869 CURVE SMOOTH",
"251 869 OFFCURVE",
"202 817 OFFCURVE",
"202 746 CURVE SMOOTH",
"202 612 OFFCURVE"
);
}
);
width = 671;
},
{
associatedMasterId = "FF8CB9F1-2B98-444C-A502-96421F2531A8";
background = {
paths = (
{
closed = 1;
nodes = (
"18 84 OFFCURVE",
"161 -9 OFFCURVE",
"362 -9 CURVE SMOOTH",
"563 -9 OFFCURVE",
"706 84 OFFCURVE",
"706 215 CURVE SMOOTH",
"706 344 OFFCURVE",
"586 411 OFFCURVE",
"498 449 CURVE SMOOTH",
"410 487 OFFCURVE",
"387 493 OFFCURVE",
"387 513 CURVE SMOOTH",
"387 553 OFFCURVE",
"474 576 OFFCURVE",
"549 576 CURVE SMOOTH",
"604 576 OFFCURVE",
"624 552 OFFCURVE",
"647 533 CURVE SMOOTH",
"672 513 OFFCURVE",
"706 586 OFFCURVE",
"706 664 CURVE SMOOTH",
"706 766 OFFCURVE",
"626 839 OFFCURVE",
"518 839 CURVE SMOOTH",
"335 839 OFFCURVE",
"159 751 OFFCURVE",
"166 595 CURVE SMOOTH",
"170 500 OFFCURVE",
"216 480 OFFCURVE",
"345 413 CURVE SMOOTH",
"427 371 OFFCURVE",
"435 355 OFFCURVE",
"436 333 CURVE SMOOTH",
"437 301 OFFCURVE",
"400 279 OFFCURVE",
"320 279 CURVE SMOOTH",
"235 279 OFFCURVE",
"190 336 OFFCURVE",
"189 356 CURVE SMOOTH",
"188 376 OFFCURVE",
"188 388 OFFCURVE",
"160 388 CURVE SMOOTH",
"132 388 OFFCURVE",
"18 346 OFFCURVE",
"18 215 CURVE SMOOTH"
);
}
);
};
guideLines = (
{
angle = 90;
position = "{303.500, 221.500}";
}
);
layerId = "6896836C-2EA4-4124-BB42-C241BC72AFDE";
name = "Bold Jun 5 15, 14:09";
paths = (
{
closed = 1;
nodes = (
"415 423 OFFCURVE",
"415 346 CURVE SMOOTH",
"415 308 OFFCURVE",
"383 279 OFFCURVE",
"298 279 CURVE SMOOTH",
"152 279 OFFCURVE",
"130 330 OFFCURVE",
"130 372 CURVE SMOOTH",
"130 390 OFFCURVE",
"134 409 OFFCURVE",
"134 422 CURVE SMOOTH",
"134 435 OFFCURVE",
"129 442 OFFCURVE",
"120 442 CURVE SMOOTH",
"84 442 OFFCURVE",
"-9 352 OFFCURVE",
"-9 220 CURVE SMOOTH",
"-9 78 OFFCURVE",
"94 -9 OFFCURVE",
"304 -9 CURVE SMOOTH",
"514 -9 OFFCURVE",
"637 82 OFFCURVE",
"637 223 CURVE SMOOTH",
"637 364 OFFCURVE",
"411 493 OFFCURVE",
"411 577 CURVE SMOOTH",
"411 596 OFFCURVE",
"419 606 OFFCURVE",
"439 606 CURVE SMOOTH",
"463 606 OFFCURVE",
"481 585 OFFCURVE",
"503 585 CURVE SMOOTH",
"526 585 OFFCURVE",
"538 614 OFFCURVE",
"538 669 CURVE SMOOTH",
"538 796 OFFCURVE",
"435 869 OFFCURVE",
"338 869 CURVE SMOOTH",
"241 869 OFFCURVE",
"182 808 OFFCURVE",
"182 727 CURVE SMOOTH",
"182 588 OFFCURVE"
);
}
);
width = 671;
},
{
associatedMasterId = "FF8CB9F1-2B98-444C-A502-96421F2531A8";
background = {
paths = (
{
closed = 0;
nodes = (
"643 213 LINE SMOOTH",
"753 464 OFFCURVE",
"368 452 OFFCURVE",
"414 555 CURVE SMOOTH",
"424 580 OFFCURVE",
"450 598 OFFCURVE",
"488 598 CURVE SMOOTH",
"543 598 OFFCURVE",
"546 550 OFFCURVE",
"573 550 CURVE SMOOTH",
"582 550 OFFCURVE",
"595 561 OFFCURVE",
"606 585 CURVE SMOOTH"
);
}
);
};
layerId = "3F642850-72DB-4F4A-A333-B16CEEFC3400";
name = "Bold Italic Jul 13 15, 12:47";
paths = (
{
closed = 1;
nodes = (
"269 839 OFFCURVE",
"189 755 OFFCURVE",
"189 648 CURVE SMOOTH",
"189 523 OFFCURVE",
"353 481 OFFCURVE",
"355 391 CURVE SMOOTH",
"356 342 OFFCURVE",
"299 280 OFFCURVE",
"239 280 CURVE SMOOTH",
"85 280 OFFCURVE",
"65 398 OFFCURVE",
"35 398 CURVE SMOOTH",
"14 398 OFFCURVE",
"-40 344 OFFCURVE",
"-40 246 CURVE SMOOTH",
"-40 103 OFFCURVE",
"89 -9 OFFCURVE",
"315 -9 CURVE SMOOTH",
"537 -9 OFFCURVE",
"650 117 OFFCURVE",
"650 250 CURVE SMOOTH",
"650 429 OFFCURVE",
"426 481 OFFCURVE",
"426 563 CURVE SMOOTH",
"426 596 OFFCURVE",
"459 605 OFFCURVE",
"487 605 CURVE SMOOTH",
"556 605 OFFCURVE",
"546 550 OFFCURVE",
"575 550 CURVE SMOOTH",
"593 550 OFFCURVE",
"608 570 OFFCURVE",
"607 613 CURVE SMOOTH",
"604 721 OFFCURVE",
"563 839 OFFCURVE",
"401 839 CURVE SMOOTH"
);
}
);
width = 688;
}
);
unicode = 0AA1;
},
{
glyphname = gjDDHA;
lastChange = "2015-07-13 12:34:10 +0000";
layers = (
{
background = {
paths = (
{
closed = 1;
nodes = (
"434 839 OFFCURVE",
"400 812 OFFCURVE",
"400 796 CURVE SMOOTH",
"400 775 OFFCURVE",
"434 763 OFFCURVE",
"434 732 CURVE SMOOTH",
"434 700 OFFCURVE",
"417 680 OFFCURVE",
"254 605 CURVE SMOOTH",
"89 529 OFFCURVE",
"23 462 OFFCURVE",
"1 365 CURVE SMOOTH",
"-48 151 OFFCURVE",
"156 -7 OFFCURVE",
"478 -7 CURVE SMOOTH",
"672 -7 OFFCURVE",
"799 79 OFFCURVE",
"799 188 CURVE SMOOTH",
"799 279 OFFCURVE",
"722 344 OFFCURVE",
"580 344 CURVE SMOOTH",
"420 344 OFFCURVE",
"334 258 OFFCURVE",
"303 146 CURVE",
"278 167 OFFCURVE",
"267 186 OFFCURVE",
"267 214 CURVE SMOOTH",
"267 277 OFFCURVE",
"307 321 OFFCURVE",
"559 407 CURVE SMOOTH",
"832 500 OFFCURVE",
"882 545 OFFCURVE",
"882 648 CURVE SMOOTH",
"882 747 OFFCURVE",
"757 839 OFFCURVE",
"542 839 CURVE SMOOTH"
);
},
{
closed = 1;
nodes = (
"496 173 OFFCURVE",
"511 159 OFFCURVE",
"511 135 CURVE SMOOTH",
"511 108 OFFCURVE",
"488 92 OFFCURVE",
"443 92 CURVE SMOOTH",
"429 92 OFFCURVE",
"406 95 OFFCURVE",
"383 105 CURVE",
"393 149 OFFCURVE",
"427 173 OFFCURVE",
"457 173 CURVE SMOOTH"
);
}
);
};
layerId = "FF8CB9F1-2B98-444C-A502-96421F2531A8";
name = "Bold Italic";
paths = (
{
closed = 1;
nodes = (
"428 839 OFFCURVE",
"370 814 OFFCURVE",
"370 798 CURVE SMOOTH",
"370 777 OFFCURVE",
"404 763 OFFCURVE",
"404 732 CURVE SMOOTH",
"404 700 OFFCURVE",
"387 680 OFFCURVE",
"224 605 CURVE SMOOTH",
"59 529 OFFCURVE",
"-7 462 OFFCURVE",
"-29 365 CURVE SMOOTH",
"-78 151 OFFCURVE",
"142 -7 OFFCURVE",
"448 -7 CURVE SMOOTH",
"664 -7 OFFCURVE",
"769 79 OFFCURVE",
"769 188 CURVE SMOOTH",
"769 279 OFFCURVE",
"692 360 OFFCURVE",
"550 360 CURVE SMOOTH",
"390 360 OFFCURVE",
"304 274 OFFCURVE",
"273 162 CURVE",
"248 183 OFFCURVE",
"237 202 OFFCURVE",
"237 230 CURVE SMOOTH",
"237 305 OFFCURVE",
"304 372 OFFCURVE",
"511 418 CURVE SMOOTH",
"784 479 OFFCURVE",
"852 528 OFFCURVE",
"852 626 CURVE SMOOTH",
"852 738 OFFCURVE",
"727 839 OFFCURVE",
"522 839 CURVE SMOOTH"
);
},
{
closed = 1;
nodes = (
"466 189 OFFCURVE",
"481 175 OFFCURVE",
"481 151 CURVE SMOOTH",
"481 124 OFFCURVE",
"458 108 OFFCURVE",
"413 108 CURVE SMOOTH",
"399 108 OFFCURVE",
"376 111 OFFCURVE",
"353 121 CURVE",
"363 165 OFFCURVE",
"397 189 OFFCURVE",
"427 189 CURVE SMOOTH"
);
}
);
width = 832;
},
{
associatedMasterId = "FF8CB9F1-2B98-444C-A502-96421F2531A8";
background = {
paths = (
{
closed = 1;
nodes = (
"-35 495 OFFCURVE",
"339 638 OFFCURVE",
"339 709 CURVE SMOOTH",
"339 758 OFFCURVE",
"291 733 OFFCURVE",
"291 775 CURVE SMOOTH",
"291 817 OFFCURVE",
"363 839 OFFCURVE",
"449 839 CURVE SMOOTH",
"625 839 OFFCURVE",
"787 766 OFFCURVE",
"787 666 CURVE SMOOTH",
"787 442 OFFCURVE",
"299 376 OFFCURVE",
"235 186 CURVE SMOOTH",
"224 154 OFFCURVE",
"239 136 OFFCURVE",
"281 136 CURVE SMOOTH",
"437 136 OFFCURVE",
"509 195 OFFCURVE",
"509 233 CURVE SMOOTH",
"509 271 OFFCURVE",
"487 265 OFFCURVE",
"471 265 CURVE SMOOTH",
"455 265 OFFCURVE",
"441 171 OFFCURVE",
"441 145 CURVE SMOOTH",
"441 119 OFFCURVE",
"399 111 OFFCURVE",
"391 131 CURVE SMOOTH",
"383 151 OFFCURVE",
"363 187 OFFCURVE",
"363 225 CURVE SMOOTH",
"363 263 OFFCURVE",
"393 376 OFFCURVE",
"537 376 CURVE SMOOTH",
"627 376 OFFCURVE",
"731 313 OFFCURVE",
"731 202 CURVE SMOOTH",
"731 64 OFFCURVE",
"611 -7 OFFCURVE",
"395 -7 CURVE SMOOTH",
"137 -7 OFFCURVE",
"-35 112 OFFCURVE",
"-35 260 CURVE SMOOTH"
);
}
);
};
backgroundImage = {
crop = "{{0, 0}, {295, 360}}";
imagePath = ../../../../Shrikhand/Gujarati/Reference/Shrikhand_DDHA.png;
locked = 1;
transform = "{3, 0, 0, 3, -78, -100}";
};
layerId = "DB39CD9D-0264-42F4-BCED-61EF8AAA067F";
name = "Bold Jun 5 15, 13:22";
paths = (
{
closed = 1;
nodes = (
"-35 495 OFFCURVE",
"339 638 OFFCURVE",
"339 729 CURVE SMOOTH",
"339 770 OFFCURVE",
"291 758 OFFCURVE",
"291 786 CURVE SMOOTH",
"291 813 OFFCURVE",
"363 839 OFFCURVE",
"475 839 CURVE SMOOTH",
"654 839 OFFCURVE",
"787 766 OFFCURVE",
"787 636 CURVE SMOOTH",
"787 432 OFFCURVE",
"251 359 OFFCURVE",
"251 180 CURVE SMOOTH",
"251 134 OFFCURVE",
"296 105 OFFCURVE",
"379 105 CURVE SMOOTH",
"472 105 OFFCURVE",
"509 135 OFFCURVE",
"509 167 CURVE SMOOTH",
"509 185 OFFCURVE",
"499 197 OFFCURVE",
"476 197 CURVE SMOOTH",
"433 197 OFFCURVE",
"411 141 OFFCURVE",
"433 84 CURVE",
"383 70 LINE",
"353 104 OFFCURVE",
"333 136 OFFCURVE",
"333 177 CURVE SMOOTH",
"333 256 OFFCURVE",
"400 324 OFFCURVE",
"515 324 CURVE SMOOTH",
"633 324 OFFCURVE",
"701 270 OFFCURVE",
"701 186 CURVE SMOOTH",
"701 72 OFFCURVE",
"559 -7 OFFCURVE",
"395 -7 CURVE SMOOTH",
"160 -7 OFFCURVE",
"-35 97 OFFCURVE",
"-35 260 CURVE SMOOTH"
);
}
);
width = 787;
}
);
unicode = 0AA2;
},
{
glyphname = gjNNA;
lastChange = "2015-07-13 12:48:42 +0000";
layers = (
{
background = {
paths = (
{
closed = 1;
nodes = (
"299 844 OFFCURVE",
"151 808 OFFCURVE",
"127 733 CURVE SMOOTH",
"3 341 LINE SMOOTH",
"-27 248 OFFCURVE",
"1 187 OFFCURVE",
"124 163 CURVE SMOOTH",
"584 73 LINE SMOOTH",
"640 62 OFFCURVE",
"656 41 OFFCURVE",
"656 15 CURVE SMOOTH",
"656 -17 OFFCURVE",
"630 -35 OFFCURVE",
"590 -35 CURVE SMOOTH",
"550 -35 OFFCURVE",
"535 -18 OFFCURVE",
"515 -18 CURVE SMOOTH",
"502 -18 OFFCURVE",
"493 -34 OFFCURVE",
"493 -64 CURVE SMOOTH",
"493 -177 OFFCURVE",
"580 -272 OFFCURVE",
"723 -272 CURVE SMOOTH",
"853 -272 OFFCURVE",
"944 -176 OFFCURVE",
"944 -51 CURVE SMOOTH",
"944 74 OFFCURVE",
"855 142 OFFCURVE",
"659 181 CURVE SMOOTH",
"438 224 LINE SMOOTH",
"356 240 OFFCURVE",
"344 269 OFFCURVE",
"361 323 CURVE SMOOTH",
"493 733 LINE SMOOTH",
"498 750 OFFCURVE",
"501 766 OFFCURVE",
"501 779 CURVE SMOOTH",
"501 809 OFFCURVE",
"488 844 OFFCURVE",
"400 844 CURVE SMOOTH"
);
},
{
closed = 1;
nodes = (
"630 853 OFFCURVE",
"563 780 OFFCURVE",
"563 687 CURVE SMOOTH",
"563 670 OFFCURVE",
"569 652 OFFCURVE",
"580 652 CURVE SMOOTH",
"593 652 OFFCURVE",
"605 684 OFFCURVE",
"630 684 CURVE SMOOTH",
"646 684 OFFCURVE",
"655 668 OFFCURVE",
"655 634 CURVE SMOOTH",
"655 551 OFFCURVE",
"589 445 OFFCURVE",
"547 445 CURVE SMOOTH",
"517 445 OFFCURVE",
"511 478 OFFCURVE",
"495 478 CURVE SMOOTH",
"487 478 OFFCURVE",
"473 468 OFFCURVE",
"473 442 CURVE SMOOTH",
"473 326 OFFCURVE",
"563 254 OFFCURVE",
"696 254 CURVE SMOOTH",
"855 254 OFFCURVE",
"1006 374 OFFCURVE",
"1006 596 CURVE SMOOTH",
"1006 734 OFFCURVE",
"926 853 OFFCURVE",
"763 853 CURVE SMOOTH"
);
},
{
closed = 1;
nodes = (
"1316 844 OFFCURVE",
"1168 809 OFFCURVE",
"1144 733 CURVE SMOOTH",
"1032 379 LINE SMOOTH",
"1003 287 OFFCURVE",
"990 234 OFFCURVE",
"990 186 CURVE SMOOTH",
"990 85 OFFCURVE",
"1049 -4 OFFCURVE",
"1209 -4 CURVE SMOOTH",
"1349 -4 OFFCURVE",
"1442 98 OFFCURVE",
"1442 184 CURVE SMOOTH",
"1442 202 OFFCURVE",
"1436 220 OFFCURVE",
"1425 220 CURVE SMOOTH",
"1412 220 OFFCURVE",
"1404 187 OFFCURVE",
"1374 187 CURVE SMOOTH",
"1356 187 OFFCURVE",
"1348 203 OFFCURVE",
"1356 229 CURVE SMOOTH",
"1510 733 LINE SMOOTH",
"1515 750 OFFCURVE",
"1518 766 OFFCURVE",
"1518 779 CURVE SMOOTH",
"1518 809 OFFCURVE",
"1505 844 OFFCURVE",
"1417 844 CURVE SMOOTH"
);
}
);
};
guideLines = (
{
angle = -19.0842;
position = "{59, 254}";
}
);
layerId = "FF8CB9F1-2B98-444C-A502-96421F2531A8";
rightMetricsKey = gjPA;
name = "Bold Italic";
paths = (
{
closed = 1;
nodes = (
"299 844 OFFCURVE",
"151 809 OFFCURVE",
"127 733 CURVE SMOOTH",
"33 435 LINE SMOOTH",
"-1 325 OFFCURVE",
"30 264 OFFCURVE",
"148 223 CURVE SMOOTH",
"584 73 LINE SMOOTH",
"640 54 OFFCURVE",
"656 41 OFFCURVE",
"656 15 CURVE SMOOTH",
"656 -17 OFFCURVE",
"630 -35 OFFCURVE",
"590 -35 CURVE SMOOTH",
"550 -35 OFFCURVE",
"535 -18 OFFCURVE",
"515 -18 CURVE SMOOTH",
"502 -18 OFFCURVE",
"493 -34 OFFCURVE",
"493 -64 CURVE SMOOTH",
"493 -177 OFFCURVE",
"580 -272 OFFCURVE",
"723 -272 CURVE SMOOTH",
"853 -272 OFFCURVE",
"944 -183 OFFCURVE",
"944 -70 CURVE SMOOTH",
"944 45 OFFCURVE",
"863 110 OFFCURVE",
"724 158 CURVE SMOOTH",
"448 254 LINE SMOOTH",
"369 281 OFFCURVE",
"353 298 OFFCURVE",
"371 353 CURVE SMOOTH",
"493 733 LINE SMOOTH",
"499 750 OFFCURVE",
"501 766 OFFCURVE",
"501 779 CURVE SMOOTH",
"501 809 OFFCURVE",
"488 844 OFFCURVE",
"400 844 CURVE SMOOTH"
);
},
{
closed = 1;
nodes = (
"630 853 OFFCURVE",
"563 780 OFFCURVE",
"563 687 CURVE SMOOTH",
"563 670 OFFCURVE",
"569 652 OFFCURVE",
"580 652 CURVE SMOOTH",
"593 652 OFFCURVE",
"605 684 OFFCURVE",
"630 684 CURVE SMOOTH",
"646 684 OFFCURVE",
"655 668 OFFCURVE",
"655 634 CURVE SMOOTH",
"655 551 OFFCURVE",
"589 445 OFFCURVE",
"547 445 CURVE SMOOTH",
"517 445 OFFCURVE",
"511 478 OFFCURVE",
"495 478 CURVE SMOOTH",
"487 478 OFFCURVE",
"473 468 OFFCURVE",
"473 442 CURVE SMOOTH",
"473 326 OFFCURVE",
"563 254 OFFCURVE",
"696 254 CURVE SMOOTH",
"855 254 OFFCURVE",
"1006 374 OFFCURVE",
"1006 596 CURVE SMOOTH",
"1006 734 OFFCURVE",
"926 853 OFFCURVE",
"763 853 CURVE SMOOTH"
);
},
{
closed = 1;
nodes = (
"1316 844 OFFCURVE",
"1168 809 OFFCURVE",
"1144 733 CURVE SMOOTH",
"1032 379 LINE SMOOTH",
"1003 287 OFFCURVE",
"990 234 OFFCURVE",
"990 186 CURVE SMOOTH",
"990 85 OFFCURVE",
"1049 -4 OFFCURVE",
"1209 -4 CURVE SMOOTH",
"1349 -4 OFFCURVE",
"1442 98 OFFCURVE",
"1442 184 CURVE SMOOTH",
"1442 202 OFFCURVE",
"1436 220 OFFCURVE",
"1425 220 CURVE SMOOTH",
"1412 220 OFFCURVE",
"1404 187 OFFCURVE",
"1374 187 CURVE SMOOTH",
"1356 187 OFFCURVE",
"1348 203 OFFCURVE",
"1356 229 CURVE SMOOTH",
"1510 733 LINE SMOOTH",
"1515 750 OFFCURVE",
"1518 766 OFFCURVE",
"1518 779 CURVE SMOOTH",
"1518 809 OFFCURVE",
"1505 844 OFFCURVE",
"1417 844 CURVE SMOOTH"
);
}
);
width = 1538;
}
);
rightMetricsKey = gjmAA;
unicode = 0AA3;
},
{
glyphname = gjTA;
lastChange = "2015-07-13 12:48:49 +0000";
layers = (
{
background = {
paths = (
{
closed = 1;
nodes = (
"810 844 OFFCURVE",
"662 809 OFFCURVE",
"638 733 CURVE SMOOTH",
"526 379 LINE SMOOTH",
"497 287 OFFCURVE",
"484 234 OFFCURVE",
"484 186 CURVE SMOOTH",
"484 85 OFFCURVE",
"543 -4 OFFCURVE",
"703 -4 CURVE SMOOTH",
"843 -4 OFFCURVE",
"936 98 OFFCURVE",
"936 184 CURVE SMOOTH",
"936 202 OFFCURVE",
"930 220 OFFCURVE",
"919 220 CURVE SMOOTH",
"906 220 OFFCURVE",
"898 187 OFFCURVE",
"868 187 CURVE SMOOTH",
"850 187 OFFCURVE",
"842 203 OFFCURVE",
"850 229 CURVE SMOOTH",
"1004 733 LINE SMOOTH",
"1009 750 OFFCURVE",
"1012 766 OFFCURVE",
"1012 779 CURVE SMOOTH",
"1012 809 OFFCURVE",
"999 844 OFFCURVE",
"911 844 CURVE SMOOTH"
);
},
{
closed = 1;
nodes = (
"307 844 OFFCURVE",
"159 809 OFFCURVE",
"135 733 CURVE SMOOTH",
"23 379 LINE SMOOTH",
"-6 287 OFFCURVE",
"-19 234 OFFCURVE",
"-19 186 CURVE SMOOTH",
"-19 85 OFFCURVE",
"40 -4 OFFCURVE",
"200 -4 CURVE SMOOTH",
"340 -4 OFFCURVE",
"433 98 OFFCURVE",
"433 184 CURVE SMOOTH",
"433 202 OFFCURVE",
"427 220 OFFCURVE",
"416 220 CURVE SMOOTH",
"403 220 OFFCURVE",
"395 187 OFFCURVE",
"365 187 CURVE SMOOTH",
"347 187 OFFCURVE",
"339 203 OFFCURVE",
"347 229 CURVE SMOOTH",
"501 733 LINE SMOOTH",
"506 750 OFFCURVE",
"509 766 OFFCURVE",
"509 779 CURVE SMOOTH",
"509 809 OFFCURVE",
"496 844 OFFCURVE",
"408 844 CURVE SMOOTH"
);
}
);
};
layerId = "FF8CB9F1-2B98-444C-A502-96421F2531A8";
rightMetricsKey = gjPA;
name = "Bold Italic";
paths = (
{
closed = 1;
nodes = (
"810 844 OFFCURVE",
"662 809 OFFCURVE",
"638 733 CURVE SMOOTH",
"526 379 LINE SMOOTH",
"497 287 OFFCURVE",
"484 234 OFFCURVE",
"484 186 CURVE SMOOTH",
"484 85 OFFCURVE",
"543 -4 OFFCURVE",
"703 -4 CURVE SMOOTH",
"843 -4 OFFCURVE",
"936 98 OFFCURVE",
"936 184 CURVE SMOOTH",
"936 202 OFFCURVE",
"930 220 OFFCURVE",
"919 220 CURVE SMOOTH",
"906 220 OFFCURVE",
"898 187 OFFCURVE",
"868 187 CURVE SMOOTH",
"850 187 OFFCURVE",
"842 203 OFFCURVE",
"850 229 CURVE SMOOTH",
"1004 733 LINE SMOOTH",
"1009 750 OFFCURVE",
"1012 766 OFFCURVE",
"1012 779 CURVE SMOOTH",
"1012 809 OFFCURVE",
"999 844 OFFCURVE",
"911 844 CURVE SMOOTH"
);
},
{
closed = 1;
nodes = (
"136 605 OFFCURVE",
"-27 450 OFFCURVE",
"-27 245 CURVE SMOOTH",
"-27 95 OFFCURVE",
"81 -4 OFFCURVE",
"208 -4 CURVE SMOOTH",
"338 -4 OFFCURVE",
"433 85 OFFCURVE",
"433 184 CURVE SMOOTH",
"433 212 OFFCURVE",
"427 220 OFFCURVE",
"416 220 CURVE SMOOTH",
"404 220 OFFCURVE",
"383 187 OFFCURVE",
"365 187 CURVE SMOOTH",
"338 187 OFFCURVE",
"314 219 OFFCURVE",
"314 266 CURVE SMOOTH",
"314 389 OFFCURVE",
"403 478 OFFCURVE",
"517 478 CURVE SMOOTH",
"579 478 OFFCURVE",
"654 461 OFFCURVE",
"701 442 CURVE",
"664 554 LINE",
"565 587 OFFCURVE",
"475 605 OFFCURVE",
"378 605 CURVE SMOOTH"
);
}
);
width = 1032;
}
);
rightMetricsKey = "pa-gujarati";
unicode = 0AA4;
},
{
glyphname = gjTHA;
lastChange = "2015-07-13 12:48:04 +0000";
layers = (
{
background = {
paths = (
{
closed = 1;
nodes = (
"168 881 OFFCURVE",
"66 787 OFFCURVE",
"66 674 CURVE SMOOTH",
"66 571 OFFCURVE",
"182 508 OFFCURVE",
"295 508 CURVE",
"362 576 LINE",
"304 576 OFFCURVE",
"276 604 OFFCURVE",
"276 641 CURVE SMOOTH",
"276 670 OFFCURVE",
"297 691 OFFCURVE",
"317 691 CURVE SMOOTH",
"337 691 OFFCURVE",
"360 677 OFFCURVE",
"360 642 CURVE SMOOTH",
"360 594 OFFCURVE",
"328 553 OFFCURVE",
"186 502 CURVE SMOOTH",
"36 448 OFFCURVE",
"10 425 OFFCURVE",
"10 376 CURVE SMOOTH",
"10 241 OFFCURVE",
"196 115 OFFCURVE",
"393 115 CURVE SMOOTH",
"548 115 OFFCURVE",
"674 198 OFFCURVE",
"739 305 CURVE",
"730 462 LINE",
"694 349 OFFCURVE",
"607 297 OFFCURVE",
"497 297 CURVE SMOOTH",
"435 297 OFFCURVE",
"404 309 OFFCURVE",
"440 329 CURVE SMOOTH",
"513 370 LINE SMOOTH",
"622 431 OFFCURVE",
"678 508 OFFCURVE",
"678 620 CURVE SMOOTH",
"678 765 OFFCURVE",
"542 881 OFFCURVE",
"341 881 CURVE SMOOTH"
);
}
);
};
components = (
{
name = gjmAA;
transform = "{1, 0, 0, 1, 641, 0}";
}
);
guideLines = (
{
angle = 90;
position = "{309.500, 622.500}";
}
);
layerId = "FF8CB9F1-2B98-444C-A502-96421F2531A8";
rightMetricsKey = gjPA;
name = "Bold Italic";
paths = (
{
closed = 1;
nodes = (
"165 836 OFFCURVE",
"63 754 OFFCURVE",
"63 656 CURVE SMOOTH",
"63 566 OFFCURVE",
"179 512 OFFCURVE",
"292 512 CURVE",
"359 559 LINE",
"301 559 OFFCURVE",
"262 590 OFFCURVE",
"262 623 CURVE SMOOTH",
"262 653 OFFCURVE",
"282 671 OFFCURVE",
"309 671 CURVE SMOOTH",
"337 671 OFFCURVE",
"357 653 OFFCURVE",
"357 623 CURVE SMOOTH",
"357 581 OFFCURVE",
"325 551 OFFCURVE",
"183 506 CURVE SMOOTH",
"33 460 OFFCURVE",
"7 440 OFFCURVE",
"7 397 CURVE SMOOTH",
"7 280 OFFCURVE",
"171 170 OFFCURVE",
"410 170 CURVE SMOOTH",
"565 170 OFFCURVE",
"691 242 OFFCURVE",
"756 335 CURVE",
"734 472 LINE",
"698 373 OFFCURVE",
"624 328 OFFCURVE",
"514 328 CURVE SMOOTH",
"452 328 OFFCURVE",
"442 349 OFFCURVE",
"479 367 CURVE SMOOTH",
"530 392 LINE SMOOTH",
"639 445 OFFCURVE",
"695 512 OFFCURVE",
"695 609 CURVE SMOOTH",
"695 735 OFFCURVE",
"566 836 OFFCURVE",
"356 836 CURVE SMOOTH"
);
}
);
width = 1209;
}
);
rightMetricsKey = "pa-gujarati";
unicode = 0AA5;
},
{
glyphname = gjDA;
lastChange = "2015-07-10 08:27:44 +0000";
layers = (
{
layerId = "FF8CB9F1-2B98-444C-A502-96421F2531A8";
name = "Bold Italic";
paths = (
{
closed = 1;
nodes = (
"238 846 OFFCURVE",
"118 749 OFFCURVE",
"118 604 CURVE SMOOTH",
"118 524 OFFCURVE",
"173 462 OFFCURVE",
"276 443 CURVE",
"236 516 LINE",
"87 490 OFFCURVE",
"-7 402 OFFCURVE",
"-7 273 CURVE SMOOTH",
"-7 126 OFFCURVE",
"110 0 OFFCURVE",
"314 0 CURVE SMOOTH",
"479 0 OFFCURVE",
"620 128 OFFCURVE",
"620 251 CURVE SMOOTH",
"620 286 OFFCURVE",
"613 301 OFFCURVE",
"600 301 CURVE SMOOTH",
"578 301 OFFCURVE",
"542 270 OFFCURVE",
"441 270 CURVE SMOOTH",
"375 270 OFFCURVE",
"333 298 OFFCURVE",
"333 350 CURVE SMOOTH",
"333 403 OFFCURVE",
"384 430 OFFCURVE",
"455 447 CURVE SMOOTH",
"523 464 OFFCURVE",
"570 475 OFFCURVE",
"570 495 CURVE SMOOTH",
"570 528 OFFCURVE",
"444 530 OFFCURVE",
"444 620 CURVE SMOOTH",
"444 661 OFFCURVE",
"460 686 OFFCURVE",
"490 686 CURVE SMOOTH",
"509 686 OFFCURVE",
"521 673 OFFCURVE",
"523 648 CURVE SMOOTH",
"525 628 OFFCURVE",
"527 624 OFFCURVE",
"537 624 CURVE SMOOTH",
"579 624 OFFCURVE",
"608 656 OFFCURVE",
"603 710 CURVE SMOOTH",
"597 782 OFFCURVE",
"532 846 OFFCURVE",
"402 846 CURVE SMOOTH"
);
}
);
width = 659;
}
);
unicode = 0AA6;
},
{
glyphname = gjDHA;
lastChange = "2015-07-13 13:24:07 +0000";
layers = (
{
background = {
paths = (
{
closed = 1;
nodes = (
"181 857 OFFCURVE",
"74 772 OFFCURVE",
"74 649 CURVE SMOOTH",
"74 560 OFFCURVE",
"139 500 OFFCURVE",
"232 468 CURVE",
"223 557 LINE",
"82 533 OFFCURVE",
"-11 472 OFFCURVE",
"-11 357 CURVE SMOOTH",
"-11 250 OFFCURVE",
"85 170 OFFCURVE",
"243 170 CURVE SMOOTH",
"436 170 OFFCURVE",
"584 294 OFFCURVE",
"656 464 CURVE",
"609 535 LINE",
"575 434 OFFCURVE",
"516 354 OFFCURVE",
"416 354 CURVE SMOOTH",
"354 354 OFFCURVE",
"329 366 OFFCURVE",
"329 398 CURVE SMOOTH",
"329 502 OFFCURVE",
"526 479 OFFCURVE",
"526 530 CURVE SMOOTH",
"526 561 OFFCURVE",
"400 568 OFFCURVE",
"400 657 CURVE SMOOTH",
"400 689 OFFCURVE",
"421 708 OFFCURVE",
"442 708 CURVE SMOOTH",
"480 708 OFFCURVE",
"498 658 OFFCURVE",
"530 658 CURVE SMOOTH",
"542 658 OFFCURVE",
"549 669 OFFCURVE",
"549 687 CURVE SMOOTH",
"549 787 OFFCURVE",
"460 857 OFFCURVE",
"333 857 CURVE SMOOTH"
);
},
{
closed = 1;
nodes = (
"846 844 OFFCURVE",
"698 809 OFFCURVE",
"674 733 CURVE SMOOTH",
"562 379 LINE SMOOTH",
"533 287 OFFCURVE",
"520 234 OFFCURVE",
"520 186 CURVE SMOOTH",
"520 85 OFFCURVE",
"579 -4 OFFCURVE",
"739 -4 CURVE SMOOTH",
"879 -4 OFFCURVE",
"972 98 OFFCURVE",
"972 184 CURVE SMOOTH",
"972 202 OFFCURVE",
"966 220 OFFCURVE",
"955 220 CURVE SMOOTH",
"942 220 OFFCURVE",
"934 187 OFFCURVE",
"904 187 CURVE SMOOTH",
"886 187 OFFCURVE",
"878 203 OFFCURVE",
"886 229 CURVE SMOOTH",
"1040 733 LINE SMOOTH",
"1045 750 OFFCURVE",
"1048 766 OFFCURVE",
"1048 779 CURVE SMOOTH",
"1048 809 OFFCURVE",
"1035 844 OFFCURVE",
"947 844 CURVE SMOOTH"
);
}
);
};
components = (
{
name = gjmAA;
transform = "{1, 0, 0, 1, 497, 0}";
}
);
layerId = "FF8CB9F1-2B98-444C-A502-96421F2531A8";
rightMetricsKey = gjPA;
name = "Bold Italic";
paths = (
{
closed = 1;
nodes = (
"74 560 OFFCURVE",
"139 500 OFFCURVE",
"232 468 CURVE",
"223 557 LINE",
"82 533 OFFCURVE",
"-11 472 OFFCURVE",
"-11 357 CURVE SMOOTH",
"-11 250 OFFCURVE",
"85 170 OFFCURVE",
"243 170 CURVE SMOOTH",
"436 170 OFFCURVE",
"584 294 OFFCURVE",
"656 464 CURVE",
"609 535 LINE",
"575 434 OFFCURVE",
"516 354 OFFCURVE",
"416 354 CURVE SMOOTH",
"354 354 OFFCURVE",
"329 366 OFFCURVE",
"329 398 CURVE SMOOTH",
"329 502 OFFCURVE",
"526 479 OFFCURVE",
"526 530 CURVE SMOOTH",
"526 561 OFFCURVE",
"400 568 OFFCURVE",
"401 633 CURVE SMOOTH",
"401 668 OFFCURVE",
"445 676 OFFCURVE",
"490 690 CURVE SMOOTH",
"573 716 OFFCURVE",
"605 758 OFFCURVE",
"605 821 CURVE SMOOTH",
"605 945 OFFCURVE",
"474 999 OFFCURVE",
"410 999 CURVE SMOOTH",
"386 999 OFFCURVE",
"378 992 OFFCURVE",
"378 982 CURVE SMOOTH",
"378 966 OFFCURVE",
"395 951 OFFCURVE",
"395 925 CURVE SMOOTH",
"395 833 OFFCURVE",
"74 877 OFFCURVE",
"74 654 CURVE SMOOTH"
);
}
);
width = 1047;
}
);
rightMetricsKey = gjmAA;
unicode = 0AA7;
},
{
glyphname = gjNA;
lastChange = "2015-07-13 12:49:08 +0000";
layers = (
{
background = {
paths = (
{
closed = 1;
nodes = (
"290 1047 OFFCURVE",
"142 1012 OFFCURVE",
"118 936 CURVE SMOOTH",
"6 582 LINE SMOOTH",
"-23 490 OFFCURVE",
"-36 437 OFFCURVE",
"-36 389 CURVE SMOOTH",
"-36 288 OFFCURVE",
"23 199 OFFCURVE",
"183 199 CURVE SMOOTH",
"323 199 OFFCURVE",
"416 301 OFFCURVE",
"416 387 CURVE SMOOTH",
"416 405 OFFCURVE",
"410 423 OFFCURVE",
"399 423 CURVE SMOOTH",
"386 423 OFFCURVE",
"378 390 OFFCURVE",
"348 390 CURVE SMOOTH",
"330 390 OFFCURVE",
"322 406 OFFCURVE",
"330 432 CURVE SMOOTH",
"484 936 LINE SMOOTH",
"489 953 OFFCURVE",
"492 969 OFFCURVE",
"492 982 CURVE SMOOTH",
"492 1012 OFFCURVE",
"479 1047 OFFCURVE",
"391 1047 CURVE SMOOTH"
);
}
);
};
layerId = "FF8CB9F1-2B98-444C-A502-96421F2531A8";
rightMetricsKey = gjPA;
name = "Bold Italic";
paths = (
{
closed = 1;
nodes = (
"773 844 OFFCURVE",
"625 809 OFFCURVE",
"601 733 CURVE SMOOTH",
"489 379 LINE SMOOTH",
"460 287 OFFCURVE",
"447 234 OFFCURVE",
"447 186 CURVE SMOOTH",
"447 85 OFFCURVE",
"506 -4 OFFCURVE",
"666 -4 CURVE SMOOTH",
"806 -4 OFFCURVE",
"899 98 OFFCURVE",
"899 184 CURVE SMOOTH",
"899 202 OFFCURVE",
"893 220 OFFCURVE",
"882 220 CURVE SMOOTH",
"869 220 OFFCURVE",
"861 187 OFFCURVE",
"831 187 CURVE SMOOTH",
"813 187 OFFCURVE",
"805 203 OFFCURVE",
"813 229 CURVE SMOOTH",
"967 733 LINE SMOOTH",
"972 750 OFFCURVE",
"975 766 OFFCURVE",
"975 779 CURVE SMOOTH",
"975 809 OFFCURVE",
"962 844 OFFCURVE",
"874 844 CURVE SMOOTH"
);
},
{
closed = 1;
nodes = (
"107 664 OFFCURVE",
"-34 554 OFFCURVE",
"-32 389 CURVE SMOOTH",
"-30 251 OFFCURVE",
"71 170 OFFCURVE",
"203 170 CURVE SMOOTH",
"318 170 OFFCURVE",
"415 250 OFFCURVE",
"415 351 CURVE SMOOTH",
"415 376 OFFCURVE",
"409 395 OFFCURVE",
"400 395 CURVE SMOOTH",
"384 395 OFFCURVE",
"378 363 OFFCURVE",
"349 363 CURVE SMOOTH",
"330 363 OFFCURVE",
"308 377 OFFCURVE",
"308 414 CURVE SMOOTH",
"308 474 OFFCURVE",
"353 510 OFFCURVE",
"412 510 CURVE SMOOTH",
"478 510 OFFCURVE",
"548 477 OFFCURVE",
"617 427 CURVE",
"659 494 LINE",
"562 601 OFFCURVE",
"432 664 OFFCURVE",
"291 664 CURVE SMOOTH"
);
}
);
width = 995;
}
);
rightMetricsKey = "pa-gujarati";
unicode = 0AA8;
},
{
glyphname = gjPA;
lastChange = "2015-07-13 12:49:20 +0000";
layers = (
{
background = {
paths = (
{
closed = 1;
nodes = (
"496 814 OFFCURVE",
"425 894 OFFCURVE",
"273 894 CURVE SMOOTH",
"132 894 OFFCURVE",
"40 792 OFFCURVE",
"40 707 CURVE SMOOTH",
"40 689 OFFCURVE",
"46 671 OFFCURVE",
"57 671 CURVE SMOOTH",
"70 671 OFFCURVE",
"77 703 OFFCURVE",
"107 703 CURVE SMOOTH",
"120 703 OFFCURVE",
"129 695 OFFCURVE",
"129 679 CURVE SMOOTH",
"129 674 OFFCURVE",
"128 668 OFFCURVE",
"125 661 CURVE",
"74 506 LINE SMOOTH",
"58 458 OFFCURVE",
"48 413 OFFCURVE",
"48 372 CURVE SMOOTH",
"48 252 OFFCURVE",
"120 170 OFFCURVE",
"275 170 CURVE SMOOTH",
"413 170 OFFCURVE",
"507 240 OFFCURVE",
"573 329 CURVE",
"573 472 LINE",
"550 403 OFFCURVE",
"506 361 OFFCURVE",
"465 361 CURVE SMOOTH",
"425 361 OFFCURVE",
"410 382 OFFCURVE",
"410 408 CURVE SMOOTH",
"410 422 OFFCURVE",
"414 438 OFFCURVE",
"420 454 CURVE SMOOTH",
"470 580 LINE",
"486 624 OFFCURVE",
"496 661 OFFCURVE",
"496 709 CURVE SMOOTH"
);
}
);
};
components = (
{
name = gjmAA;
transform = "{1, 0, 0, 1, 481, 0}";
}
);
layerId = "FF8CB9F1-2B98-444C-A502-96421F2531A8";
rightMetricsKey = gjPA;
name = "Bold Italic";
paths = (
{
closed = 1;
nodes = (
"113 837 OFFCURVE",
"21 735 OFFCURVE",
"21 650 CURVE SMOOTH",
"21 632 OFFCURVE",
"27 614 OFFCURVE",
"38 614 CURVE SMOOTH",
"51 614 OFFCURVE",
"58 646 OFFCURVE",
"88 646 CURVE SMOOTH",
"101 646 OFFCURVE",
"110 638 OFFCURVE",
"110 622 CURVE SMOOTH",
"110 617 OFFCURVE",
"109 611 OFFCURVE",
"106 604 CURVE SMOOTH",
"74 506 LINE SMOOTH",
"59 459 OFFCURVE",
"48 413 OFFCURVE",
"48 372 CURVE SMOOTH",
"48 252 OFFCURVE",
"120 170 OFFCURVE",
"275 170 CURVE SMOOTH",
"413 170 OFFCURVE",
"507 240 OFFCURVE",
"573 329 CURVE",
"573 472 LINE",
"550 403 OFFCURVE",
"506 361 OFFCURVE",
"465 361 CURVE SMOOTH",
"425 361 OFFCURVE",
"410 382 OFFCURVE",
"410 408 CURVE SMOOTH",
"410 422 OFFCURVE",
"414 438 OFFCURVE",
"420 454 CURVE SMOOTH",
"448 523 LINE SMOOTH",
"466 567 OFFCURVE",
"474 604 OFFCURVE",
"474 652 CURVE SMOOTH",
"474 757 OFFCURVE",
"406 837 OFFCURVE",
"254 837 CURVE SMOOTH"
);
}
);
width = 1049;
}
);
rightMetricsKey = gjmAA;
unicode = 0AAA;
},
{
glyphname = gjPHA;
lastChange = "2015-07-10 08:27:44 +0000";
layers = (
{
background = {
components = (
{
name = gjKA;
transform = "{1, 0, 0, 1, 0, 0}";
}
);
};
layerId = "FF8CB9F1-2B98-444C-A502-96421F2531A8";
name = "Bold Italic";
paths = (
{
closed = 1;
nodes = (
"297 409 LINE",
"341 383 OFFCURVE",
"363 359 OFFCURVE",
"363 321 CURVE SMOOTH",
"363 244 OFFCURVE",
"256 223 OFFCURVE",
"172 241 CURVE",
"145 307 OFFCURVE",
"113 339 OFFCURVE",
"61 339 CURVE SMOOTH",
"20 339 OFFCURVE",
"-12 315 OFFCURVE",
"-26 265 CURVE SMOOTH",
"-61 141 OFFCURVE",
"63 -6 OFFCURVE",
"338 -6 CURVE SMOOTH",
"522 -6 OFFCURVE",
"640 78 OFFCURVE",
"640 203 CURVE SMOOTH",
"640 308 OFFCURVE",
"545 385 OFFCURVE",
"407 434 CURVE"
);
},
{
closed = 1;
nodes = (
"119 -156 OFFCURVE",
"235 -325 OFFCURVE",
"459 -325 CURVE SMOOTH",
"580 -325 OFFCURVE",
"670 -254 OFFCURVE",
"670 -131 CURVE SMOOTH",
"670 -70 OFFCURVE",
"624 -16 OFFCURVE",
"603 -16 CURVE SMOOTH",
"586 -16 OFFCURVE",
"539 -76 OFFCURVE",
"423 -76 CURVE SMOOTH",
"331 -76 OFFCURVE",
"226 -34 OFFCURVE",
"226 69 CURVE",
"151 85 LINE"
);
},
{
closed = 1;
nodes = (
"497 543 OFFCURVE",
"475 539 OFFCURVE",
"436 520 CURVE SMOOTH",
"334 469 LINE",
"129 469 LINE SMOOTH",
"81 469 OFFCURVE",
"69 445 OFFCURVE",
"68 426 CURVE SMOOTH",
"65 383 OFFCURVE",
"151 333 OFFCURVE",
"211 333 CURVE SMOOTH",
"238 333 OFFCURVE",
"273 348 OFFCURVE",
"396 411 CURVE",
"548 411 LINE SMOOTH",
"605 411 OFFCURVE",
"615 433 OFFCURVE",
"616 452 CURVE SMOOTH",
"618 488 OFFCURVE",
"557 543 OFFCURVE",
"515 543 CURVE SMOOTH"
);
},
{
closed = 1;
nodes = (
"218 839 OFFCURVE",
"147 720 OFFCURVE",
"147 618 CURVE SMOOTH",
"147 546 OFFCURVE",
"208 474 OFFCURVE",
"284 437 CURVE",
"391 462 LINE",
"378 473 OFFCURVE",
"361 492 OFFCURVE",
"362 517 CURVE SMOOTH",
"365 567 OFFCURVE",
"405 598 OFFCURVE",
"472 598 CURVE SMOOTH",
"566 598 OFFCURVE",
"609 550 OFFCURVE",
"648 550 CURVE SMOOTH",
"663 550 OFFCURVE",
"684 568 OFFCURVE",
"684 610 CURVE SMOOTH",
"684 718 OFFCURVE",
"586 839 OFFCURVE",
"410 839 CURVE SMOOTH"
);
}
);
width = 692;
},
{
associatedMasterId = "FF8CB9F1-2B98-444C-A502-96421F2531A8";
background = {
paths = (
{
closed = 1;
nodes = (
"336 -176 OFFCURVE",
"456 -298 OFFCURVE",
"644 -298 CURVE SMOOTH",
"752 -298 OFFCURVE",
"830 -243 OFFCURVE",
"830 -149 CURVE SMOOTH",
"830 -61 OFFCURVE",
"707 56 OFFCURVE",
"689 20 CURVE SMOOTH",
"678 -4 OFFCURVE",
"637 -69 OFFCURVE",
"597 -69 CURVE SMOOTH",
"554 -69 OFFCURVE",
"456 -50 OFFCURVE",
"384 34 CURVE",
"336 22 LINE"
);
}
);
};
layerId = "206EC46F-8F01-494A-BF32-B001FCDE83A6";
name = "Bold Italic Jul 9 15, 12:38";
paths = (
{
closed = 1;
nodes = (
"273 30 LINE",
"359 -199 OFFCURVE",
"480 -297 OFFCURVE",
"604 -297 CURVE SMOOTH",
"718 -297 OFFCURVE",
"789 -230 OFFCURVE",
"789 -121 CURVE SMOOTH",
"789 -37 OFFCURVE",
"742 15 OFFCURVE",
"722 15 CURVE SMOOTH",
"702 15 OFFCURVE",
"646 -52 OFFCURVE",
"556 -52 CURVE SMOOTH",
"466 -52 OFFCURVE",
"387 -15 OFFCURVE",
"326 44 CURVE"
);
},
{
closed = 1;
nodes = (
"304 839 OFFCURVE",
"178 746 OFFCURVE",
"178 612 CURVE SMOOTH",
"178 533 OFFCURVE",
"228 480 OFFCURVE",
"357 413 CURVE SMOOTH",
"439 371 OFFCURVE",
"447 355 OFFCURVE",
"448 333 CURVE SMOOTH",
"449 301 OFFCURVE",
"412 279 OFFCURVE",
"332 279 CURVE SMOOTH",
"247 279 OFFCURVE",
"202 336 OFFCURVE",
"201 356 CURVE SMOOTH",
"200 376 OFFCURVE",
"200 388 OFFCURVE",
"172 388 CURVE SMOOTH",
"144 388 OFFCURVE",
"30 346 OFFCURVE",
"30 215 CURVE SMOOTH",
"30 84 OFFCURVE",
"173 -9 OFFCURVE",
"374 -9 CURVE SMOOTH",
"575 -9 OFFCURVE",
"718 84 OFFCURVE",
"718 215 CURVE SMOOTH",
"718 344 OFFCURVE",
"598 411 OFFCURVE",
"510 449 CURVE SMOOTH",
"422 487 OFFCURVE",
"399 493 OFFCURVE",
"399 513 CURVE SMOOTH",
"399 553 OFFCURVE",
"486 576 OFFCURVE",
"561 576 CURVE SMOOTH",
"616 576 OFFCURVE",
"636 552 OFFCURVE",
"659 533 CURVE SMOOTH",
"684 513 OFFCURVE",
"718 586 OFFCURVE",
"718 664 CURVE SMOOTH",
"718 766 OFFCURVE",
"621 839 OFFCURVE",
"487 839 CURVE SMOOTH"
);
},
{
closed = 1;
nodes = (
"267 387 LINE SMOOTH",
"255 381 OFFCURVE",
"251 365 OFFCURVE",
"258 354 CURVE SMOOTH",
"271 332 LINE SMOOTH",
"279 318 OFFCURVE",
"295 314 OFFCURVE",
"307 321 CURVE SMOOTH",
"587 470 LINE SMOOTH",
"598 477 OFFCURVE",
"603 491 OFFCURVE",
"595 504 CURVE SMOOTH",
"583 526 LINE SMOOTH",
"574 538 OFFCURVE",
"560 543 OFFCURVE",
"546 535 CURVE SMOOTH"
);
}
);
width = 748;
},
{
associatedMasterId = "FF8CB9F1-2B98-444C-A502-96421F2531A8";
background = {
paths = (
{
closed = 1;
nodes = (
"273 30 LINE",
"359 -199 OFFCURVE",
"480 -297 OFFCURVE",
"604 -297 CURVE SMOOTH",
"718 -297 OFFCURVE",
"789 -230 OFFCURVE",
"789 -121 CURVE SMOOTH",
"789 -37 OFFCURVE",
"742 15 OFFCURVE",
"722 15 CURVE SMOOTH",
"702 15 OFFCURVE",
"646 -52 OFFCURVE",
"556 -52 CURVE SMOOTH",
"466 -52 OFFCURVE",
"387 -15 OFFCURVE",
"326 44 CURVE"
);
},
{
closed = 0;
nodes = (
"374 -9 LINE",
"575 -9 OFFCURVE",
"718 84 OFFCURVE",
"718 215 CURVE SMOOTH",
"718 344 OFFCURVE",
"598 411 OFFCURVE",
"510 449 CURVE SMOOTH",
"422 487 OFFCURVE",
"399 493 OFFCURVE",
"399 513 CURVE SMOOTH",
"399 553 OFFCURVE",
"486 576 OFFCURVE",
"561 576 CURVE SMOOTH",
"616 576 OFFCURVE",
"636 552 OFFCURVE",
"659 533 CURVE SMOOTH",
"684 513 OFFCURVE",
"718 586 OFFCURVE",
"718 664 CURVE SMOOTH",
"718 766 OFFCURVE",
"621 839 OFFCURVE",
"487 839 CURVE SMOOTH",
"304 839 OFFCURVE",
"178 746 OFFCURVE",
"178 612 CURVE SMOOTH",
"178 533 OFFCURVE",
"228 480 OFFCURVE",
"357 413 CURVE SMOOTH",
"439 371 OFFCURVE",
"447 355 OFFCURVE",
"448 333 CURVE SMOOTH",
"449 301 OFFCURVE",
"412 279 OFFCURVE",
"332 279 CURVE"
);
},
{
closed = 1;
nodes = (
"267 387 LINE SMOOTH",
"255 381 OFFCURVE",
"251 365 OFFCURVE",
"258 354 CURVE SMOOTH",
"271 332 LINE SMOOTH",
"279 318 OFFCURVE",
"295 314 OFFCURVE",
"307 321 CURVE SMOOTH",
"587 470 LINE SMOOTH",
"598 477 OFFCURVE",
"603 491 OFFCURVE",
"595 504 CURVE SMOOTH",
"583 526 LINE SMOOTH",
"574 538 OFFCURVE",
"560 543 OFFCURVE",
"546 535 CURVE SMOOTH"
);
},
{
closed = 0;
nodes = (
"332 279 LINE",
"247 279 OFFCURVE",
"202 336 OFFCURVE",
"201 356 CURVE SMOOTH",
"200 376 OFFCURVE",
"200 388 OFFCURVE",
"172 388 CURVE SMOOTH",
"144 388 OFFCURVE",
"30 346 OFFCURVE",
"30 215 CURVE SMOOTH",
"30 84 OFFCURVE",
"173 -9 OFFCURVE",
"374 -9 CURVE"
);
}
);
};
layerId = "9B586693-4A33-4B72-BAD8-643728E00151";
name = "Bold Italic Jul 9 15, 12:40";
paths = (
{
closed = 1;
nodes = (
"304 839 OFFCURVE",
"178 746 OFFCURVE",
"178 612 CURVE SMOOTH",
"178 533 OFFCURVE",
"228 480 OFFCURVE",
"357 413 CURVE SMOOTH",
"439 371 OFFCURVE",
"447 355 OFFCURVE",
"448 333 CURVE SMOOTH",
"449 301 OFFCURVE",
"412 279 OFFCURVE",
"282 248 CURVE",
"374 61 LINE",
"575 94 OFFCURVE",
"718 153 OFFCURVE",
"718 277 CURVE SMOOTH",
"718 376 OFFCURVE",
"598 411 OFFCURVE",
"510 449 CURVE SMOOTH",
"422 487 OFFCURVE",
"399 493 OFFCURVE",
"399 513 CURVE SMOOTH",
"399 553 OFFCURVE",
"486 576 OFFCURVE",
"561 576 CURVE SMOOTH",
"616 576 OFFCURVE",
"636 552 OFFCURVE",
"659 533 CURVE SMOOTH",
"684 513 OFFCURVE",
"718 586 OFFCURVE",
"718 664 CURVE SMOOTH",
"718 766 OFFCURVE",
"621 839 OFFCURVE",
"487 839 CURVE SMOOTH"
);
},
{
closed = 1;
nodes = (
"195 115 LINE",
"144 -79 OFFCURVE",
"221 -271 OFFCURVE",
"443 -271 CURVE SMOOTH",
"592 -271 OFFCURVE",
"673 -163 OFFCURVE",
"673 -57 CURVE SMOOTH",
"673 30 OFFCURVE",
"622 80 OFFCURVE",
"597 80 CURVE SMOOTH",
"566 80 OFFCURVE",
"559 -18 OFFCURVE",
"453 -18 CURVE SMOOTH",
"360 -18 OFFCURVE",
"295 26 OFFCURVE",
"262 115 CURVE"
);
},
{
closed = 1;
nodes = (
"58 259 OFFCURVE",
"19 212 OFFCURVE",
"23 156 CURVE SMOOTH",
"28 81 OFFCURVE",
"101 34 OFFCURVE",
"216 34 CURVE SMOOTH",
"290 34 OFFCURVE",
"386 54 OFFCURVE",
"471 98 CURVE",
"282 248 LINE",
"270 233 OFFCURVE",
"252 219 OFFCURVE",
"229 205 CURVE",
"198 241 OFFCURVE",
"159 266 OFFCURVE",
"110 262 CURVE SMOOTH"
);
},
{
closed = 1;
nodes = (
"267 387 LINE SMOOTH",
"255 381 OFFCURVE",
"251 365 OFFCURVE",
"258 354 CURVE SMOOTH",
"271 332 LINE SMOOTH",
"279 318 OFFCURVE",
"295 314 OFFCURVE",
"307 321 CURVE SMOOTH",
"587 470 LINE SMOOTH",
"598 477 OFFCURVE",
"603 491 OFFCURVE",
"595 504 CURVE SMOOTH",
"583 526 LINE SMOOTH",
"574 538 OFFCURVE",
"560 543 OFFCURVE",
"546 535 CURVE SMOOTH"
);
}
);
width = 748;
},
{
associatedMasterId = "FF8CB9F1-2B98-444C-A502-96421F2531A8";
background = {
paths = (
{
closed = 1;
nodes = (
"241 114 LINE",
"274 25 OFFCURVE",
"339 -19 OFFCURVE",
"432 -19 CURVE SMOOTH",
"538 -19 OFFCURVE",
"545 79 OFFCURVE",
"576 79 CURVE SMOOTH",
"601 79 OFFCURVE",
"652 29 OFFCURVE",
"652 -58 CURVE SMOOTH",
"652 -164 OFFCURVE",
"571 -272 OFFCURVE",
"422 -272 CURVE SMOOTH",
"200 -272 OFFCURVE",
"123 -80 OFFCURVE",
"174 114 CURVE"
);
},
{
closed = 1;
nodes = (
"-2 211 OFFCURVE",
"37 258 OFFCURVE",
"89 261 CURVE SMOOTH",
"138 265 OFFCURVE",
"177 240 OFFCURVE",
"208 204 CURVE",
"264 237 OFFCURVE",
"287 271 OFFCURVE",
"284 316 CURVE SMOOTH",
"283 339 OFFCURVE",
"271 353 OFFCURVE",
"250 352 CURVE SMOOTH",
"226 350 OFFCURVE",
"214 328 OFFCURVE",
"201 327 CURVE SMOOTH",
"190 327 OFFCURVE",
"183 340 OFFCURVE",
"182 360 CURVE SMOOTH",
"175 470 OFFCURVE",
"272 584 OFFCURVE",
"420 594 CURVE SMOOTH",
"553 603 OFFCURVE",
"651 528 OFFCURVE",
"651 399 CURVE SMOOTH",
"651 137 OFFCURVE",
"366 33 OFFCURVE",
"195 33 CURVE SMOOTH",
"80 33 OFFCURVE",
"7 80 OFFCURVE",
"2 155 CURVE SMOOTH"
);
}
);
};
layerId = "6EEA1E99-975E-4A51-9C20-45D04802F1C2";
name = "Bold Italic Jul 9 15, 12:59";
paths = (
{
closed = 1;
nodes = (
"215 403 LINE SMOOTH",
"203 398 OFFCURVE",
"197 383 OFFCURVE",
"203 371 CURVE SMOOTH",
"214 348 LINE SMOOTH",
"221 333 OFFCURVE",
"236 328 OFFCURVE",
"249 334 CURVE SMOOTH",
"541 457 LINE SMOOTH",
"553 462 OFFCURVE",
"559 476 OFFCURVE",
"553 490 CURVE SMOOTH",
"543 513 LINE SMOOTH",
"535 525 OFFCURVE",
"521 532 OFFCURVE",
"507 525 CURVE SMOOTH"
);
},
{
closed = 1;
nodes = (
"144 205 LINE",
"103 -118 OFFCURVE",
"234 -274 OFFCURVE",
"400 -274 CURVE SMOOTH",
"527 -274 OFFCURVE",
"617 -180 OFFCURVE",
"617 -21 CURVE SMOOTH",
"617 40 OFFCURVE",
"594 79 OFFCURVE",
"576 79 CURVE SMOOTH",
"562 79 OFFCURVE",
"523 19 OFFCURVE",
"445 19 CURVE SMOOTH",
"320 19 OFFCURVE",
"254 60 OFFCURVE",
"188 205 CURVE"
);
},
{
closed = 1;
nodes = (
"376 478 OFFCURVE",
"354 493 OFFCURVE",
"356 513 CURVE SMOOTH",
"361 553 OFFCURVE",
"451 576 OFFCURVE",
"526 576 CURVE SMOOTH",
"581 576 OFFCURVE",
"598 552 OFFCURVE",
"619 533 CURVE SMOOTH",
"641 513 OFFCURVE",
"684 586 OFFCURVE",
"694 664 CURVE SMOOTH",
"706 766 OFFCURVE",
"618 839 OFFCURVE",
"484 839 CURVE SMOOTH",
"301 839 OFFCURVE",
"164 746 OFFCURVE",
"147 612 CURVE SMOOTH",
"138 533 OFFCURVE",
"180 478 OFFCURVE",
"302 413 CURVE SMOOTH",
"347 389 OFFCURVE",
"366 355 OFFCURVE",
"363 333 CURVE SMOOTH",
"356 276 OFFCURVE",
"292 268 OFFCURVE",
"200 268 CURVE",
"190 332 OFFCURVE",
"147 394 OFFCURVE",
"78 394 CURVE SMOOTH",
"41 394 OFFCURVE",
"-10 361 OFFCURVE",
"9 270 CURVE SMOOTH",
"32 159 OFFCURVE",
"119 88 OFFCURVE",
"293 88 CURVE SMOOTH",
"475 88 OFFCURVE",
"578 151 OFFCURVE",
"598 248 CURVE SMOOTH",
"618 346 OFFCURVE",
"565 391 OFFCURVE",
"460 439 CURVE SMOOTH"
);
}
);
width = 748;
},
{
associatedMasterId = "FF8CB9F1-2B98-444C-A502-96421F2531A8";
background = {
paths = (
{
closed = 1;
nodes = (
"189 403 LINE SMOOTH",
"175 397 OFFCURVE",
"167 383 OFFCURVE",
"175 371 CURVE SMOOTH",
"188 348 LINE SMOOTH",
"196 333 OFFCURVE",
"214 327 OFFCURVE",
"230 334 CURVE SMOOTH",
"527 457 LINE SMOOTH",
"541 463 OFFCURVE",
"548 476 OFFCURVE",
"541 490 CURVE SMOOTH",
"529 513 LINE SMOOTH",
"520 525 OFFCURVE",
"503 532 OFFCURVE",
"486 525 CURVE SMOOTH"
);
},
{
closed = 1;
nodes = (
"104 205 LINE",
"55 -118 OFFCURVE",
"212 -274 OFFCURVE",
"410 -274 CURVE SMOOTH",
"562 -274 OFFCURVE",
"670 -180 OFFCURVE",
"670 -21 CURVE SMOOTH",
"670 40 OFFCURVE",
"642 79 OFFCURVE",
"621 79 CURVE SMOOTH",
"604 79 OFFCURVE",
"557 19 OFFCURVE",
"441 19 CURVE SMOOTH",
"315 19 OFFCURVE",
"236 60 OFFCURVE",
"157 205 CURVE"
);
},
{
closed = 1;
nodes = (
"381 478 OFFCURVE",
"355 493 OFFCURVE",
"358 513 CURVE SMOOTH",
"364 553 OFFCURVE",
"419 576 OFFCURVE",
"509 576 CURVE SMOOTH",
"575 576 OFFCURVE",
"595 552 OFFCURVE",
"620 533 CURVE SMOOTH",
"647 513 OFFCURVE",
"698 586 OFFCURVE",
"709 664 CURVE SMOOTH",
"724 766 OFFCURVE",
"619 839 OFFCURVE",
"459 839 CURVE SMOOTH",
"240 839 OFFCURVE",
"128 746 OFFCURVE",
"108 612 CURVE SMOOTH",
"97 533 OFFCURVE",
"147 478 OFFCURVE",
"293 413 CURVE SMOOTH",
"346 389 OFFCURVE",
"370 355 OFFCURVE",
"366 333 CURVE SMOOTH",
"358 276 OFFCURVE",
"281 268 OFFCURVE",
"171 268 CURVE",
"159 332 OFFCURVE",
"108 394 OFFCURVE",
"25 394 CURVE SMOOTH",
"-19 394 OFFCURVE",
"-80 361 OFFCURVE",
"-57 270 CURVE SMOOTH",
"-30 159 OFFCURVE",
"74 88 OFFCURVE",
"283 88 CURVE SMOOTH",
"500 88 OFFCURVE",
"623 151 OFFCURVE",
"647 248 CURVE SMOOTH",
"671 346 OFFCURVE",
"607 391 OFFCURVE",
"482 439 CURVE SMOOTH"
);
}
);
};
layerId = "BF5B68A1-A93C-43B0-9A6C-B133D9384F5C";
name = "Bold Italic Jul 9 15, 13:45";
paths = (
{
closed = 1;
nodes = (
"360 452 LINE",
"181 452 LINE SMOOTH",
"140 452 OFFCURVE",
"122 421 OFFCURVE",
"145 398 CURVE SMOOTH",
"194 349 LINE SMOOTH",
"213 330 OFFCURVE",
"238 313 OFFCURVE",
"281 338 CURVE SMOOTH",
"410 410 LINE",
"562 437 LINE SMOOTH",
"584 441 OFFCURVE",
"594 466 OFFCURVE",
"583 488 CURVE SMOOTH",
"565 523 LINE SMOOTH",
"555 543 OFFCURVE",
"522 556 OFFCURVE",
"499 541 CURVE SMOOTH"
);
},
{
closed = 1;
nodes = (
"104 205 LINE",
"55 -118 OFFCURVE",
"212 -274 OFFCURVE",
"410 -274 CURVE SMOOTH",
"562 -274 OFFCURVE",
"670 -180 OFFCURVE",
"670 -21 CURVE SMOOTH",
"670 40 OFFCURVE",
"642 79 OFFCURVE",
"621 79 CURVE SMOOTH",
"604 79 OFFCURVE",
"557 19 OFFCURVE",
"441 19 CURVE SMOOTH",
"315 19 OFFCURVE",
"236 60 OFFCURVE",
"157 205 CURVE"
);
},
{
closed = 1;
nodes = (
"335 467 OFFCURVE",
"355 493 OFFCURVE",
"358 513 CURVE SMOOTH",
"364 553 OFFCURVE",
"419 576 OFFCURVE",
"509 576 CURVE SMOOTH",
"575 576 OFFCURVE",
"595 552 OFFCURVE",
"620 533 CURVE SMOOTH",
"647 513 OFFCURVE",
"698 586 OFFCURVE",
"709 664 CURVE SMOOTH",
"724 766 OFFCURVE",
"619 839 OFFCURVE",
"459 839 CURVE SMOOTH",
"240 839 OFFCURVE",
"144 756 OFFCURVE",
"120 659 CURVE SMOOTH",
"89 535 OFFCURVE",
"233 465 OFFCURVE",
"332 433 CURVE SMOOTH",
"373 420 OFFCURVE",
"393 391 OFFCURVE",
"393 363 CURVE SMOOTH",
"393 317 OFFCURVE",
"350 268 OFFCURVE",
"171 268 CURVE",
"159 332 OFFCURVE",
"108 394 OFFCURVE",
"25 394 CURVE SMOOTH",
"-7 394 OFFCURVE",
"-48 377 OFFCURVE",
"-59 332 CURVE SMOOTH",
"-85 223 OFFCURVE",
"15 88 OFFCURVE",
"320 88 CURVE SMOOTH",
"522 88 OFFCURVE",
"643 160 OFFCURVE",
"643 240 CURVE SMOOTH",
"643 317 OFFCURVE",
"656 382 OFFCURVE",
"440 439 CURVE SMOOTH"
);
}
);
width = 748;
},
{
associatedMasterId = "FF8CB9F1-2B98-444C-A502-96421F2531A8";
background = {
paths = (
{
closed = 1;
nodes = (
"391 462 LINE",
"378 473 OFFCURVE",
"361 492 OFFCURVE",
"362 517 CURVE SMOOTH",
"365 567 OFFCURVE",
"405 598 OFFCURVE",
"472 598 CURVE SMOOTH",
"566 598 OFFCURVE",
"609 550 OFFCURVE",
"648 550 CURVE SMOOTH",
"663 550 OFFCURVE",
"684 568 OFFCURVE",
"684 610 CURVE SMOOTH",
"684 718 OFFCURVE",
"586 839 OFFCURVE",
"410 839 CURVE SMOOTH",
"218 839 OFFCURVE",
"147 720 OFFCURVE",
"147 618 CURVE SMOOTH",
"147 546 OFFCURVE",
"208 474 OFFCURVE",
"284 437 CURVE"
);
},
{
closed = 1;
nodes = (
"336 270 LINE",
"318 258 OFFCURVE",
"293 250 OFFCURVE",
"258 250 CURVE SMOOTH",
"94 250 OFFCURVE",
"66 338 OFFCURVE",
"36 338 CURVE SMOOTH",
"11 338 OFFCURVE",
"-45 285 OFFCURVE",
"-50 208 CURVE SMOOTH",
"-56 83 OFFCURVE",
"84 -9 OFFCURVE",
"282 -9 CURVE SMOOTH",
"424 -9 OFFCURVE",
"533 34 OFFCURVE",
"592 101 CURVE"
);
},
{
closed = 1;
nodes = (
"497 543 OFFCURVE",
"475 539 OFFCURVE",
"436 520 CURVE SMOOTH",
"334 469 LINE",
"129 469 LINE SMOOTH",
"81 469 OFFCURVE",
"69 445 OFFCURVE",
"68 426 CURVE SMOOTH",
"65 383 OFFCURVE",
"151 333 OFFCURVE",
"211 333 CURVE SMOOTH",
"238 333 OFFCURVE",
"273 348 OFFCURVE",
"396 411 CURVE",
"548 411 LINE SMOOTH",
"605 411 OFFCURVE",
"615 433 OFFCURVE",
"616 452 CURVE SMOOTH",
"618 488 OFFCURVE",
"557 543 OFFCURVE",
"515 543 CURVE SMOOTH"
);
},
{
closed = 1;
nodes = (
"592 101 LINE",
"621 134 OFFCURVE",
"638 174 OFFCURVE",
"640 217 CURVE SMOOTH",
"645 317 OFFCURVE",
"535 391 OFFCURVE",
"407 434 CURVE",
"297 409 LINE",
"341 383 OFFCURVE",
"365 359 OFFCURVE",
"363 321 CURVE SMOOTH",
"362 301 OFFCURVE",
"353 283 OFFCURVE",
"336 270 CURVE"
);
}
);
};
layerId = "A68FCECA-D044-4748-B121-47B458F60821";
name = "Bold Italic Jul 9 15, 16:21";
paths = (
{
closed = 1;
nodes = (
"104 111 LINE",
"104 -191 OFFCURVE",
"268 -368 OFFCURVE",
"465 -368 CURVE SMOOTH",
"580 -368 OFFCURVE",
"670 -274 OFFCURVE",
"670 -115 CURVE SMOOTH",
"670 -54 OFFCURVE",
"642 -15 OFFCURVE",
"621 -15 CURVE SMOOTH",
"604 -15 OFFCURVE",
"557 -75 OFFCURVE",
"441 -75 CURVE SMOOTH",
"315 -75 OFFCURVE",
"236 -34 OFFCURVE",
"157 111 CURVE"
);
},
{
closed = 1;
nodes = (
"336 270 LINE",
"303 265 OFFCURVE",
"202 213 OFFCURVE",
"131 252 CURVE",
"113 307 OFFCURVE",
"96 339 OFFCURVE",
"35 339 CURVE SMOOTH",
"3 339 OFFCURVE",
"-18 322 OFFCURVE",
"-29 277 CURVE SMOOTH",
"-55 168 OFFCURVE",
"15 -6 OFFCURVE",
"258 -6 CURVE SMOOTH",
"348 -6 OFFCURVE",
"468 0 OFFCURVE",
"580 97 CURVE"
);
},
{
closed = 1;
nodes = (
"391 462 LINE",
"378 473 OFFCURVE",
"361 492 OFFCURVE",
"362 517 CURVE SMOOTH",
"365 567 OFFCURVE",
"405 598 OFFCURVE",
"472 598 CURVE SMOOTH",
"566 598 OFFCURVE",
"609 550 OFFCURVE",
"648 550 CURVE SMOOTH",
"663 550 OFFCURVE",
"684 568 OFFCURVE",
"684 610 CURVE SMOOTH",
"684 718 OFFCURVE",
"586 839 OFFCURVE",
"410 839 CURVE SMOOTH",
"218 839 OFFCURVE",
"147 720 OFFCURVE",
"147 618 CURVE SMOOTH",
"147 546 OFFCURVE",
"208 474 OFFCURVE",
"284 437 CURVE"
);
},
{
closed = 1;
nodes = (
"497 543 OFFCURVE",
"475 539 OFFCURVE",
"436 520 CURVE SMOOTH",
"334 469 LINE",
"129 469 LINE SMOOTH",
"81 469 OFFCURVE",
"69 445 OFFCURVE",
"68 426 CURVE SMOOTH",
"65 383 OFFCURVE",
"151 333 OFFCURVE",
"211 333 CURVE SMOOTH",
"238 333 OFFCURVE",
"273 348 OFFCURVE",
"396 411 CURVE",
"548 411 LINE SMOOTH",
"605 411 OFFCURVE",
"615 433 OFFCURVE",
"616 452 CURVE SMOOTH",
"618 488 OFFCURVE",
"557 543 OFFCURVE",
"515 543 CURVE SMOOTH"
);
},
{
closed = 1;
nodes = (
"592 101 LINE",
"621 134 OFFCURVE",
"638 174 OFFCURVE",
"640 217 CURVE SMOOTH",
"645 317 OFFCURVE",
"535 391 OFFCURVE",
"407 434 CURVE",
"297 409 LINE",
"341 383 OFFCURVE",
"365 359 OFFCURVE",
"363 321 CURVE SMOOTH",
"362 301 OFFCURVE",
"353 283 OFFCURVE",
"336 270 CURVE"
);
}
);
width = 748;
}
);
unicode = 0AAB;
},
{
glyphname = gjBA;
lastChange = "2015-07-13 12:56:53 +0000";
layers = (
{
background = {
components = (
{
name = gjmAA;
transform = "{1, 0, 0, 1, 661, 0}";
}
);
paths = (
{
closed = 1;
nodes = (
"762 499 OFFCURVE",
"730 479 OFFCURVE",
"686 479 CURVE",
"532 419 LINE",
"605 360 OFFCURVE",
"689 327 OFFCURVE",
"780 327 CURVE",
"780 557 LINE"
);
},
{
closed = 1;
nodes = (
"396 384 OFFCURVE",
"354 426 OFFCURVE",
"354 511 CURVE SMOOTH",
"354 674 OFFCURVE",
"461 755 OFFCURVE",
"577 755 CURVE SMOOTH",
"592 755 OFFCURVE",
"598 759 OFFCURVE",
"598 772 CURVE SMOOTH",
"598 808 OFFCURVE",
"533 876 OFFCURVE",
"389 876 CURVE SMOOTH",
"163 876 OFFCURVE",
"3 709 OFFCURVE",
"3 476 CURVE SMOOTH",
"3 267 OFFCURVE",
"164 170 OFFCURVE",
"333 170 CURVE SMOOTH",
"539 170 OFFCURVE",
"689 324 OFFCURVE",
"689 500 CURVE SMOOTH",
"689 607 OFFCURVE",
"636 664 OFFCURVE",
"566 664 CURVE SMOOTH",
"506 664 OFFCURVE",
"466 619 OFFCURVE",
"466 548 CURVE SMOOTH",
"466 492 OFFCURVE",
"485 460 OFFCURVE",
"521 419 CURVE",
"501 398 OFFCURVE",
"473 384 OFFCURVE",
"443 384 CURVE SMOOTH"
);
}
);
};
components = (
{
name = gjmAA;
transform = "{1, 0, 0, 1, 661, 0}";
}
);
layerId = "FF8CB9F1-2B98-444C-A502-96421F2531A8";
rightMetricsKey = gjPA;
name = "Bold Italic";
paths = (
{
closed = 1;
nodes = (
"762 499 OFFCURVE",
"730 479 OFFCURVE",
"686 479 CURVE",
"532 419 LINE",
"605 360 OFFCURVE",
"689 327 OFFCURVE",
"780 327 CURVE",
"780 557 LINE"
);
},
{
closed = 1;
nodes = (
"396 372 OFFCURVE",
"354 412 OFFCURVE",
"354 493 CURVE SMOOTH",
"354 647 OFFCURVE",
"461 709 OFFCURVE",
"577 709 CURVE SMOOTH",
"592 709 OFFCURVE",
"598 716 OFFCURVE",
"598 729 CURVE SMOOTH",
"598 770 OFFCURVE",
"533 837 OFFCURVE",
"389 837 CURVE SMOOTH",
"163 837 OFFCURVE",
"3 679 OFFCURVE",
"3 459 CURVE SMOOTH",
"3 261 OFFCURVE",
"164 170 OFFCURVE",
"333 170 CURVE SMOOTH",
"539 170 OFFCURVE",
"689 315 OFFCURVE",
"689 481 CURVE SMOOTH",
"689 583 OFFCURVE",
"636 636 OFFCURVE",
"566 636 CURVE SMOOTH",
"506 636 OFFCURVE",
"466 594 OFFCURVE",
"466 527 CURVE SMOOTH",
"466 474 OFFCURVE",
"485 444 OFFCURVE",
"521 405 CURVE",
"501 385 OFFCURVE",
"473 372 OFFCURVE",
"443 372 CURVE SMOOTH"
);
}
);
width = 1229;
}
);
rightMetricsKey = gjmAA;
unicode = 0AAC;
},
{
glyphname = gjBHA;
lastChange = "2015-07-13 12:49:55 +0000";
layers = (
{
background = {
paths = (
{
closed = 1;
nodes = (
"205 864 OFFCURVE",
"-22 561 OFFCURVE",
"-22 315 CURVE SMOOTH",
"-22 110 OFFCURVE",
"128 -12 OFFCURVE",
"324 -12 CURVE SMOOTH",
"560 -12 OFFCURVE",
"730 128 OFFCURVE",
"730 213 CURVE SMOOTH",
"730 237 OFFCURVE",
"711 249 OFFCURVE",
"687 249 CURVE SMOOTH",
"658 249 OFFCURVE",
"599 236 OFFCURVE",
"513 236 CURVE SMOOTH",
"387 236 OFFCURVE",
"274 308 OFFCURVE",
"274 430 CURVE SMOOTH",
"274 620 OFFCURVE",
"397 750 OFFCURVE",
"477 750 CURVE SMOOTH",
"525 750 OFFCURVE",
"512 716 OFFCURVE",
"499 672 CURVE SMOOTH",
"476 597 LINE",
"425 595 OFFCURVE",
"383 550 OFFCURVE",
"371 514 CURVE SMOOTH",
"343 427 OFFCURVE",
"500 337 OFFCURVE",
"628 337 CURVE SMOOTH",
"734 337 OFFCURVE",
"791 422 OFFCURVE",
"822 533 CURVE SMOOTH",
"878 732 OFFCURVE",
"750 864 OFFCURVE",
"517 864 CURVE"
);
},
{
closed = 1;
nodes = (
"872 379 LINE",
"842 287 OFFCURVE",
"830 234 OFFCURVE",
"830 186 CURVE SMOOTH",
"830 85 OFFCURVE",
"889 -4 OFFCURVE",
"1049 -4 CURVE SMOOTH",
"1189 -4 OFFCURVE",
"1282 98 OFFCURVE",
"1282 184 CURVE SMOOTH",
"1282 202 OFFCURVE",
"1276 220 OFFCURVE",
"1265 220 CURVE SMOOTH",
"1252 220 OFFCURVE",
"1244 187 OFFCURVE",
"1214 187 CURVE SMOOTH",
"1196 187 OFFCURVE",
"1188 203 OFFCURVE",
"1196 229 CURVE SMOOTH",
"1350 733 LINE SMOOTH",
"1355 750 OFFCURVE",
"1358 766 OFFCURVE",
"1358 779 CURVE SMOOTH",
"1358 809 OFFCURVE",
"1345 844 OFFCURVE",
"1262 844 CURVE SMOOTH",
"1189 844 OFFCURVE",
"1108 821 OFFCURVE",
"997 774 CURVE"
);
},
{
closed = 1;
nodes = (
"691 476 LINE",
"1033 476 LINE",
"1033 598 LINE",
"691 598 LINE"
);
}
);
};
components = (
{
name = gjmAA;
transform = "{1, 0, 0, 1, 810, 0}";
}
);
guideLines = (
{
angle = 72.4397;
position = "{1437, 774}";
}
);
layerId = "FF8CB9F1-2B98-444C-A502-96421F2531A8";
rightMetricsKey = gjPA;
name = "Bold Italic";
paths = (
{
closed = 1;
nodes = (
"205 864 OFFCURVE",
"-22 561 OFFCURVE",
"-22 315 CURVE SMOOTH",
"-22 110 OFFCURVE",
"128 -12 OFFCURVE",
"324 -12 CURVE SMOOTH",
"560 -12 OFFCURVE",
"730 128 OFFCURVE",
"730 213 CURVE SMOOTH",
"730 237 OFFCURVE",
"711 249 OFFCURVE",
"687 249 CURVE SMOOTH",
"658 249 OFFCURVE",
"599 236 OFFCURVE",
"513 236 CURVE SMOOTH",
"387 236 OFFCURVE",
"274 308 OFFCURVE",
"274 430 CURVE SMOOTH",
"274 620 OFFCURVE",
"397 750 OFFCURVE",
"477 750 CURVE SMOOTH",
"525 750 OFFCURVE",
"512 716 OFFCURVE",
"499 672 CURVE SMOOTH",
"476 597 LINE",
"425 595 OFFCURVE",
"383 550 OFFCURVE",
"371 514 CURVE SMOOTH",
"343 427 OFFCURVE",
"500 337 OFFCURVE",
"628 337 CURVE SMOOTH",
"734 337 OFFCURVE",
"791 422 OFFCURVE",
"822 533 CURVE SMOOTH",
"878 732 OFFCURVE",
"750 864 OFFCURVE",
"517 864 CURVE"
);
},
{
closed = 1;
nodes = (
"691 598 LINE",
"691 476 LINE",
"1033 476 LINE",
"1033 598 LINE"
);
}
);
width = 1378;
},
{
associatedMasterId = "FF8CB9F1-2B98-444C-A502-96421F2531A8";
background = {
paths = (
{
closed = 1;
nodes = (
"792 379 LINE",
"762 287 OFFCURVE",
"750 234 OFFCURVE",
"750 186 CURVE SMOOTH",
"750 85 OFFCURVE",
"809 -4 OFFCURVE",
"969 -4 CURVE SMOOTH",
"1109 -4 OFFCURVE",
"1202 98 OFFCURVE",
"1202 184 CURVE SMOOTH",
"1202 202 OFFCURVE",
"1196 220 OFFCURVE",
"1185 220 CURVE SMOOTH",
"1172 220 OFFCURVE",
"1164 187 OFFCURVE",
"1134 187 CURVE SMOOTH",
"1116 187 OFFCURVE",
"1108 203 OFFCURVE",
"1116 229 CURVE SMOOTH",
"1270 733 LINE SMOOTH",
"1275 750 OFFCURVE",
"1278 766 OFFCURVE",
"1278 779 CURVE SMOOTH",
"1278 809 OFFCURVE",
"1265 844 OFFCURVE",
"1182 844 CURVE SMOOTH",
"1109 844 OFFCURVE",
"1028 821 OFFCURVE",
"917 774 CURVE"
);
},
{
closed = 1;
nodes = (
"579 322 LINE",
"921 322 LINE",
"921 444 LINE",
"579 444 LINE"
);
},
{
closed = 1;
nodes = (
"227 853 OFFCURVE",
"-11 630 OFFCURVE",
"-11 349 CURVE SMOOTH",
"-11 89 OFFCURVE",
"328 -58 OFFCURVE",
"328 30 CURVE SMOOTH",
"328 88 OFFCURVE",
"147 131 OFFCURVE",
"147 320 CURVE SMOOTH",
"147 500 OFFCURVE",
"287 632 OFFCURVE",
"378 632 CURVE SMOOTH",
"391 632 OFFCURVE",
"405 623 OFFCURVE",
"400 608 CURVE SMOOTH",
"347 444 LINE",
"328 444 LINE SMOOTH",
"278 444 OFFCURVE",
"247 426 OFFCURVE",
"247 355 CURVE SMOOTH",
"247 236 OFFCURVE",
"383 133 OFFCURVE",
"495 133 CURVE SMOOTH",
"584 133 OFFCURVE",
"631 176 OFFCURVE",
"661 275 CURVE SMOOTH",
"751 569 LINE SMOOTH",
"796 716 OFFCURVE",
"747 853 OFFCURVE",
"523 853 CURVE SMOOTH"
);
}
);
};
backgroundImage = {
crop = "{{0, 0}, {720, 636}}";
imagePath = ../../Pashu/Gujarati/Reference/Pashu_BHA.png;
locked = 1;
transform = "{1.900, 0, 0, 1.900, -100, -154}";
};
layerId = "2223BC3A-F2DD-41D4-8DA3-4DB00D5535B6";
rightMetricsKey = "=pa-gujarati";
name = "Regular May 28 15, 16:49";
paths = (
{
closed = 1;
nodes = (
"792 379 LINE",
"762 287 OFFCURVE",
"750 234 OFFCURVE",
"750 186 CURVE SMOOTH",
"750 85 OFFCURVE",
"809 -4 OFFCURVE",
"969 -4 CURVE SMOOTH",
"1109 -4 OFFCURVE",
"1202 98 OFFCURVE",
"1202 184 CURVE SMOOTH",
"1202 202 OFFCURVE",
"1196 220 OFFCURVE",
"1185 220 CURVE SMOOTH",
"1172 220 OFFCURVE",
"1164 187 OFFCURVE",
"1134 187 CURVE SMOOTH",
"1116 187 OFFCURVE",
"1108 203 OFFCURVE",
"1116 229 CURVE SMOOTH",
"1270 733 LINE SMOOTH",
"1275 750 OFFCURVE",
"1278 766 OFFCURVE",
"1278 779 CURVE SMOOTH",
"1278 809 OFFCURVE",
"1265 844 OFFCURVE",
"1182 844 CURVE SMOOTH",
"1109 844 OFFCURVE",
"1028 821 OFFCURVE",
"917 774 CURVE"
);
},
{
closed = 1;
nodes = (
"579 322 LINE",
"921 322 LINE",
"921 444 LINE",
"579 444 LINE"
);
},
{
closed = 1;
nodes = (
"214 853 OFFCURVE",
"-11 658 OFFCURVE",
"-11 366 CURVE SMOOTH",
"-11 112 OFFCURVE",
"150 8 OFFCURVE",
"289 8 CURVE SMOOTH",
"341 8 OFFCURVE",
"378 18 OFFCURVE",
"378 42 CURVE SMOOTH",
"378 84 OFFCURVE",
"177 89 OFFCURVE",
"177 340 CURVE SMOOTH",
"177 520 OFFCURVE",
"282 615 OFFCURVE",
"373 615 CURVE SMOOTH",
"386 615 OFFCURVE",
"400 606 OFFCURVE",
"395 591 CURVE SMOOTH",
"347 444 LINE",
"328 444 LINE SMOOTH",
"278 444 OFFCURVE",
"247 426 OFFCURVE",
"247 355 CURVE SMOOTH",
"247 236 OFFCURVE",
"383 133 OFFCURVE",
"495 133 CURVE SMOOTH",
"584 133 OFFCURVE",
"630 175 OFFCURVE",
"661 275 CURVE SMOOTH",
"751 569 LINE SMOOTH",
"796 715 OFFCURVE",
"747 853 OFFCURVE",
"523 853 CURVE SMOOTH"
);
}
);
width = 1298;
}
);
rightMetricsKey = "pa-gujarati";
unicode = 0AAD;
},
{
glyphname = gjMA;
lastChange = "2015-07-13 12:50:01 +0000";
layers = (
{
background = {
paths = (
{
closed = 1;
nodes = (
"112 853 OFFCURVE",
"53 773 OFFCURVE",
"53 688 CURVE SMOOTH",
"53 670 OFFCURVE",
"59 652 OFFCURVE",
"70 652 CURVE SMOOTH",
"83 652 OFFCURVE",
"90 684 OFFCURVE",
"120 684 CURVE SMOOTH",
"133 684 OFFCURVE",
"147 675 OFFCURVE",
"142 660 CURVE SMOOTH",
"63 401 LINE",
"44 401 LINE SMOOTH",
"-6 401 OFFCURVE",
"-37 383 OFFCURVE",
"-37 312 CURVE SMOOTH",
"-37 193 OFFCURVE",
"99 90 OFFCURVE",
"211 90 CURVE SMOOTH",
"300 90 OFFCURVE",
"346 133 OFFCURVE",
"377 232 CURVE SMOOTH",
"481 569 LINE SMOOTH",
"543 769 OFFCURVE",
"389 853 OFFCURVE",
"253 853 CURVE SMOOTH"
);
},
{
closed = 1;
nodes = (
"295 401 LINE",
"295 279 LINE",
"637 279 LINE",
"637 401 LINE"
);
}
);
};
components = (
{
name = gjmAA;
transform = "{1, 0, 0, 1, 460, 0}";
}
);
guideLines = (
{
position = "{190, 481}";
}
);
layerId = "FF8CB9F1-2B98-444C-A502-96421F2531A8";
rightMetricsKey = gjPA;
name = "Bold Italic";
paths = (
{
closed = 1;
nodes = (
"112 853 OFFCURVE",
"53 773 OFFCURVE",
"53 688 CURVE SMOOTH",
"53 670 OFFCURVE",
"59 652 OFFCURVE",
"70 652 CURVE SMOOTH",
"83 652 OFFCURVE",
"90 684 OFFCURVE",
"120 684 CURVE SMOOTH",
"133 684 OFFCURVE",
"147 675 OFFCURVE",
"142 660 CURVE SMOOTH",
"88 481 LINE",
"69 481 LINE SMOOTH",
"19 481 OFFCURVE",
"-12 463 OFFCURVE",
"-12 392 CURVE SMOOTH",
"-12 273 OFFCURVE",
"124 170 OFFCURVE",
"236 170 CURVE SMOOTH",
"325 170 OFFCURVE",
"372 213 OFFCURVE",
"402 312 CURVE SMOOTH",
"481 569 LINE SMOOTH",
"542 767 OFFCURVE",
"389 853 OFFCURVE",
"253 853 CURVE SMOOTH"
);
},
{
closed = 1;
nodes = (
"295 481 LINE",
"295 359 LINE",
"637 359 LINE",
"637 481 LINE"
);
}
);
width = 1028;
}
);
rightMetricsKey = "pa-gujarati";
unicode = 0AAE;
},
{
glyphname = gjYA;
lastChange = "2015-07-13 12:48:04 +0000";
layers = (
{
background = {
paths = (
{
closed = 1;
nodes = (
"248 809 OFFCURVE",
"300 810 OFFCURVE",
"300 782 CURVE SMOOTH",
"300 672 OFFCURVE",
"-15 679 OFFCURVE",
"-15 500 CURVE SMOOTH",
"-15 318 OFFCURVE",
"169 139 OFFCURVE",
"329 139 CURVE SMOOTH",
"490 139 OFFCURVE",
"624 254 OFFCURVE",
"678 418 CURVE",
"648 539 LINE",
"595 372 OFFCURVE",
"484 293 OFFCURVE",
"403 293 CURVE SMOOTH",
"347 293 OFFCURVE",
"312 347 OFFCURVE",
"312 385 CURVE SMOOTH",
"312 445 OFFCURVE",
"575 430 OFFCURVE",
"575 665 CURVE SMOOTH",
"575 789 OFFCURVE",
"461 879 OFFCURVE",
"342 879 CURVE SMOOTH",
"290 879 OFFCURVE",
"248 856 OFFCURVE",
"248 834 CURVE SMOOTH"
);
}
);
};
components = (
{
name = gjmAA;
transform = "{1, 0, 0, 1, 535, 0}";
}
);
guideLines = (
{
angle = 21.7185;
position = "{-2, 592}";
}
);
layerId = "FF8CB9F1-2B98-444C-A502-96421F2531A8";
rightMetricsKey = gjPA;
name = "Bold Italic";
paths = (
{
closed = 1;
nodes = (
"251 858 OFFCURVE",
"209 835 OFFCURVE",
"209 813 CURVE SMOOTH",
"209 788 OFFCURVE",
"261 789 OFFCURVE",
"261 761 CURVE SMOOTH",
"261 683 OFFCURVE",
"-15 679 OFFCURVE",
"-15 500 CURVE SMOOTH",
"-15 318 OFFCURVE",
"169 139 OFFCURVE",
"329 139 CURVE SMOOTH",
"490 139 OFFCURVE",
"624 254 OFFCURVE",
"678 418 CURVE",
"648 539 LINE",
"595 372 OFFCURVE",
"484 293 OFFCURVE",
"403 293 CURVE SMOOTH",
"347 293 OFFCURVE",
"312 347 OFFCURVE",
"312 385 CURVE SMOOTH",
"312 445 OFFCURVE",
"536 417 OFFCURVE",
"536 629 CURVE SMOOTH",
"536 753 OFFCURVE",
"422 858 OFFCURVE",
"303 858 CURVE SMOOTH"
);
}
);
width = 1103;
}
);
rightMetricsKey = gjmAA;
unicode = 0AAF;
},
{
glyphname = gjRA;
lastChange = "2015-07-10 08:27:44 +0000";
layers = (
{
associatedMasterId = "FF8CB9F1-2B98-444C-A502-96421F2531A8";
background = {
components = (
{
name = gjSHA;
transform = "{1, 0, 0, 1, 0, 0}";
}
);
};
layerId = "F6C2AD41-AE80-4BA1-B765-4DFB865920DE";
name = "Alt swoop";
paths = (
{
closed = 1;
nodes = (
"407 268 LINE",
"513 102 OFFCURVE",
"731 -38 OFFCURVE",
"853 -38 CURVE SMOOTH",
"916 -38 OFFCURVE",
"952 10 OFFCURVE",
"970 10 CURVE SMOOTH",
"985 10 OFFCURVE",
"1002 -47 OFFCURVE",
"1002 -101 CURVE SMOOTH",
"1002 -223 OFFCURVE",
"947 -331 OFFCURVE",
"767 -331 CURVE SMOOTH",
"559 -331 OFFCURVE",
"410 -94 OFFCURVE",
"295 245 CURVE"
);
},
{
closed = 1;
nodes = (
"12 372 OFFCURVE",
"67 474 OFFCURVE",
"203 406 CURVE",
"303 485 OFFCURVE",
"349 553 OFFCURVE",
"349 642 CURVE SMOOTH",
"349 678 OFFCURVE",
"340 684 OFFCURVE",
"327 684 CURVE SMOOTH",
"297 684 OFFCURVE",
"290 652 OFFCURVE",
"277 652 CURVE SMOOTH",
"266 652 OFFCURVE",
"260 670 OFFCURVE",
"260 688 CURVE SMOOTH",
"260 773 OFFCURVE",
"319 853 OFFCURVE",
"460 853 CURVE SMOOTH",
"596 853 OFFCURVE",
"698 746 OFFCURVE",
"698 621 CURVE SMOOTH",
"698 418 OFFCURVE",
"440 67 OFFCURVE",
"225 67 CURVE SMOOTH",
"127 67 OFFCURVE",
"12 132 OFFCURVE",
"12 267 CURVE SMOOTH"
);
}
);
width = 651;
},
{
background = {
paths = (
{
closed = 1;
nodes = (
"205 374 LINE",
"260 274 OFFCURVE",
"314 241 OFFCURVE",
"396 241 CURVE SMOOTH",
"502 241 OFFCURVE",
"509 339 OFFCURVE",
"540 339 CURVE SMOOTH",
"565 339 OFFCURVE",
"616 274 OFFCURVE",
"616 202 CURVE SMOOTH",
"616 96 OFFCURVE",
"535 -12 OFFCURVE",
"386 -12 CURVE SMOOTH",
"164 -12 OFFCURVE",
"87 180 OFFCURVE",
"138 374 CURVE"
);
},
{
closed = 1;
nodes = (
"-38 471 OFFCURVE",
"1 518 OFFCURVE",
"53 521 CURVE SMOOTH",
"102 525 OFFCURVE",
"141 500 OFFCURVE",
"172 464 CURVE",
"228 497 OFFCURVE",
"251 531 OFFCURVE",
"248 576 CURVE SMOOTH",
"247 599 OFFCURVE",
"235 613 OFFCURVE",
"214 612 CURVE SMOOTH",
"190 610 OFFCURVE",
"178 588 OFFCURVE",
"165 587 CURVE SMOOTH",
"154 587 OFFCURVE",
"147 600 OFFCURVE",
"146 620 CURVE SMOOTH",
"139 730 OFFCURVE",
"236 844 OFFCURVE",
"384 854 CURVE SMOOTH",
"517 863 OFFCURVE",
"608 788 OFFCURVE",
"615 683 CURVE SMOOTH",
"628 490 OFFCURVE",
"436 311 OFFCURVE",
"189 294 CURVE SMOOTH",
"57 285 OFFCURVE",
"-29 334 OFFCURVE",
"-34 415 CURVE SMOOTH"
);
}
);
};
layerId = "FF8CB9F1-2B98-444C-A502-96421F2531A8";
name = "Bold Italic";
paths = (
{
closed = 1;
nodes = (
"236 844 OFFCURVE",
"139 730 OFFCURVE",
"146 620 CURVE SMOOTH",
"147 600 OFFCURVE",
"154 587 OFFCURVE",
"165 587 CURVE SMOOTH",
"178 588 OFFCURVE",
"190 610 OFFCURVE",
"214 612 CURVE SMOOTH",
"235 613 OFFCURVE",
"247 599 OFFCURVE",
"248 576 CURVE SMOOTH",
"251 531 OFFCURVE",
"228 497 OFFCURVE",
"172 464 CURVE",
"141 500 OFFCURVE",
"102 525 OFFCURVE",
"53 521 CURVE SMOOTH",
"1 518 OFFCURVE",
"-38 471 OFFCURVE",
"-34 415 CURVE SMOOTH",
"-29 340 OFFCURVE",
"44 293 OFFCURVE",
"159 293 CURVE SMOOTH",
"330 293 OFFCURVE",
"615 397 OFFCURVE",
"615 659 CURVE SMOOTH",
"615 788 OFFCURVE",
"517 863 OFFCURVE",
"384 854 CURVE SMOOTH"
);
},
{
closed = 1;
nodes = (
"138 374 LINE",
"87 180 OFFCURVE",
"164 -12 OFFCURVE",
"386 -12 CURVE SMOOTH",
"535 -12 OFFCURVE",
"616 96 OFFCURVE",
"616 202 CURVE SMOOTH",
"616 289 OFFCURVE",
"565 339 OFFCURVE",
"540 339 CURVE SMOOTH",
"509 339 OFFCURVE",
"502 241 OFFCURVE",
"396 241 CURVE SMOOTH",
"303 241 OFFCURVE",
"238 285 OFFCURVE",
"205 374 CURVE"
);
}
);
width = 660;
},
{
associatedMasterId = "FF8CB9F1-2B98-444C-A502-96421F2531A8";
background = {
paths = (
{
closed = 1;
nodes = (
"218 374 LINE",
"273 274 OFFCURVE",
"327 241 OFFCURVE",
"409 241 CURVE SMOOTH",
"515 241 OFFCURVE",
"522 339 OFFCURVE",
"553 339 CURVE SMOOTH",
"578 339 OFFCURVE",
"629 289 OFFCURVE",
"629 202 CURVE SMOOTH",
"629 83 OFFCURVE",
"548 -12 OFFCURVE",
"401 -12 CURVE SMOOTH",
"254 -12 OFFCURVE",
"145 82 OFFCURVE",
"145 249 CURVE SMOOTH",
"145 287 OFFCURVE",
"151 329 OFFCURVE",
"163 374 CURVE"
);
},
{
closed = 1;
nodes = (
"21 471 OFFCURVE",
"53 505 OFFCURVE",
"97 505 CURVE SMOOTH",
"129 505 OFFCURVE",
"153 491 OFFCURVE",
"182 454 CURVE",
"240 483 OFFCURVE",
"266 540 OFFCURVE",
"266 585 CURVE SMOOTH",
"266 608 OFFCURVE",
"255 623 OFFCURVE",
"234 623 CURVE SMOOTH",
"210 623 OFFCURVE",
"197 602 OFFCURVE",
"184 602 CURVE SMOOTH",
"173 602 OFFCURVE",
"167 616 OFFCURVE",
"167 636 CURVE SMOOTH",
"167 746 OFFCURVE",
"272 853 OFFCURVE",
"420 853 CURVE SMOOTH",
"554 853 OFFCURVE",
"639 772 OFFCURVE",
"639 656 CURVE SMOOTH",
"639 464 OFFCURVE",
"477 294 OFFCURVE",
"181 294 CURVE SMOOTH",
"83 294 OFFCURVE",
"21 347 OFFCURVE",
"21 416 CURVE SMOOTH"
);
}
);
};
layerId = "1D6F589A-96C9-452B-8EEA-4A5418F707F7";
name = "knot size";
paths = (
{
closed = 1;
nodes = (
"218 383 OFFCURVE",
"223 416 OFFCURVE",
"203 458 CURVE SMOOTH",
"161 546 OFFCURVE",
"85 558 OFFCURVE",
"31 533 CURVE SMOOTH",
"-25 506 OFFCURVE",
"-42 453 OFFCURVE",
"-12 390 CURVE SMOOTH",
"17 331 OFFCURVE",
"66 283 OFFCURVE",
"127 249 CURVE",
"214 354 LINE"
);
}
);
width = 620;
},
{
associatedMasterId = "FF8CB9F1-2B98-444C-A502-96421F2531A8";
background = {
paths = (
{
closed = 1;
nodes = (
"198 374 LINE",
"253 274 OFFCURVE",
"307 241 OFFCURVE",
"389 241 CURVE SMOOTH",
"495 241 OFFCURVE",
"502 339 OFFCURVE",
"533 339 CURVE SMOOTH",
"558 339 OFFCURVE",
"609 289 OFFCURVE",
"609 202 CURVE SMOOTH",
"609 83 OFFCURVE",
"528 -12 OFFCURVE",
"381 -12 CURVE SMOOTH",
"234 -12 OFFCURVE",
"125 82 OFFCURVE",
"125 249 CURVE SMOOTH",
"125 287 OFFCURVE",
"131 329 OFFCURVE",
"143 374 CURVE"
);
},
{
closed = 1;
nodes = (
"1 471 OFFCURVE",
"33 505 OFFCURVE",
"77 505 CURVE SMOOTH",
"109 505 OFFCURVE",
"133 491 OFFCURVE",
"162 454 CURVE",
"220 483 OFFCURVE",
"246 540 OFFCURVE",
"246 585 CURVE SMOOTH",
"246 608 OFFCURVE",
"235 623 OFFCURVE",
"214 623 CURVE SMOOTH",
"190 623 OFFCURVE",
"177 602 OFFCURVE",
"164 602 CURVE SMOOTH",
"153 602 OFFCURVE",
"147 616 OFFCURVE",
"147 636 CURVE SMOOTH",
"147 746 OFFCURVE",
"252 853 OFFCURVE",
"400 853 CURVE SMOOTH",
"534 853 OFFCURVE",
"619 772 OFFCURVE",
"619 656 CURVE SMOOTH",
"619 464 OFFCURVE",
"457 294 OFFCURVE",
"161 294 CURVE SMOOTH",
"63 294 OFFCURVE",
"1 347 OFFCURVE",
"1 416 CURVE SMOOTH"
);
}
);
};
layerId = "40C154D9-50BC-41A1-9848-AD35A9B56C9B";
name = "orginal reduc";
paths = (
{
closed = 1;
nodes = (
"198 374 LINE",
"253 274 OFFCURVE",
"307 241 OFFCURVE",
"389 241 CURVE SMOOTH",
"495 241 OFFCURVE",
"502 339 OFFCURVE",
"533 339 CURVE SMOOTH",
"558 339 OFFCURVE",
"609 289 OFFCURVE",
"609 202 CURVE SMOOTH",
"609 83 OFFCURVE",
"528 -12 OFFCURVE",
"381 -12 CURVE SMOOTH",
"234 -12 OFFCURVE",
"125 82 OFFCURVE",
"125 249 CURVE SMOOTH",
"125 287 OFFCURVE",
"131 329 OFFCURVE",
"143 374 CURVE"
);
},
{
closed = 1;
nodes = (
"1 471 OFFCURVE",
"33 505 OFFCURVE",
"77 505 CURVE SMOOTH",
"109 505 OFFCURVE",
"133 491 OFFCURVE",
"162 454 CURVE",
"220 483 OFFCURVE",
"246 540 OFFCURVE",
"246 585 CURVE SMOOTH",
"246 608 OFFCURVE",
"235 623 OFFCURVE",
"214 623 CURVE SMOOTH",
"190 623 OFFCURVE",
"177 602 OFFCURVE",
"164 602 CURVE SMOOTH",
"153 602 OFFCURVE",
"147 616 OFFCURVE",
"147 636 CURVE SMOOTH",
"147 746 OFFCURVE",
"252 853 OFFCURVE",
"400 853 CURVE SMOOTH",
"534 853 OFFCURVE",
"619 772 OFFCURVE",
"619 656 CURVE SMOOTH",
"619 464 OFFCURVE",
"457 294 OFFCURVE",
"161 294 CURVE SMOOTH",
"63 294 OFFCURVE",
"1 347 OFFCURVE",
"1 416 CURVE SMOOTH"
);
}
);
width = 600;
},
{
associatedMasterId = "FF8CB9F1-2B98-444C-A502-96421F2531A8";
background = {
paths = (
{
closed = 1;
nodes = (
"198 374 LINE",
"253 274 OFFCURVE",
"307 241 OFFCURVE",
"389 241 CURVE SMOOTH",
"495 241 OFFCURVE",
"502 339 OFFCURVE",
"533 339 CURVE SMOOTH",
"558 339 OFFCURVE",
"609 274 OFFCURVE",
"609 202 CURVE SMOOTH",
"609 83 OFFCURVE",
"528 -12 OFFCURVE",
"365 -12 CURVE SMOOTH",
"157 -12 OFFCURVE",
"79 180 OFFCURVE",
"131 374 CURVE"
);
},
{
closed = 1;
nodes = (
"-47 490 OFFCURVE",
"9 544 OFFCURVE",
"53 544 CURVE SMOOTH",
"85 544 OFFCURVE",
"133 516 OFFCURVE",
"162 479 CURVE",
"220 508 OFFCURVE",
"246 540 OFFCURVE",
"246 585 CURVE SMOOTH",
"246 608 OFFCURVE",
"235 623 OFFCURVE",
"214 623 CURVE SMOOTH",
"190 623 OFFCURVE",
"177 602 OFFCURVE",
"164 602 CURVE SMOOTH",
"153 602 OFFCURVE",
"147 616 OFFCURVE",
"147 636 CURVE SMOOTH",
"147 746 OFFCURVE",
"252 853 OFFCURVE",
"400 853 CURVE SMOOTH",
"534 853 OFFCURVE",
"619 772 OFFCURVE",
"619 667 CURVE SMOOTH",
"619 473 OFFCURVE",
"415 295 OFFCURVE",
"151 295 CURVE SMOOTH",
"45 295 OFFCURVE",
"-47 355 OFFCURVE",
"-47 424 CURVE SMOOTH"
);
}
);
};
layerId = "82E28026-5678-4053-A041-24D6F7DBBA03";
name = "bigger and flat";
paths = (
{
closed = 1;
nodes = (
"198 374 LINE",
"253 274 OFFCURVE",
"307 241 OFFCURVE",
"389 241 CURVE SMOOTH",
"495 241 OFFCURVE",
"502 339 OFFCURVE",
"533 339 CURVE SMOOTH",
"558 339 OFFCURVE",
"609 274 OFFCURVE",
"609 202 CURVE SMOOTH",
"609 83 OFFCURVE",
"528 -12 OFFCURVE",
"365 -12 CURVE SMOOTH",
"157 -12 OFFCURVE",
"79 180 OFFCURVE",
"131 374 CURVE"
);
},
{
closed = 1;
nodes = (
"-47 500 OFFCURVE",
"-5 544 OFFCURVE",
"47 544 CURVE SMOOTH",
"97 544 OFFCURVE",
"134 517 OFFCURVE",
"162 479 CURVE",
"220 508 OFFCURVE",
"246 540 OFFCURVE",
"246 585 CURVE SMOOTH",
"246 608 OFFCURVE",
"235 623 OFFCURVE",
"214 623 CURVE SMOOTH",
"190 623 OFFCURVE",
"177 602 OFFCURVE",
"164 602 CURVE SMOOTH",
"153 602 OFFCURVE",
"147 616 OFFCURVE",
"147 636 CURVE SMOOTH",
"147 746 OFFCURVE",
"252 853 OFFCURVE",
"400 853 CURVE SMOOTH",
"534 853 OFFCURVE",
"619 772 OFFCURVE",
"619 667 CURVE SMOOTH",
"619 473 OFFCURVE",
"415 308 OFFCURVE",
"168 308 CURVE SMOOTH",
"35 308 OFFCURVE",
"-47 362 OFFCURVE",
"-47 444 CURVE SMOOTH"
);
}
);
width = 600;
}
);
unicode = 0AB0;
},
{
glyphname = gjLA;
lastChange = "2015-07-13 13:53:33 +0000";
layers = (
{
background = {
components = (
{
name = gjmAA;
transform = "{1, 0, 0, 1, 569, 0}";
}
);
paths = (
{
closed = 1;
nodes = (
"414 170 OFFCURVE",
"527 264 OFFCURVE",
"527 329 CURVE SMOOTH",
"527 342 OFFCURVE",
"523 346 OFFCURVE",
"515 346 CURVE SMOOTH",
"503 346 OFFCURVE",
"481 336 OFFCURVE",
"454 336 CURVE SMOOTH",
"399 336 OFFCURVE",
"345 376 OFFCURVE",
"345 461 CURVE SMOOTH",
"345 620 OFFCURVE",
"452 724 OFFCURVE",
"561 740 CURVE SMOOTH",
"589 744 OFFCURVE",
"600 746 OFFCURVE",
"600 766 CURVE SMOOTH",
"600 799 OFFCURVE",
"541 857 OFFCURVE",
"414 857 CURVE SMOOTH",
"171 857 OFFCURVE",
"-8 677 OFFCURVE",
"-8 430 CURVE SMOOTH",
"-8 265 OFFCURVE",
"103 170 OFFCURVE",
"280 170 CURVE SMOOTH"
);
},
{
closed = 1;
nodes = (
"774 656 LINE",
"598 606 LINE SMOOTH",
"587 603 OFFCURVE",
"574 599 OFFCURVE",
"562 599 CURVE SMOOTH",
"530 599 OFFCURVE",
"543 641 OFFCURVE",
"518 641 CURVE SMOOTH",
"487 641 OFFCURVE",
"425 579 OFFCURVE",
"425 509 CURVE SMOOTH",
"425 447 OFFCURVE",
"472 421 OFFCURVE",
"519 421 CURVE SMOOTH",
"553 421 OFFCURVE",
"582 436 OFFCURVE",
"632 477 CURVE SMOOTH",
"774 594 LINE"
);
}
);
};
layerId = "FF8CB9F1-2B98-444C-A502-96421F2531A8";
rightMetricsKey = gjPA;
name = "Bold Italic";
paths = (
{
closed = 1;
nodes = (
"414 170 OFFCURVE",
"527 264 OFFCURVE",
"527 329 CURVE SMOOTH",
"527 342 OFFCURVE",
"523 346 OFFCURVE",
"515 346 CURVE SMOOTH",
"503 346 OFFCURVE",
"481 336 OFFCURVE",
"454 336 CURVE SMOOTH",
"399 336 OFFCURVE",
"345 376 OFFCURVE",
"345 461 CURVE SMOOTH",
"345 620 OFFCURVE",
"452 724 OFFCURVE",
"561 740 CURVE SMOOTH",
"589 744 OFFCURVE",
"600 746 OFFCURVE",
"600 766 CURVE SMOOTH",
"600 799 OFFCURVE",
"541 857 OFFCURVE",
"414 857 CURVE SMOOTH",
"171 857 OFFCURVE",
"-8 677 OFFCURVE",
"-8 430 CURVE SMOOTH",
"-8 265 OFFCURVE",
"103 170 OFFCURVE",
"280 170 CURVE SMOOTH"
);
},
{
closed = 1;
nodes = (
"1109 733 LINE SMOOTH",
"1114 750 OFFCURVE",
"1117 766 OFFCURVE",
"1117 779 CURVE SMOOTH",
"1117 809 OFFCURVE",
"1104 844 OFFCURVE",
"1016 844 CURVE SMOOTH",
"840 844 OFFCURVE",
"665 599 OFFCURVE",
"574 599 CURVE SMOOTH",
"538 599 OFFCURVE",
"543 641 OFFCURVE",
"518 641 CURVE SMOOTH",
"487 641 OFFCURVE",
"425 571 OFFCURVE",
"425 500 CURVE SMOOTH",
"425 438 OFFCURVE",
"461 403 OFFCURVE",
"516 403 CURVE SMOOTH",
"561 403 OFFCURVE",
"591 424 OFFCURVE",
"672.586 510.44 CURVE",
"631 379 LINE SMOOTH",
"602 287 OFFCURVE",
"589 234 OFFCURVE",
"589 186 CURVE SMOOTH",
"589 85 OFFCURVE",
"648 -4 OFFCURVE",
"808 -4 CURVE SMOOTH",
"948 -4 OFFCURVE",
"1041 98 OFFCURVE",
"1041 184 CURVE SMOOTH",
"1041 202 OFFCURVE",
"1035 220 OFFCURVE",
"1024 220 CURVE SMOOTH",
"1011 220 OFFCURVE",
"1003 187 OFFCURVE",
"973 187 CURVE SMOOTH",
"955 187 OFFCURVE",
"947 203 OFFCURVE",
"955 229 CURVE SMOOTH"
);
}
);
width = 1108;
},
{
associatedMasterId = "FF8CB9F1-2B98-444C-A502-96421F2531A8";
layerId = "AE03CC97-80FF-430D-B7EC-5DE04678B019";
rightMetricsKey = "=gjmAA";
name = "Bold Jun 5 15, 17:17";
paths = (
{
closed = 1;
nodes = (
"531 724 OFFCURVE",
"501 779 OFFCURVE",
"447 779 CURVE SMOOTH",
"387 779 OFFCURVE",
"281 659 OFFCURVE",
"281 500 CURVE SMOOTH",
"281 394 OFFCURVE",
"387 288 OFFCURVE",
"469 288 CURVE SMOOTH",
"551 288 OFFCURVE",
"530 263 OFFCURVE",
"562 292 CURVE SMOOTH",
"583 311 OFFCURVE",
"600 303 OFFCURVE",
"604 276 CURVE SMOOTH",
"608 249 OFFCURVE",
"465 139 OFFCURVE",
"288 139 CURVE SMOOTH",
"111 139 OFFCURVE",
"-42 250 OFFCURVE",
"-42 397 CURVE SMOOTH",
"-42 639 OFFCURVE",
"228 871 OFFCURVE",
"478 871 CURVE SMOOTH",
"548 871 OFFCURVE",
"634 818 OFFCURVE",
"634 783 CURVE SMOOTH",
"634 748 OFFCURVE",
"582 724 OFFCURVE",
"563 724 CURVE SMOOTH"
);
},
{
closed = 1;
nodes = (
"1179 733 LINE SMOOTH",
"1184 750 OFFCURVE",
"1187 766 OFFCURVE",
"1187 779 CURVE SMOOTH",
"1187 809 OFFCURVE",
"1174 844 OFFCURVE",
"1086 844 CURVE SMOOTH",
"858 844 OFFCURVE",
"682 624 OFFCURVE",
"527 624 CURVE SMOOTH",
"473 624 OFFCURVE",
"506 680 OFFCURVE",
"481 680 CURVE SMOOTH",
"427 680 OFFCURVE",
"363 586 OFFCURVE",
"363 522 CURVE SMOOTH",
"363 458 OFFCURVE",
"404 370 OFFCURVE",
"515 370 CURVE SMOOTH",
"592 370 OFFCURVE",
"700 500 OFFCURVE",
"840 603 CURVE",
"719 444 OFFCURVE",
"659 321 OFFCURVE",
"659 186 CURVE SMOOTH",
"659 85 OFFCURVE",
"718 -4 OFFCURVE",
"878 -4 CURVE SMOOTH",
"1018 -4 OFFCURVE",
"1111 98 OFFCURVE",
"1111 184 CURVE SMOOTH",
"1111 202 OFFCURVE",
"1105 220 OFFCURVE",
"1094 220 CURVE SMOOTH",
"1081 220 OFFCURVE",
"1073 187 OFFCURVE",
"1043 187 CURVE SMOOTH",
"1025 187 OFFCURVE",
"1017 203 OFFCURVE",
"1025 229 CURVE SMOOTH"
);
}
);
width = 1207;
},
{
associatedMasterId = "FF8CB9F1-2B98-444C-A502-96421F2531A8";
background = {
paths = (
{
closed = 1;
nodes = (
"1240 733 LINE SMOOTH",
"1245 750 OFFCURVE",
"1248 766 OFFCURVE",
"1248 779 CURVE SMOOTH",
"1248 809 OFFCURVE",
"1235 844 OFFCURVE",
"1147 844 CURVE SMOOTH",
"937 844 OFFCURVE",
"758 645 OFFCURVE",
"634 645 CURVE SMOOTH",
"580 645 OFFCURVE",
"597 732 OFFCURVE",
"572 732 CURVE SMOOTH",
"518 732 OFFCURVE",
"424 633 OFFCURVE",
"424 522 CURVE SMOOTH",
"424 458 OFFCURVE",
"484 382 OFFCURVE",
"587 382 CURVE SMOOTH",
"687 382 OFFCURVE",
"848 525 OFFCURVE",
"934 710 CURVE",
"987 630 LINE",
"806 577 OFFCURVE",
"720 309 OFFCURVE",
"720 186 CURVE SMOOTH",
"720 85 OFFCURVE",
"779 -4 OFFCURVE",
"939 -4 CURVE SMOOTH",
"1079 -4 OFFCURVE",
"1172 98 OFFCURVE",
"1172 184 CURVE SMOOTH",
"1172 202 OFFCURVE",
"1166 220 OFFCURVE",
"1155 220 CURVE SMOOTH",
"1142 220 OFFCURVE",
"1134 187 OFFCURVE",
"1104 187 CURVE SMOOTH",
"1086 187 OFFCURVE",
"1078 203 OFFCURVE",
"1086 229 CURVE SMOOTH"
);
},
{
closed = 1;
nodes = (
"497 860 OFFCURVE",
"480 800 OFFCURVE",
"439 772 CURVE SMOOTH",
"369 724 OFFCURVE",
"301 636 OFFCURVE",
"301 500 CURVE SMOOTH",
"301 394 OFFCURVE",
"407 288 OFFCURVE",
"489 288 CURVE SMOOTH",
"575 288 OFFCURVE",
"582 285 OFFCURVE",
"587 255 CURVE SMOOTH",
"591 228 OFFCURVE",
"498 139 OFFCURVE",
"321 139 CURVE SMOOTH",
"96 139 OFFCURVE",
"-20 250 OFFCURVE",
"-20 397 CURVE SMOOTH",
"-20 676 OFFCURVE",
"193 860 OFFCURVE",
"373 860 CURVE"
);
},
{
closed = 1;
nodes = (
"1067 500 OFFCURVE",
"1125 558 OFFCURVE",
"1125 630 CURVE SMOOTH",
"1125 702 OFFCURVE",
"1067 761 OFFCURVE",
"995 761 CURVE SMOOTH",
"923 761 OFFCURVE",
"864 702 OFFCURVE",
"864 630 CURVE SMOOTH",
"864 558 OFFCURVE",
"923 500 OFFCURVE",
"995 500 CURVE SMOOTH"
);
}
);
};
layerId = "98CE071B-61CE-4E00-98ED-D38932D1D735";
rightMetricsKey = gjPA;
name = "Bold Italic Jul 13 15, 14:31";
paths = (
{
closed = 1;
nodes = (
"937 844 OFFCURVE",
"758 645 OFFCURVE",
"634 645 CURVE SMOOTH",
"580 645 OFFCURVE",
"597 732 OFFCURVE",
"572 732 CURVE SMOOTH",
"518 732 OFFCURVE",
"424 633 OFFCURVE",
"424 522 CURVE SMOOTH",
"424 458 OFFCURVE",
"466 382 OFFCURVE",
"569 382 CURVE SMOOTH",
"739 382 OFFCURVE",
"838 596 OFFCURVE",
"869 596 CURVE SMOOTH",
"876 596 OFFCURVE",
"880 591 OFFCURVE",
"880 584 CURVE SMOOTH",
"880 542 OFFCURVE",
"720 440 OFFCURVE",
"720 186 CURVE SMOOTH",
"720 85 OFFCURVE",
"779 -4 OFFCURVE",
"939 -4 CURVE SMOOTH",
"1079 -4 OFFCURVE",
"1172 98 OFFCURVE",
"1172 184 CURVE SMOOTH",
"1172 202 OFFCURVE",
"1166 220 OFFCURVE",
"1155 220 CURVE SMOOTH",
"1142 220 OFFCURVE",
"1134 187 OFFCURVE",
"1104 187 CURVE SMOOTH",
"1086 187 OFFCURVE",
"1078 203 OFFCURVE",
"1086 229 CURVE SMOOTH",
"1240 733 LINE SMOOTH",
"1245 750 OFFCURVE",
"1248 766 OFFCURVE",
"1248 779 CURVE SMOOTH",
"1248 809 OFFCURVE",
"1235 844 OFFCURVE",
"1147 844 CURVE SMOOTH"
);
},
{
closed = 1;
nodes = (
"193 860 OFFCURVE",
"-20 676 OFFCURVE",
"-20 397 CURVE SMOOTH",
"-20 250 OFFCURVE",
"96 139 OFFCURVE",
"321 139 CURVE SMOOTH",
"498 139 OFFCURVE",
"591 228 OFFCURVE",
"587 255 CURVE SMOOTH",
"582 285 OFFCURVE",
"575 288 OFFCURVE",
"489 288 CURVE SMOOTH",
"407 288 OFFCURVE",
"301 394 OFFCURVE",
"301 500 CURVE SMOOTH",
"301 636 OFFCURVE",
"369 724 OFFCURVE",
"439 772 CURVE SMOOTH",
"480 800 OFFCURVE",
"497 860 OFFCURVE",
"373 860 CURVE"
);
}
);
width = 1268;
},
{
associatedMasterId = "FF8CB9F1-2B98-444C-A502-96421F2531A8";
background = {
paths = (
{
closed = 1;
nodes = (
"394 170 OFFCURVE",
"497 260 OFFCURVE",
"503 329 CURVE SMOOTH",
"504 342 OFFCURVE",
"499 346 OFFCURVE",
"491 346 CURVE SMOOTH",
"479 346 OFFCURVE",
"457 336 OFFCURVE",
"430 336 CURVE SMOOTH",
"380 336 OFFCURVE",
"339 403 OFFCURVE",
"345 471 CURVE SMOOTH",
"357 610 OFFCURVE",
"446 701 OFFCURVE",
"564 701 CURVE SMOOTH",
"589 701 OFFCURVE",
"598 707 OFFCURVE",
"600 727 CURVE SMOOTH",
"604 771 OFFCURVE",
"555 857 OFFCURVE",
"396 857 CURVE SMOOTH",
"174 857 OFFCURVE",
"12 668 OFFCURVE",
"-8 444 CURVE SMOOTH",
"-23 276 OFFCURVE",
"76 170 OFFCURVE",
"263 170 CURVE SMOOTH"
);
},
{
closed = 1;
nodes = (
"626 591 LINE",
"598 576 OFFCURVE",
"573 566 OFFCURVE",
"550 566 CURVE SMOOTH",
"516 566 OFFCURVE",
"527 621 OFFCURVE",
"511 621 CURVE SMOOTH",
"477 621 OFFCURVE",
"418 559 OFFCURVE",
"418 489 CURVE SMOOTH",
"418 449 OFFCURVE",
"456 401 OFFCURVE",
"521 401 CURVE SMOOTH",
"547 401 OFFCURVE",
"579 416 OFFCURVE",
"611 442 CURVE"
);
}
);
};
components = (
{
name = gjmAA;
transform = "{1, 0, 0, 1, 569, 0}";
}
);
layerId = "A6A59C30-8EF8-4A63-94EE-7F6BDE0F199C";
rightMetricsKey = gjPA;
name = "Bold Italic Jul 13 15, 14:49";
paths = (
{
closed = 1;
nodes = (
"414 170 OFFCURVE",
"527 264 OFFCURVE",
"527 329 CURVE SMOOTH",
"527 342 OFFCURVE",
"523 346 OFFCURVE",
"515 346 CURVE SMOOTH",
"503 346 OFFCURVE",
"481 336 OFFCURVE",
"454 336 CURVE SMOOTH",
"399 336 OFFCURVE",
"345 376 OFFCURVE",
"345 461 CURVE SMOOTH",
"345 620 OFFCURVE",
"452 724 OFFCURVE",
"561 740 CURVE SMOOTH",
"589 744 OFFCURVE",
"600 746 OFFCURVE",
"600 766 CURVE SMOOTH",
"600 799 OFFCURVE",
"541 857 OFFCURVE",
"414 857 CURVE SMOOTH",
"171 857 OFFCURVE",
"-8 677 OFFCURVE",
"-8 430 CURVE SMOOTH",
"-8 265 OFFCURVE",
"103 170 OFFCURVE",
"280 170 CURVE SMOOTH"
);
},
{
closed = 1;
nodes = (
"774 656 LINE",
"598 606 LINE SMOOTH",
"587 603 OFFCURVE",
"574 599 OFFCURVE",
"562 599 CURVE SMOOTH",
"530 599 OFFCURVE",
"543 641 OFFCURVE",
"518 641 CURVE SMOOTH",
"487 641 OFFCURVE",
"425 579 OFFCURVE",
"425 509 CURVE SMOOTH",
"425 447 OFFCURVE",
"472 421 OFFCURVE",
"519 421 CURVE SMOOTH",
"553 421 OFFCURVE",
"582 436 OFFCURVE",
"632 477 CURVE SMOOTH",
"774 594 LINE"
);
}
);
width = 1108;
}
);
rightMetricsKey = gjmAA;
unicode = 0AB2;
},
{
glyphname = gjLLA;
lastChange = "2015-07-13 12:48:04 +0000";
layers = (
{
background = {
paths = (
{
closed = 1;
nodes = (
"149 876 OFFCURVE",
"5 700 OFFCURVE",
"5 477 CURVE SMOOTH",
"5 280 OFFCURVE",
"158 170 OFFCURVE",
"325 170 CURVE SMOOTH",
"469 170 OFFCURVE",
"553 236 OFFCURVE",
"619 374 CURVE SMOOTH",
"705 556 LINE SMOOTH",
"736 624 OFFCURVE",
"764 640 OFFCURVE",
"795 640 CURVE SMOOTH",
"838 640 OFFCURVE",
"864 602 OFFCURVE",
"837 521 CURVE SMOOTH",
"791 379 LINE SMOOTH",
"761 287 OFFCURVE",
"749 234 OFFCURVE",
"749 186 CURVE SMOOTH",
"749 85 OFFCURVE",
"808 -4 OFFCURVE",
"968 -4 CURVE SMOOTH",
"1108 -4 OFFCURVE",
"1201 98 OFFCURVE",
"1201 184 CURVE SMOOTH",
"1201 202 OFFCURVE",
"1195 220 OFFCURVE",
"1184 220 CURVE SMOOTH",
"1171 220 OFFCURVE",
"1163 187 OFFCURVE",
"1133 187 CURVE SMOOTH",
"1115 187 OFFCURVE",
"1107 202 OFFCURVE",
"1115 229 CURVE SMOOTH",
"1185 470 LINE SMOOTH",
"1254 709 OFFCURVE",
"1107 838 OFFCURVE",
"916 838 CURVE SMOOTH",
"787 838 OFFCURVE",
"683 789 OFFCURVE",
"601 620 CURVE SMOOTH",
"529 471 LINE SMOOTH",
"494 399 OFFCURVE",
"464 368 OFFCURVE",
"425 368 CURVE SMOOTH",
"364 368 OFFCURVE",
"331 432 OFFCURVE",
"371 561 CURVE SMOOTH",
"403 663 OFFCURVE",
"459 720 OFFCURVE",
"527 720 CURVE SMOOTH",
"571 720 OFFCURVE",
"584 717 OFFCURVE",
"590 737 CURVE SMOOTH",
"603 779 OFFCURVE",
"543 876 OFFCURVE",
"371 876 CURVE SMOOTH"
);
}
);
};
guideLines = (
{
angle = 64.4659;
position = "{694, 816}";
}
);
layerId = "FF8CB9F1-2B98-444C-A502-96421F2531A8";
rightMetricsKey = gjPA;
name = "Bold Italic";
paths = (
{
closed = 1;
nodes = (
"139 876 OFFCURVE",
"5 700 OFFCURVE",
"5 477 CURVE SMOOTH",
"5 270 OFFCURVE",
"158 170 OFFCURVE",
"325 170 CURVE SMOOTH",
"469 170 OFFCURVE",
"553 236 OFFCURVE",
"619 374 CURVE SMOOTH",
"705 556 LINE SMOOTH",
"736 624 OFFCURVE",
"764 640 OFFCURVE",
"795 640 CURVE SMOOTH",
"838 640 OFFCURVE",
"864 602 OFFCURVE",
"837 521 CURVE SMOOTH",
"791 379 LINE SMOOTH",
"761 287 OFFCURVE",
"749 234 OFFCURVE",
"749 186 CURVE SMOOTH",
"749 85 OFFCURVE",
"808 -4 OFFCURVE",
"968 -4 CURVE SMOOTH",
"1108 -4 OFFCURVE",
"1201 98 OFFCURVE",
"1201 184 CURVE SMOOTH",
"1201 202 OFFCURVE",
"1195 220 OFFCURVE",
"1184 220 CURVE SMOOTH",
"1171 220 OFFCURVE",
"1163 187 OFFCURVE",
"1133 187 CURVE SMOOTH",
"1115 187 OFFCURVE",
"1107 202 OFFCURVE",
"1115 229 CURVE SMOOTH",
"1185 470 LINE SMOOTH",
"1254 709 OFFCURVE",
"1107 838 OFFCURVE",
"916 838 CURVE SMOOTH",
"787 838 OFFCURVE",
"683 789 OFFCURVE",
"601 620 CURVE SMOOTH",
"529 471 LINE SMOOTH",
"494 399 OFFCURVE",
"464 368 OFFCURVE",
"425 368 CURVE SMOOTH",
"382 368 OFFCURVE",
"353 399 OFFCURVE",
"353 462 CURVE SMOOTH",
"353 586 OFFCURVE",
"427 712 OFFCURVE",
"551 720 CURVE SMOOTH",
"581 722 OFFCURVE",
"592 730 OFFCURVE",
"592 751 CURVE SMOOTH",
"592 791 OFFCURVE",
"517 876 OFFCURVE",
"371 876 CURVE SMOOTH"
);
}
);
width = 1297;
}
);
rightMetricsKey = gjPA;
unicode = 0AB3;
},
{
glyphname = gjVA;
lastChange = "2015-07-13 13:31:28 +0000";
layers = (
{
background = {
paths = (
{
closed = 1;
nodes = (
"205 876 OFFCURVE",
"53 780 OFFCURVE",
"-7 585 CURVE SMOOTH",
"-95 301 OFFCURVE",
"77 138 OFFCURVE",
"240 138 CURVE SMOOTH",
"400 138 OFFCURVE",
"516 271 OFFCURVE",
"588 453 CURVE",
"528 488 LINE",
"494 379 OFFCURVE",
"448 336 OFFCURVE",
"398 336 CURVE SMOOTH",
"337 336 OFFCURVE",
"296 400 OFFCURVE",
"336 529 CURVE SMOOTH",
"368 631 OFFCURVE",
"439 720 OFFCURVE",
"507 720 CURVE SMOOTH",
"551 720 OFFCURVE",
"564 717 OFFCURVE",
"570 737 CURVE SMOOTH",
"583 779 OFFCURVE",
"515 876 OFFCURVE",
"376 876 CURVE SMOOTH"
);
},
{
closed = 1;
nodes = (
"809 844 OFFCURVE",
"728 821 OFFCURVE",
"617 774 CURVE",
"492 379 LINE",
"462 287 OFFCURVE",
"450 234 OFFCURVE",
"450 186 CURVE SMOOTH",
"450 85 OFFCURVE",
"509 -4 OFFCURVE",
"669 -4 CURVE SMOOTH",
"809 -4 OFFCURVE",
"902 98 OFFCURVE",
"902 184 CURVE SMOOTH",
"902 202 OFFCURVE",
"896 220 OFFCURVE",
"885 220 CURVE SMOOTH",
"872 220 OFFCURVE",
"864 187 OFFCURVE",
"834 187 CURVE SMOOTH",
"816 187 OFFCURVE",
"808 203 OFFCURVE",
"816 229 CURVE SMOOTH",
"970 733 LINE SMOOTH",
"975 750 OFFCURVE",
"978 766 OFFCURVE",
"978 779 CURVE SMOOTH",
"978 809 OFFCURVE",
"965 844 OFFCURVE",
"882 844 CURVE SMOOTH"
);
}
);
};
components = (
{
name = gjmAA;
transform = "{1, 0, 0, 1, 431, 0}";
}
);
layerId = "FF8CB9F1-2B98-444C-A502-96421F2531A8";
rightMetricsKey = gjPA;
name = "Bold Italic";
paths = (
{
closed = 1;
nodes = (
"131 857 OFFCURVE",
"-21 685 OFFCURVE",
"-21 444 CURVE SMOOTH",
"-21 276 OFFCURVE",
"89 170 OFFCURVE",
"250 170 CURVE SMOOTH",
"410 170 OFFCURVE",
"526 303 OFFCURVE",
"598 485 CURVE",
"538 520 LINE",
"504 411 OFFCURVE",
"458 368 OFFCURVE",
"408 368 CURVE SMOOTH",
"364 368 OFFCURVE",
"330 393 OFFCURVE",
"330 469 CURVE SMOOTH",
"330 608 OFFCURVE",
"411 701 OFFCURVE",
"529 701 CURVE SMOOTH",
"554 701 OFFCURVE",
"562 707 OFFCURVE",
"562 727 CURVE SMOOTH",
"562 771 OFFCURVE",
"506 857 OFFCURVE",
"347 857 CURVE SMOOTH"
);
}
);
width = 998;
}
);
rightMetricsKey = gjmAA;
unicode = 0AB5;
},
{
glyphname = gjSHA;
lastChange = "2015-07-13 12:51:18 +0000";
layers = (
{
associatedMasterId = "FF8CB9F1-2B98-444C-A502-96421F2531A8";
layerId = "F3372226-BD91-427A-91C2-9471E6E51360";
name = original;
paths = (
{
closed = 1;
nodes = (
"511 848 CURVE SMOOTH",
"649 848 OFFCURVE",
"717 756 OFFCURVE",
"717 608 CURVE SMOOTH",
"717 352 OFFCURVE",
"460 -10 OFFCURVE",
"210 -10 CURVE SMOOTH",
"104 -10 OFFCURVE",
"10 95 OFFCURVE",
"10 233 CURVE SMOOTH",
"10 366 OFFCURVE",
"82 452 OFFCURVE",
"159 452 CURVE SMOOTH",
"199 452 OFFCURVE",
"224 439 OFFCURVE",
"281 396 CURVE",
"281 396 OFFCURVE",
"419 488 OFFCURVE",
"419 572 CURVE SMOOTH",
"419 604 OFFCURVE",
"406 627 OFFCURVE",
"380 627 CURVE SMOOTH",
"342 627 OFFCURVE",
"293 524 OFFCURVE",
"393 480 CURVE SMOOTH",
"425 466 OFFCURVE",
"376 434 OFFCURVE",
"361 434 CURVE SMOOTH",
"319 434 OFFCURVE",
"202 493 OFFCURVE",
"202 611 CURVE SMOOTH",
"202 744 OFFCURVE",
"329 848 OFFCURVE"
);
},
{
closed = 1;
nodes = (
"466 203 LINE",
"679 40 OFFCURVE",
"774 25 OFFCURVE",
"937 25 CURVE SMOOTH",
"1100 25 OFFCURVE",
"1150 123 OFFCURVE",
"1179 123 CURVE SMOOTH",
"1208 123 OFFCURVE",
"1231 39 OFFCURVE",
"1231 -15 CURVE SMOOTH",
"1231 -174 OFFCURVE",
"1127 -272 OFFCURVE",
"960 -272 CURVE SMOOTH",
"766 -272 OFFCURVE",
"582 -175 OFFCURVE",
"346 87 CURVE"
);
},
{
closed = 1;
nodes = (
"816 550 LINE",
"786 458 OFFCURVE",
"774 405 OFFCURVE",
"774 357 CURVE SMOOTH",
"774 256 OFFCURVE",
"833 167 OFFCURVE",
"993 167 CURVE SMOOTH",
"1133 167 OFFCURVE",
"1226 269 OFFCURVE",
"1226 355 CURVE SMOOTH",
"1226 373 OFFCURVE",
"1220 391 OFFCURVE",
"1209 391 CURVE SMOOTH",
"1196 391 OFFCURVE",
"1188 358 OFFCURVE",
"1158 358 CURVE SMOOTH",
"1140 358 OFFCURVE",
"1132 374 OFFCURVE",
"1140 400 CURVE SMOOTH",
"1241 733 LINE SMOOTH",
"1246 750 OFFCURVE",
"1249 766 OFFCURVE",
"1249 779 CURVE SMOOTH",
"1249 809 OFFCURVE",
"1236 844 OFFCURVE",
"1153 844 CURVE SMOOTH",
"1080 844 OFFCURVE",
"999 821 OFFCURVE",
"888 774 CURVE"
);
}
);
width = 1269;
},
{
background = {
paths = (
{
closed = 1;
nodes = (
"218 191 LINE",
"342 -98 OFFCURVE",
"557 -274 OFFCURVE",
"857 -274 CURVE SMOOTH",
"1097 -274 OFFCURVE",
"1220 -140 OFFCURVE",
"1220 14 CURVE SMOOTH",
"1220 68 OFFCURVE",
"1201 108 OFFCURVE",
"1187 108 CURVE SMOOTH",
"1161 108 OFFCURVE",
"1134 19 OFFCURVE",
"884 19 CURVE SMOOTH",
"644 19 OFFCURVE",
"435 106 OFFCURVE",
"278 262 CURVE"
);
},
{
closed = 1;
nodes = (
"239 850 OFFCURVE",
"121 739 OFFCURVE",
"121 611 CURVE SMOOTH",
"121 515 OFFCURVE",
"186 459 OFFCURVE",
"280 413 CURVE",
"334 475 LINE",
"289 492 OFFCURVE",
"251 524 OFFCURVE",
"251 574 CURVE SMOOTH",
"251 611 OFFCURVE",
"272 628 OFFCURVE",
"295 628 CURVE SMOOTH",
"322 628 OFFCURVE",
"342 607 OFFCURVE",
"342 561 CURVE SMOOTH",
"342 470 OFFCURVE",
"254 416 OFFCURVE",
"180 383 CURVE",
"149 419 OFFCURVE",
"110 444 OFFCURVE",
"61 440 CURVE SMOOTH",
"9 437 OFFCURVE",
"-26 396 OFFCURVE",
"-26 338 CURVE SMOOTH",
"-26 241 OFFCURVE",
"99 139 OFFCURVE",
"229 139 CURVE SMOOTH",
"432 139 OFFCURVE",
"709 350 OFFCURVE",
"709 584 CURVE SMOOTH",
"709 732 OFFCURVE",
"611 850 OFFCURVE",
"412 850 CURVE SMOOTH"
);
},
{
closed = 1;
nodes = (
"810 543 OFFCURVE",
"764 515 OFFCURVE",
"657 533 CURVE",
"575 488 LINE",
"644 413 OFFCURVE",
"726 376 OFFCURVE",
"827 376 CURVE",
"842 644 LINE"
);
},
{
closed = 1;
nodes = (
"1048 844 OFFCURVE",
"898 808 OFFCURVE",
"872 733 CURVE SMOOTH",
"796 510 LINE SMOOTH",
"764 419 OFFCURVE",
"748 365 OFFCURVE",
"747 317 CURVE SMOOTH",
"743 216 OFFCURVE",
"799 127 OFFCURVE",
"959 127 CURVE SMOOTH",
"1099 127 OFFCURVE",
"1196 229 OFFCURVE",
"1199 315 CURVE SMOOTH",
"1199 333 OFFCURVE",
"1194 351 OFFCURVE",
"1183 351 CURVE SMOOTH",
"1170 351 OFFCURVE",
"1161 318 OFFCURVE",
"1131 318 CURVE SMOOTH",
"1113 318 OFFCURVE",
"1106 334 OFFCURVE",
"1114 360 CURVE SMOOTH",
"1238 733 LINE SMOOTH",
"1244 750 OFFCURVE",
"1247 766 OFFCURVE",
"1248 779 CURVE SMOOTH",
"1249 809 OFFCURVE",
"1237 844 OFFCURVE",
"1149 844 CURVE SMOOTH"
);
}
);
};
guideLines = (
{
angle = 90;
position = "{296.500, 570}";
}
);
layerId = "FF8CB9F1-2B98-444C-A502-96421F2531A8";
name = "Bold Italic";
paths = (
{
closed = 1;
nodes = (
"187 191 LINE",
"321 -127 OFFCURVE",
"557 -274 OFFCURVE",
"857 -274 CURVE SMOOTH",
"1097 -274 OFFCURVE",
"1220 -140 OFFCURVE",
"1220 14 CURVE SMOOTH",
"1220 68 OFFCURVE",
"1201 108 OFFCURVE",
"1187 108 CURVE SMOOTH",
"1161 108 OFFCURVE",
"1134 19 OFFCURVE",
"884 19 CURVE SMOOTH",
"644 19 OFFCURVE",
"435 106 OFFCURVE",
"278 262 CURVE"
);
},
{
closed = 1;
nodes = (
"241 850 OFFCURVE",
"142 742 OFFCURVE",
"131 626 CURVE SMOOTH",
"122 530 OFFCURVE",
"183 459 OFFCURVE",
"273 413 CURVE",
"332 475 LINE",
"289 492 OFFCURVE",
"254 524 OFFCURVE",
"258 574 CURVE SMOOTH",
"261 611 OFFCURVE",
"284 628 OFFCURVE",
"307 628 CURVE SMOOTH",
"334 628 OFFCURVE",
"352 607 OFFCURVE",
"348 561 CURVE SMOOTH",
"340 470 OFFCURVE",
"247 416 OFFCURVE",
"170 383 CURVE",
"142 419 OFFCURVE",
"106 444 OFFCURVE",
"56 440 CURVE SMOOTH",
"4 437 OFFCURVE",
"-35 396 OFFCURVE",
"-40 338 CURVE SMOOTH",
"-48 241 OFFCURVE",
"68 139 OFFCURVE",
"198 139 CURVE SMOOTH",
"401 139 OFFCURVE",
"696 350 OFFCURVE",
"717 584 CURVE SMOOTH",
"730 732 OFFCURVE",
"607 850 OFFCURVE",
"429 850 CURVE SMOOTH"
);
},
{
closed = 1;
nodes = (
"810 543 OFFCURVE",
"764 515 OFFCURVE",
"657 533 CURVE",
"575 488 LINE",
"644 413 OFFCURVE",
"726 376 OFFCURVE",
"827 376 CURVE",
"842 644 LINE"
);
},
{
closed = 1;
nodes = (
"1048 844 OFFCURVE",
"898 808 OFFCURVE",
"872 733 CURVE SMOOTH",
"796 510 LINE SMOOTH",
"764 419 OFFCURVE",
"748 365 OFFCURVE",
"747 317 CURVE SMOOTH",
"743 216 OFFCURVE",
"799 127 OFFCURVE",
"959 127 CURVE SMOOTH",
"1099 127 OFFCURVE",
"1196 229 OFFCURVE",
"1199 315 CURVE SMOOTH",
"1199 333 OFFCURVE",
"1194 351 OFFCURVE",
"1183 351 CURVE SMOOTH",
"1170 351 OFFCURVE",
"1161 318 OFFCURVE",
"1131 318 CURVE SMOOTH",
"1113 318 OFFCURVE",
"1106 334 OFFCURVE",
"1114 360 CURVE SMOOTH",
"1238 733 LINE SMOOTH",
"1244 750 OFFCURVE",
"1247 766 OFFCURVE",
"1248 779 CURVE SMOOTH",
"1249 809 OFFCURVE",
"1237 844 OFFCURVE",
"1149 844 CURVE SMOOTH"
);
}
);
width = 1267;
}
);
unicode = 0AB6;
},
{
glyphname = gjSSA;
lastChange = "2015-07-13 12:50:29 +0000";
layers = (
{
background = {
paths = (
{
closed = 1;
nodes = (
"855 844 OFFCURVE",
"773 821 OFFCURVE",
"663 774 CURVE",
"538 379 LINE SMOOTH",
"508 286 OFFCURVE",
"496 234 OFFCURVE",
"496 186 CURVE SMOOTH",
"496 85 OFFCURVE",
"555 -4 OFFCURVE",
"714 -4 CURVE SMOOTH",
"855 -4 OFFCURVE",
"947 98 OFFCURVE",
"947 184 CURVE SMOOTH",
"947 202 OFFCURVE",
"941 220 OFFCURVE",
"930 220 CURVE SMOOTH",
"917 220 OFFCURVE",
"910 187 OFFCURVE",
"880 187 CURVE SMOOTH",
"867 187 OFFCURVE",
"858 196 OFFCURVE",
"858 210 CURVE SMOOTH",
"858 216 OFFCURVE",
"859 222 OFFCURVE",
"862 229 CURVE",
"1015 733 LINE SMOOTH",
"1020 750 OFFCURVE",
"1024 766 OFFCURVE",
"1024 779 CURVE SMOOTH",
"1024 809 OFFCURVE",
"1011 844 OFFCURVE",
"928 844 CURVE SMOOTH"
);
}
);
};
components = (
{
name = gjmAA;
transform = "{1, 0, 0, 1, 476, 0}";
}
);
layerId = "FF8CB9F1-2B98-444C-A502-96421F2531A8";
leftMetricsKey = gjPA;
rightMetricsKey = gjPA;
name = "Bold Italic";
paths = (
{
closed = 1;
nodes = (
"127 894 OFFCURVE",
"35 792 OFFCURVE",
"35 707 CURVE SMOOTH",
"35 689 OFFCURVE",
"41 671 OFFCURVE",
"52 671 CURVE SMOOTH",
"65 671 OFFCURVE",
"72 703 OFFCURVE",
"102 703 CURVE SMOOTH",
"115 703 OFFCURVE",
"124 695 OFFCURVE",
"124 679 CURVE SMOOTH",
"124 674 OFFCURVE",
"123 668 OFFCURVE",
"120 661 CURVE",
"69 506 LINE SMOOTH",
"53 458 OFFCURVE",
"43 413 OFFCURVE",
"43 372 CURVE SMOOTH",
"43 252 OFFCURVE",
"115 170 OFFCURVE",
"270 170 CURVE SMOOTH",
"408 170 OFFCURVE",
"502 240 OFFCURVE",
"568 329 CURVE SMOOTH",
"648 406 LINE",
"488 753 LINE SMOOTH",
"440 858 OFFCURVE",
"372 894 OFFCURVE",
"268 894 CURVE SMOOTH"
);
},
{
closed = 1;
nodes = (
"435 643 LINE",
"545 422 LINE",
"521 383 OFFCURVE",
"490 361 OFFCURVE",
"460 361 CURVE SMOOTH",
"420 361 OFFCURVE",
"405 382 OFFCURVE",
"405 408 CURVE SMOOTH",
"405 422 OFFCURVE",
"409 438 OFFCURVE",
"415 454 CURVE SMOOTH",
"489 643 LINE"
);
}
);
width = 1044;
}
);
leftMetricsKey = gjPA;
rightMetricsKey = gjmAA;
unicode = 0AB7;
},
{
glyphname = gjSA;
lastChange = "2015-07-13 12:51:42 +0000";
layers = (
{
background = {
paths = (
{
closed = 1;
nodes = (
"142 345 LINE",
"160 -88 OFFCURVE",
"436 -274 OFFCURVE",
"765 -274 CURVE SMOOTH",
"1037 -274 OFFCURVE",
"1105 -134 OFFCURVE",
"1105 -28 CURVE SMOOTH",
"1105 24 OFFCURVE",
"1085 77 OFFCURVE",
"1068 77 CURVE SMOOTH",
"1039 77 OFFCURVE",
"1013 19 OFFCURVE",
"829 19 CURVE SMOOTH",
"575 19 OFFCURVE",
"357 157 OFFCURVE",
"237 345 CURVE"
);
},
{
closed = 1;
nodes = (
"216 844 OFFCURVE",
"119 730 OFFCURVE",
"126 620 CURVE SMOOTH",
"127 600 OFFCURVE",
"134 587 OFFCURVE",
"145 587 CURVE SMOOTH",
"158 588 OFFCURVE",
"170 610 OFFCURVE",
"194 612 CURVE SMOOTH",
"215 613 OFFCURVE",
"227 599 OFFCURVE",
"228 576 CURVE SMOOTH",
"231 531 OFFCURVE",
"208 497 OFFCURVE",
"152 464 CURVE",
"121 500 OFFCURVE",
"82 525 OFFCURVE",
"33 521 CURVE SMOOTH",
"-19 518 OFFCURVE",
"-58 471 OFFCURVE",
"-54 415 CURVE SMOOTH",
"-49 340 OFFCURVE",
"24 293 OFFCURVE",
"139 293 CURVE SMOOTH",
"310 293 OFFCURVE",
"595 397 OFFCURVE",
"595 659 CURVE SMOOTH",
"595 788 OFFCURVE",
"497 863 OFFCURVE",
"364 854 CURVE SMOOTH"
);
},
{
closed = 1;
nodes = (
"696 543 OFFCURVE",
"650 515 OFFCURVE",
"543 533 CURVE",
"461 488 LINE",
"530 413 OFFCURVE",
"612 376 OFFCURVE",
"713 376 CURVE",
"728 644 LINE"
);
},
{
closed = 1;
nodes = (
"928 844 OFFCURVE",
"780 808 OFFCURVE",
"756 733 CURVE SMOOTH",
"687 510 LINE SMOOTH",
"659 419 OFFCURVE",
"645 365 OFFCURVE",
"645 317 CURVE SMOOTH",
"645 216 OFFCURVE",
"704 127 OFFCURVE",
"864 127 CURVE SMOOTH",
"1004 127 OFFCURVE",
"1097 229 OFFCURVE",
"1097 315 CURVE SMOOTH",
"1097 333 OFFCURVE",
"1091 351 OFFCURVE",
"1080 351 CURVE SMOOTH",
"1067 351 OFFCURVE",
"1059 318 OFFCURVE",
"1029 318 CURVE SMOOTH",
"1011 318 OFFCURVE",
"1004 334 OFFCURVE",
"1011 360 CURVE SMOOTH",
"1122 733 LINE SMOOTH",
"1127 750 OFFCURVE",
"1130 766 OFFCURVE",
"1130 779 CURVE SMOOTH",
"1130 809 OFFCURVE",
"1117 844 OFFCURVE",
"1029 844 CURVE SMOOTH"
);
}
);
};
layerId = "FF8CB9F1-2B98-444C-A502-96421F2531A8";
name = "Bold Italic";
paths = (
{
closed = 1;
nodes = (
"157 345 LINE",
"192 -98 OFFCURVE",
"465 -274 OFFCURVE",
"765 -274 CURVE SMOOTH",
"995 -274 OFFCURVE",
"1106 -140 OFFCURVE",
"1106 14 CURVE SMOOTH",
"1106 67 OFFCURVE",
"1087 108 OFFCURVE",
"1073 108 CURVE SMOOTH",
"1048 108 OFFCURVE",
"1023 19 OFFCURVE",
"829 19 CURVE SMOOTH",
"575 19 OFFCURVE",
"357 157 OFFCURVE",
"237 345 CURVE"
);
},
{
closed = 1;
nodes = (
"216 844 OFFCURVE",
"119 730 OFFCURVE",
"126 620 CURVE SMOOTH",
"127 600 OFFCURVE",
"134 587 OFFCURVE",
"145 587 CURVE SMOOTH",
"158 588 OFFCURVE",
"170 610 OFFCURVE",
"194 612 CURVE SMOOTH",
"215 613 OFFCURVE",
"227 599 OFFCURVE",
"228 576 CURVE SMOOTH",
"231 531 OFFCURVE",
"208 497 OFFCURVE",
"152 464 CURVE",
"121 500 OFFCURVE",
"82 525 OFFCURVE",
"33 521 CURVE SMOOTH",
"-19 518 OFFCURVE",
"-54 477 OFFCURVE",
"-54 419 CURVE SMOOTH",
"-54 322 OFFCURVE",
"73 218 OFFCURVE",
"208 218 CURVE SMOOTH",
"379 218 OFFCURVE",
"595 424 OFFCURVE",
"595 659 CURVE SMOOTH",
"595 788 OFFCURVE",
"497 863 OFFCURVE",
"364 854 CURVE SMOOTH"
);
},
{
closed = 1;
nodes = (
"696 543 OFFCURVE",
"650 515 OFFCURVE",
"543 533 CURVE",
"461 488 LINE",
"530 413 OFFCURVE",
"612 376 OFFCURVE",
"713 376 CURVE",
"728 644 LINE"
);
},
{
closed = 1;
nodes = (
"934 844 OFFCURVE",
"784 808 OFFCURVE",
"758 733 CURVE SMOOTH",
"682 510 LINE SMOOTH",
"650 419 OFFCURVE",
"634 365 OFFCURVE",
"633 317 CURVE SMOOTH",
"629 216 OFFCURVE",
"685 127 OFFCURVE",
"845 127 CURVE SMOOTH",
"985 127 OFFCURVE",
"1082 229 OFFCURVE",
"1085 315 CURVE SMOOTH",
"1085 333 OFFCURVE",
"1080 351 OFFCURVE",
"1069 351 CURVE SMOOTH",
"1056 351 OFFCURVE",
"1047 318 OFFCURVE",
"1017 318 CURVE SMOOTH",
"999 318 OFFCURVE",
"992 334 OFFCURVE",
"1000 360 CURVE SMOOTH",
"1124 733 LINE SMOOTH",
"1130 750 OFFCURVE",
"1133 766 OFFCURVE",
"1134 779 CURVE SMOOTH",
"1135 809 OFFCURVE",
"1123 844 OFFCURVE",
"1035 844 CURVE SMOOTH"
);
}
);
width = 1147;
},
{
associatedMasterId = "FF8CB9F1-2B98-444C-A502-96421F2531A8";
background = {
components = (
{
name = gjRA;
transform = "{1, 0, 0, 1, 0, 0}";
},
{
name = gjmAA;
transform = "{1, 0, 0, 1, 680, 0}";
}
);
};
layerId = "6C0916CB-E25A-48DF-9503-94C034D16871";
leftMetricsKey = "=gjSHA";
rightMetricsKey = "=gjSHA";
name = Original;
paths = (
{
closed = 1;
nodes = (
"383 848 OFFCURVE",
"299 745 OFFCURVE",
"299 633 CURVE SMOOTH",
"299 608 OFFCURVE",
"308 594 OFFCURVE",
"323 594 CURVE SMOOTH",
"343 594 OFFCURVE",
"354 627 OFFCURVE",
"380 627 CURVE SMOOTH",
"406 627 OFFCURVE",
"419 604 OFFCURVE",
"419 572 CURVE SMOOTH",
"419 500 OFFCURVE",
"359 441 OFFCURVE",
"281 396 CURVE",
"224 439 OFFCURVE",
"199 452 OFFCURVE",
"159 452 CURVE SMOOTH",
"82 452 OFFCURVE",
"10 366 OFFCURVE",
"10 233 CURVE SMOOTH",
"10 95 OFFCURVE",
"104 -10 OFFCURVE",
"210 -10 CURVE SMOOTH",
"460 -10 OFFCURVE",
"717 352 OFFCURVE",
"717 608 CURVE SMOOTH",
"717 756 OFFCURVE",
"649 848 OFFCURVE",
"511 848 CURVE SMOOTH"
);
},
{
closed = 1;
nodes = (
"346 87 LINE",
"582 -175 OFFCURVE",
"766 -272 OFFCURVE",
"960 -272 CURVE SMOOTH",
"1127 -272 OFFCURVE",
"1231 -174 OFFCURVE",
"1231 -15 CURVE SMOOTH",
"1231 39 OFFCURVE",
"1208 123 OFFCURVE",
"1179 123 CURVE SMOOTH",
"1150 123 OFFCURVE",
"1100 25 OFFCURVE",
"937 25 CURVE SMOOTH",
"774 25 OFFCURVE",
"679 40 OFFCURVE",
"466 203 CURVE"
);
},
{
closed = 1;
nodes = (
"814 543 OFFCURVE",
"768 515 OFFCURVE",
"661 533 CURVE",
"579 488 LINE",
"648 413 OFFCURVE",
"730 376 OFFCURVE",
"831 376 CURVE",
"846 644 LINE"
);
},
{
closed = 1;
nodes = (
"1080 844 OFFCURVE",
"999 821 OFFCURVE",
"888 774 CURVE",
"816 550 LINE",
"786 458 OFFCURVE",
"774 405 OFFCURVE",
"774 357 CURVE SMOOTH",
"774 256 OFFCURVE",
"833 167 OFFCURVE",
"993 167 CURVE SMOOTH",
"1133 167 OFFCURVE",
"1226 269 OFFCURVE",
"1226 355 CURVE SMOOTH",
"1226 373 OFFCURVE",
"1220 391 OFFCURVE",
"1209 391 CURVE SMOOTH",
"1196 391 OFFCURVE",
"1188 358 OFFCURVE",
"1158 358 CURVE SMOOTH",
"1140 358 OFFCURVE",
"1132 374 OFFCURVE",
"1140 400 CURVE SMOOTH",
"1241 733 LINE SMOOTH",
"1246 750 OFFCURVE",
"1249 766 OFFCURVE",
"1249 779 CURVE SMOOTH",
"1249 809 OFFCURVE",
"1236 844 OFFCURVE",
"1153 844 CURVE SMOOTH"
);
}
);
width = 1269;
},
{
associatedMasterId = "FF8CB9F1-2B98-444C-A502-96421F2531A8";
background = {
paths = (
{
closed = 1;
nodes = (
"142 345 LINE",
"160 -88 OFFCURVE",
"436 -274 OFFCURVE",
"765 -274 CURVE SMOOTH",
"1037 -274 OFFCURVE",
"1105 -134 OFFCURVE",
"1105 -28 CURVE SMOOTH",
"1105 24 OFFCURVE",
"1085 77 OFFCURVE",
"1068 77 CURVE SMOOTH",
"1039 77 OFFCURVE",
"1013 19 OFFCURVE",
"829 19 CURVE SMOOTH",
"575 19 OFFCURVE",
"357 157 OFFCURVE",
"237 345 CURVE"
);
},
{
closed = 1;
nodes = (
"216 844 OFFCURVE",
"119 730 OFFCURVE",
"126 620 CURVE SMOOTH",
"127 600 OFFCURVE",
"134 587 OFFCURVE",
"145 587 CURVE SMOOTH",
"158 588 OFFCURVE",
"170 610 OFFCURVE",
"194 612 CURVE SMOOTH",
"215 613 OFFCURVE",
"227 599 OFFCURVE",
"228 576 CURVE SMOOTH",
"231 531 OFFCURVE",
"208 497 OFFCURVE",
"152 464 CURVE",
"121 500 OFFCURVE",
"82 525 OFFCURVE",
"33 521 CURVE SMOOTH",
"-19 518 OFFCURVE",
"-58 471 OFFCURVE",
"-54 415 CURVE SMOOTH",
"-49 340 OFFCURVE",
"24 293 OFFCURVE",
"139 293 CURVE SMOOTH",
"310 293 OFFCURVE",
"595 397 OFFCURVE",
"595 659 CURVE SMOOTH",
"595 788 OFFCURVE",
"497 863 OFFCURVE",
"364 854 CURVE SMOOTH"
);
},
{
closed = 1;
nodes = (
"696 543 OFFCURVE",
"650 515 OFFCURVE",
"543 533 CURVE",
"461 488 LINE",
"530 413 OFFCURVE",
"612 376 OFFCURVE",
"713 376 CURVE",
"728 644 LINE"
);
},
{
closed = 1;
nodes = (
"928 844 OFFCURVE",
"780 808 OFFCURVE",
"756 733 CURVE SMOOTH",
"687 510 LINE SMOOTH",
"659 419 OFFCURVE",
"645 365 OFFCURVE",
"645 317 CURVE SMOOTH",
"645 216 OFFCURVE",
"704 127 OFFCURVE",
"864 127 CURVE SMOOTH",
"1004 127 OFFCURVE",
"1097 229 OFFCURVE",
"1097 315 CURVE SMOOTH",
"1097 333 OFFCURVE",
"1091 351 OFFCURVE",
"1080 351 CURVE SMOOTH",
"1067 351 OFFCURVE",
"1059 318 OFFCURVE",
"1029 318 CURVE SMOOTH",
"1011 318 OFFCURVE",
"1004 334 OFFCURVE",
"1011 360 CURVE SMOOTH",
"1122 733 LINE SMOOTH",
"1127 750 OFFCURVE",
"1130 766 OFFCURVE",
"1130 779 CURVE SMOOTH",
"1130 809 OFFCURVE",
"1117 844 OFFCURVE",
"1029 844 CURVE SMOOTH"
);
}
);
};
layerId = "DD6DE2C7-1DA4-4310-B773-802A7AC28917";
name = "Small Knot";
paths = (
{
closed = 1;
nodes = (
"142 345 LINE",
"160 -88 OFFCURVE",
"436 -274 OFFCURVE",
"765 -274 CURVE SMOOTH",
"1037 -274 OFFCURVE",
"1105 -134 OFFCURVE",
"1105 -28 CURVE SMOOTH",
"1105 24 OFFCURVE",
"1085 77 OFFCURVE",
"1068 77 CURVE SMOOTH",
"1039 77 OFFCURVE",
"1013 19 OFFCURVE",
"829 19 CURVE SMOOTH",
"575 19 OFFCURVE",
"357 157 OFFCURVE",
"237 345 CURVE"
);
},
{
closed = 1;
nodes = (
"216 844 OFFCURVE",
"119 730 OFFCURVE",
"126 620 CURVE SMOOTH",
"127 600 OFFCURVE",
"134 587 OFFCURVE",
"145 587 CURVE SMOOTH",
"158 588 OFFCURVE",
"170 610 OFFCURVE",
"194 612 CURVE SMOOTH",
"215 613 OFFCURVE",
"227 599 OFFCURVE",
"228 576 CURVE SMOOTH",
"231 531 OFFCURVE",
"208 497 OFFCURVE",
"152 464 CURVE",
"121 500 OFFCURVE",
"82 525 OFFCURVE",
"33 521 CURVE SMOOTH",
"-19 518 OFFCURVE",
"-58 471 OFFCURVE",
"-54 415 CURVE SMOOTH",
"-49 340 OFFCURVE",
"24 293 OFFCURVE",
"139 293 CURVE SMOOTH",
"310 293 OFFCURVE",
"595 397 OFFCURVE",
"595 659 CURVE SMOOTH",
"595 788 OFFCURVE",
"497 863 OFFCURVE",
"364 854 CURVE SMOOTH"
);
},
{
closed = 1;
nodes = (
"696 543 OFFCURVE",
"650 515 OFFCURVE",
"543 533 CURVE",
"461 488 LINE",
"530 413 OFFCURVE",
"612 376 OFFCURVE",
"713 376 CURVE",
"728 644 LINE"
);
},
{
closed = 1;
nodes = (
"934 844 OFFCURVE",
"784 808 OFFCURVE",
"758 733 CURVE SMOOTH",
"682 510 LINE SMOOTH",
"650 419 OFFCURVE",
"634 365 OFFCURVE",
"633 317 CURVE SMOOTH",
"629 216 OFFCURVE",
"685 127 OFFCURVE",
"845 127 CURVE SMOOTH",
"985 127 OFFCURVE",
"1082 229 OFFCURVE",
"1085 315 CURVE SMOOTH",
"1085 333 OFFCURVE",
"1080 351 OFFCURVE",
"1069 351 CURVE SMOOTH",
"1056 351 OFFCURVE",
"1047 318 OFFCURVE",
"1017 318 CURVE SMOOTH",
"999 318 OFFCURVE",
"992 334 OFFCURVE",
"1000 360 CURVE SMOOTH",
"1124 733 LINE SMOOTH",
"1130 750 OFFCURVE",
"1133 766 OFFCURVE",
"1134 779 CURVE SMOOTH",
"1135 809 OFFCURVE",
"1123 844 OFFCURVE",
"1035 844 CURVE SMOOTH"
);
}
);
width = 1153;
},
{
associatedMasterId = "FF8CB9F1-2B98-444C-A502-96421F2531A8";
components = (
{
name = gjRA;
transform = "{1, 0, 0, 1, 0, 0}";
},
{
name = gjmAA;
transform = "{1, 0, 0, 1, 655, 0}";
}
);
layerId = "448CB6BC-C87E-45FB-93D1-16F26E3689F8";
leftMetricsKey = gjRA;
rightMetricsKey = gjPA;
name = Standard;
paths = (
{
closed = 1;
nodes = (
"763 523 OFFCURVE",
"682 485 OFFCURVE",
"567 520 CURVE",
"493 468 LINE",
"590 367 OFFCURVE",
"665 346 OFFCURVE",
"780 356 CURVE",
"795 624 LINE"
);
}
);
width = 1208;
}
);
leftMetricsKey = gjRA;
unicode = 0AB8;
},
